<?xml version="1.0" encoding="UTF-8"?><svg id="Layer_1" xmlns="http://www.w3.org/2000/svg" viewBox="0 0 249 231"><g id="GUqKHH"><g><path d="M169.97,58.9c-2.45,1.53-4.77,3.23-8.02,2.81-2.02-.26-4.02,.5-5.99,1.05-2.26,.63-2.46,.54-2.42-1.81,.1-6.39-1.6-12.25-5.3-17.45-6.96-9.78-16.57-14.27-28.43-12.91-11.53,1.32-19.67,7.72-24.33,18.39-1.68,3.84-1.56,3.81-5.28,2.08-8.04-3.75-15.94-3.33-23.19,1.77-7.51,5.28-10.8,12.7-9.63,21.93,.38,3.01,.4,2.99-2.57,3.64-8.7,1.89-14.67,7.1-17.4,15.48-2.74,8.39-.98,16.18,5.03,22.71,4.44,4.83,10.16,7.19,16.73,7.28,6.1,.09,12.19,.01,18.29,.01,10.41,0,20.83,.17,31.24-.07,5.18-.12,10.43-.31,15.55-.17,11.41,.3,22.8,.06,34.2,.23,6.52,.1,13.04,.13,19.55-.04,2.34-.06,3.3,1.4,4.14,2.96,.7,1.29-.69,1.05-1.3,1.06-4,.06-8.01,.06-12.01,.06-16.58,0-33.17-.14-49.75,.07-3.21,.04-6.39-.34-9.6-.15-3.43,.2-6.88,.05-10.33,.05-3.37,0-6.75,0-10.12,0-3.37,0-6.75,0-10.12,0-3.44,0-6.89,0-10.33,0-3.37,0-6.75,.03-10.12-.03-13.39-.23-24.65-10.78-26.11-24.07-1.36-12.35,6.29-24.5,18.23-28.34,1.96-.63,2.57-1.54,2.57-3.57-.03-18.96,18.02-31.81,35.93-25.55,2.11,.74,2.98,.41,3.98-1.59,6.39-12.79,21.11-20.3,35.14-18.08,15.06,2.38,26.61,13.68,28.87,28.23,.09,.56,.25,1.1,.28,1.66,.07,1.33,.73,1.57,1.97,1.38,3.15-.48,6.3-.37,9.44,.2,.46,.08,1,.08,1.2,.78Z"/><path d="M191.36,126.54c-.7,0-1.41,0-2.11,0-4.22-.06-6.18-1.72-6.89-5.85-.51-2.94-3.86-4.34-6.31-2.63-3.6,2.53-5.82,2.33-8.89-.79-.94-.95-1.85-1.93-2.84-2.82-2.85-2.55-3.22-5.55-1.02-8.57,1.99-2.73,.79-5.86-2.5-6.53-3.8-.77-5.24-2.52-5.27-6.41-.01-1.76-.03-3.51,0-5.27,.07-3.29,1.93-5.41,5.14-5.91,3.18-.49,4.48-3.66,2.61-6.33-1.9-2.71-1.75-5.48,.48-7.85,1.25-1.33,2.55-2.61,3.88-3.87,2.53-2.38,5.13-2.58,8.02-.68,2.53,1.67,6.03,.25,6.56-2.65,.69-3.76,3.23-5.66,7.27-5.45,1.33,.07,2.66,.16,4,.18,3.76,.06,5.54,1.49,6.34,5.14,.7,3.18,4.26,4.6,6.94,2.78,2.75-1.87,5.7-1.58,8.01,.78,1.28,1.3,2.63,2.55,3.83,3.92,2.27,2.59,2.32,5.27,.26,8.04-1.95,2.63-.52,6.01,2.71,6.41,2.83,.35,4.61,1.97,5.12,4.79,.44,2.44,.4,4.91,.08,7.35-.43,3.34-1.91,4.83-5.23,5.37-1.58,.26-2.87,.57-3.52,2.41-.49,1.38-.41,2.3,.46,3.43,2.56,3.34,2.43,5.69-.41,8.8-1.23,1.35-2.54,2.62-3.89,3.85-2.47,2.25-5.37,2.12-8.36-.29-1.89-1.52-5.29-.23-5.71,2.17-.9,5.19-2.5,6.55-7.71,6.5-.35,0-.7,0-1.05,0v-.02Zm19.01-10.87c.24-.1,.64-.16,.87-.38,1.57-1.51,3.14-3.01,4.64-4.59,.6-.64,.59-1.57-.06-2.11-3.53-2.92-2.7-5.97-.93-9.57,.97-1.99,1.77-2.97,4.02-3.03,3.44-.09,3.85-.67,3.86-4.02,0-.77,0-1.55,0-2.32-.02-3-.16-3.36-3.09-3.59-2.54-.2-4.16-.97-4.61-3.74-.22-1.34-1.02-2.6-1.64-3.86-.45-.91-.54-1.7,.18-2.52,3.94-4.47,3.33-4.22-.79-8.39-.2-.2-.41-.39-.6-.59-1.23-1.36-2.49-1.39-3.82-.12-.45,.44-1.01,.76-1.46,1.2-1.05,1.03-2.06,1.17-3.36,.3-1.7-1.14-3.62-1.89-5.61-2.36-1.23-.3-1.7-.97-1.84-2.18-.56-4.71-.59-4.7-5.35-4.73-.07,0-.14,0-.21,0-3.99-.01-4.06-.02-4.54,3.88-.22,1.83-.88,2.94-2.82,3.31-1.72,.33-3.34,1.1-4.82,2.06-.96,.62-1.79,.69-2.66-.11-4.35-4-4.55-2.31-7.6,.64-.45,.44-.89,.9-1.33,1.35-.92,.94-1.07,1.93-.19,2.99,.53,.65,1.01,1.35,1.58,1.98,.97,1.07,1.07,2.08,.36,3.41-.86,1.6-1.47,3.34-2.08,5.06-.34,.96-.79,1.59-1.88,1.67-5.95,.42-5,.94-5.08,6.31,0,.35,.02,.7,0,1.05-.1,1.61,.63,2.78,2.23,2.69,3.59-.19,5.14,1.76,5.77,4.91,.03,.14,.08,.28,.16,.39,2.07,2.69,1.57,5.02-.85,7.24-1.19,1.09-1.03,2.36,.15,3.48,.46,.43,.89,.9,1.33,1.35,3.48,3.48,3.51,3.53,7.35,.51,1.17-.92,2.07-1.07,3.38-.29,1.31,.78,2.78,1.44,4.26,1.76,2.08,.45,2.83,1.49,2.93,3.6,.18,3.7,.54,3.92,4.07,4.11,5.5,.3,5.54,.3,6.18-5.2,.15-1.29,.63-2.03,1.91-2.4,1.28-.37,2.63-.74,3.7-1.48,2.06-1.43,3.68-1.11,5.34,.61,.76,.79,1.66,1.54,2.95,1.7Z"/><path d="M120.7,174.8c0,2.04,.08,4.08-.03,6.11-.09,1.66,.51,2.46,2.12,3.06,8.31,3.07,11.34,12.68,6.3,19.68-3.21,4.45-9.02,6.41-14.23,4.79-5.11-1.59-8.84-6.34-9.03-11.53-.22-5.77,2.91-10.85,8.19-12.7,2.11-.74,2.82-1.8,2.74-3.97-.15-4.07,0-8.15-.08-12.22-.03-1.42,.32-2.04,1.85-2.02,1.51,.01,2.21,.5,2.16,2.07-.06,2.25-.01,4.5-.01,6.74h0Zm6.72,21.33c0-4.94-3.9-8.86-8.78-8.82-4.94,.04-8.85,3.94-8.84,8.81,.02,4.96,3.86,8.79,8.83,8.8,4.93,.02,8.79-3.84,8.79-8.8Z"/><path d="M88.58,156.86c0,1.68,.13,3.38-.04,5.05-.16,1.56,.46,2.23,1.86,2.77,6.76,2.58,9.57,9.68,6.51,16.22-2.06,4.39-7.63,7.14-12.5,6.16-5.4-1.09-9.25-5.44-9.43-10.64-.19-5.68,2.4-9.75,7.69-11.75,1.39-.53,1.77-1.32,1.75-2.68-.05-3.65,0-7.3-.02-10.94,0-1.34,.21-2.3,1.93-2.31,1.65-.01,2.3,.66,2.27,2.23-.03,1.96,0,3.93,0,5.89h-.02Zm-9.62,18.59c-.04,4.34,3.21,7.75,7.46,7.82,4.14,.07,7.61-3.4,7.65-7.65,.03-4.28-3.32-7.67-7.57-7.67-4.12,0-7.5,3.37-7.54,7.5Z"/><path d="M151.01,156.54c0-1.97,.02-3.93,0-5.9-.02-1.32,.55-1.89,1.91-1.89,1.37,0,2.09,.42,2.07,1.92-.05,3.58,.08,7.17-.04,10.75-.06,1.82,.51,2.71,2.27,3.39,5.05,1.93,7.67,6.19,7.42,11.55-.22,4.79-3.62,8.99-8.45,10.44-5.56,1.67-11.88-1.43-13.99-6.88-2.23-5.74,.12-12.22,5.84-14.7,2.61-1.14,3.27-2.6,2.99-5.09-.13-1.18-.02-2.39-.02-3.58h.01Zm-5.47,18.98c-.03,4.4,3.32,7.81,7.64,7.75,3.98-.05,7.41-3.53,7.48-7.6,.07-4.12-3.38-7.64-7.54-7.72-4.18-.08-7.55,3.29-7.58,7.57Z"/><path d="M113.47,104.81c0-4.07,.03-8.14-.01-12.21-.02-1.44,.46-2.3,2.02-2.29,4.13,.03,8.28-.32,12.4,.35,5.54,.9,8.12,4.51,7.25,10.05-.63,3.98-3.85,6.62-8.6,6.89-2.24,.13-4.49,.1-6.73,.04-1.44-.04-2.03,.49-1.99,1.96,.07,2.45-.02,4.91,.05,7.37,.04,1.22-.13,2.15-1.62,2.06-1.32-.08-2.8,.04-2.75-2,.04-2.03,0-4.07,0-6.1,0-2.03,0-4.07,0-6.1Zm9.35-1c1.53-.11,3.1-.06,4.59-.36,2.44-.49,3.46-2.08,3.36-4.8-.08-2.32-1.31-3.72-3.71-4.06-1.52-.21-3.06-.36-4.6-.36-5.37,0-4.63-.65-4.63,4.47,0,5.71-.83,4.97,4.99,5.11Z"/><path d="M104.87,118.92c-1.44,.31-2.27-.49-2.76-1.98-.52-1.6-1.22-3.14-1.77-4.73-.4-1.13-1.07-1.73-2.32-1.72-2.67,.04-5.34,.04-8,0-1.27-.02-1.9,.58-2.28,1.73-.59,1.8-1.25,3.58-1.95,5.34-.48,1.23-3.11,1.89-4.15,1.13-.61-.45-.39-1-.19-1.51,3.23-8.46,6.49-16.91,9.71-25.37,.54-1.43,1.66-1.51,2.9-1.52,1.32-.02,2.21,.39,2.76,1.74,3.03,7.56,6.13,15.08,9.22,22.62,.24,.58,.49,1.16,.74,1.74,1.02,2.35,.92,2.51-1.9,2.53Zm-10.99-23.64c-.88,2.35-1.52,4.11-2.2,5.85q-2.17,5.62,3.91,5.57c.49,0,.98,0,1.47-.04,.71-.04,1.05-.4,.78-1.11-1.24-3.24-2.49-6.46-3.96-10.27Z"/><path d="M184.52,139.21c0,.63,.06,1.27,0,1.9-.29,2.49,.25,4.15,2.9,5.42,3.71,1.79,5.14,6.41,3.93,10.37-1.24,4.08-4.7,6.53-9.07,6.43-4.19-.1-7.52-2.84-8.61-7.07-.97-3.82,.79-8.14,4.5-9.94,2.02-.98,2.53-2.23,2.4-4.25-.14-2.24-.01-4.49-.04-6.74-.01-1.39,.13-2.5,1.97-2.53,1.82-.03,2.08,.97,2.02,2.42-.05,1.33-.01,2.67-.01,4Zm3.17,15.04c.03-2.84-2.32-5.22-5.16-5.24-2.57-.02-5.01,2.46-5.1,5.17-.09,2.82,2.29,5.16,5.22,5.14,2.8-.01,5.01-2.24,5.03-5.08Z"/><path d="M59.21,139.29c0,.63,.06,1.27-.01,1.89-.29,2.48,.22,4.15,2.88,5.39,3.71,1.73,5.14,6.35,3.9,10.34-1.27,4.07-4.94,6.59-9.32,6.4-4.07-.18-7.57-3.22-8.42-7.3-.8-3.86,1.17-8.19,4.8-9.83,1.78-.8,2.34-1.83,2.23-3.68-.14-2.59,0-5.19-.05-7.78-.03-1.5,.7-1.95,2.07-1.93,1.3,.02,1.96,.5,1.92,1.87-.05,1.54-.01,3.09-.01,4.63h0Zm-1.93,20.04c2.92-.02,5.15-2.32,5.1-5.25-.05-2.67-2.56-5.12-5.17-5.04-2.82,.09-5.19,2.53-5.15,5.34,.04,2.7,2.43,4.98,5.22,4.96Z"/><path d="M144.83,104.83c0,4-.06,8.01,.03,12,.04,1.56-.46,2.15-2.02,2.12-1.5-.03-2.38-.42-2.37-2.14,.04-6.25,.01-12.5,.01-18.75,0-1.9,.04-3.79,0-5.69-.04-1.58,.8-2.07,2.23-2.09,1.48-.02,2.17,.54,2.14,2.11-.06,4.14-.02,8.28-.02,12.43h0Z"/><path d="M116.72,154.22c0-1.96,.04-3.93-.01-5.89-.03-1.19,.5-1.65,1.63-1.62,1.08,.03,2.28-.06,2.3,1.46,.06,3.99,.05,7.99,.03,11.98,0,1.54-1.13,1.48-2.23,1.51-1.26,.03-1.78-.54-1.76-1.77,.03-1.89,0-3.78,0-5.68h.04Z"/><path d="M88.55,138.12c0,.91-.03,1.82,0,2.73,.07,1.51-.14,2.4-2.14,2.36-2.11-.04-2.01-1.2-2-2.58,.01-1.96,.03-3.93,0-5.89-.02-1.45,.7-1.95,2.09-1.96,1.4,0,2.11,.53,2.08,1.96-.02,1.12,0,2.24,0,3.36h-.04Z"/><path d="M154.97,138.05c0,.91-.02,1.83,0,2.74,.04,1.35,.08,2.42-1.9,2.43-2.02,.01-2.13-1.01-2.09-2.51,.05-2.04,.05-4.07,.02-6.11-.03-1.57,.9-1.81,2.19-1.82,1.36,0,1.92,.52,1.81,1.89-.09,1.12-.02,2.25-.02,3.37h0Z"/><path d="M120.7,137.12c0,.7-.03,1.4,0,2.1,.07,1.43-.39,2.19-2.02,2.21-1.58,.02-2.18-.63-2.14-2.09,.05-1.68,.16-3.36,.16-5.03,0-1.1,.52-1.51,1.54-1.49,1.05,.02,2.24-.15,2.38,1.37,.09,.97,.02,1.96,.02,2.94h.05Z"/><path d="M177.01,90.45c0-7.71,6.2-14.01,13.85-14.07,7.61-.06,14.19,6.44,14.2,14.03,0,7.67-6.48,14.21-14.05,14.16-7.8-.05-14.01-6.32-14-14.13Zm13.96,9.94c5.56,0,10.09-4.48,10.06-9.96-.03-5.51-4.53-9.9-10.14-9.89-5.57,.01-9.86,4.3-9.87,9.87-.02,5.69,4.25,9.97,9.95,9.97Z"/><path d="M118.58,202.89c-3.58-.03-6.77-3.26-6.69-6.78,.08-3.68,3.23-6.85,6.72-6.76,3.83,.09,6.8,3.11,6.78,6.91-.02,3.59-3.17,6.66-6.81,6.64Zm2.79-6.55c0-1.62-1.35-3.11-2.65-2.95-1.54,.18-2.59,1.05-2.64,2.74-.04,1.45,1.25,2.82,2.63,2.71,1.62-.13,2.47-1.13,2.66-2.5Z"/></g></g></svg>