<?xml version="1.0" encoding="UTF-8"?><svg id="Layer_1" xmlns="http://www.w3.org/2000/svg" viewBox="0 0 249 231"><path d="M129,19c2.91,.68,5.82,1.34,8.73,2.03,2.96,.7,3.58,2.13,1.35,4.42-.23,.24-.45,.49-.65,.76-1.78,2.39-3.09,5.77-5.47,6.92-2.75,1.32-5.12-2.3-7.87-3.34-3.25-1.23-4.92-1.26-4.79,3,.22,7.49,.19,15,0,22.49-.09,3.52,1.31,4.81,4.7,4.65,1.92-.09,4.21-.4,5.17,2,.79,1.99,2.26,4.18,1.39,6.17-.94,2.17-3.58,1.36-5.4,1.16-4.68-.5-6.05,1.37-5.91,5.95,.31,9.99,.2,20,.04,29.99-.05,3.44,1.17,4.78,4.64,4.72,8.33-.14,16.68,.28,24.99-.14,5.51-.28,7.38,3.37,8.96,7.13,1.39,3.29-1.88,2.35-3.29,2.37-9.5,.12-19,.06-28.49,.07q-6.74,0-6.75,6.92c0,9.67,.11,19.33-.05,28.99-.06,3.5,1.3,4.72,4.7,4.66,8.33-.13,16.67-.16,24.99,.02,3.3,.07,4.73-1.34,5.59-4.34,2.8-9.82,4.13-19.86,5.1-29.98,.11-1.13-.16-2.35,1.15-3.88,4.11,4.82,8.74,9.03,7.19,16.31-1.25,5.86-2.26,11.77-3.57,17.61-.65,2.9-.27,4.39,3.18,4.28,5.99-.18,12-.12,18-.03,2.61,.04,4.4-.88,5.68-3.21,5.71-10.36,8.9-21.49,10.33-33.18,.36-2.96-.81-4.3-3.91-4.21-4.66,.14-9.33,.08-14,.01-4.76-.07-4.71-.43-2.5-4.78,2.11-4.15,5.34-4.75,9.47-4.71,12.86,.12,11.76,1.52,9.57-12.07-.85-5.25-4.18-10.45-.02-15.7,.97-1.22,.98-3.71,3.07-3.38,1.51,.24,1.69,2.28,2.18,3.67,8.03,22.58,7.79,45.13-.91,67.42-15.35,39.32-54.8,64.39-96.1,61.33-44.59-3.3-80.38-35.48-88.68-79.73-.21-1.14-.54-2.26-.81-3.38,0-8.67,0-17.33,0-26,.24-.96,.55-1.92,.72-2.89,4.72-26.32,17.88-47.35,39.56-63.03,12.81-9.27,27.33-14.26,42.72-17.08h26Zm-18.12,120.78c0-5.33-.09-10.66,.03-15.99,.07-3.13-1.04-4.52-4.35-4.48-10.33,.13-20.66,.14-30.99,0-3.57-.05-4.62,1.43-4.52,4.79,.34,10.89,2.33,21.48,5.15,31.96,.72,2.69,2.16,3.87,4.94,3.84,8.5-.08,16.99-.1,25.49,0,3.34,.04,4.33-1.59,4.27-4.63-.1-5.16-.03-10.33-.03-15.49Zm-.01-50.1c0-5.49-.04-10.98,.02-16.48,.03-2.72-1.14-3.9-3.9-3.87-8.65,.07-17.31,.07-25.96,0-2.33-.02-3.79,.77-4.44,3.06-3.09,10.92-5.32,21.96-5.49,33.37-.05,3.04,1.32,4.15,4.21,4.13,10.48-.05,20.97-.06,31.45,0,2.99,.02,4.18-1.32,4.14-4.23-.08-5.32-.02-10.65-.03-15.98Zm-65.59,29.67c-3.66,0-7.34,.24-10.97-.06-4.41-.36-5.52,1.62-5.06,5.6,1.31,11.38,4.75,22.05,10.31,32.05,1.08,1.94,2.53,2.94,4.79,2.93,6.32-.04,12.64-.02,18.96-.02,2.61,0,3.54-1.06,2.87-3.77-2.62-10.67-4.45-21.46-4.63-32.49-.05-3.07-1.64-4.42-4.79-4.28-3.82,.16-7.65,.04-11.47,.03Zm-.43-9.48c3.99,0,7.98-.08,11.96,.03,3.14,.09,4.68-1.41,4.74-4.41,.21-11.19,2.07-22.12,4.97-32.9,.65-2.41-.14-3.31-2.65-3.27-6.48,.11-12.96,.06-19.44,.03-1.81,0-3.25,.51-4.19,2.13-6.16,10.64-9.91,22.06-11.01,34.33-.28,3.1,1.29,4.14,4.15,4.08,3.82-.08,7.64-.02,11.46-.02Zm75.5,75.25c0,3.66-.05,7.32,.01,10.98,.07,4.84,.9,5.43,5.27,3.38,11.91-5.58,18.21-16.13,23.81-27.24,1.13-2.24-.11-2.92-2.27-2.91-7.65,.05-15.31,.08-22.96,0-2.74-.03-3.96,1.03-3.88,3.82,.11,3.99,.03,7.98,.02,11.98Zm-9.46,.37h-.02c0-3.98-.07-7.97,.02-11.95,.06-2.87-.98-4.27-4.06-4.22-7.3,.11-14.6,.11-21.91,0-3.54-.05-3.42,1.49-2.19,3.98,2.28,4.63,4.74,9.15,7.93,13.21,3.92,4.99,8.3,9.49,14.08,12.4,5.12,2.58,6.06,2.07,6.13-3.46,.04-3.32,0-6.64,0-9.96Zm0-141.02c0-3.82-.15-7.65,.04-11.46,.21-4.11-1.43-4.51-4.74-2.96-11.72,5.5-18.14,15.67-23.65,26.65-.99,1.97-.36,3.18,2.03,3.17,3.65-.02,7.31,.02,10.96,.02q15.36,0,15.36-15.42Zm35.53,151.59c14.67-5.3,26.81-13.74,37.26-26.66-7.53,0-13.8,0-20.06,0-1.73,0-2.75,1-3.37,2.49-3.62,8.6-8.2,16.65-13.83,24.17Zm-59.87,.82c-4.14-5.28-8.31-9.08-9.56-13.97-3.5-13.69-13.03-15.19-24.61-13.57-.16,.02-.33,0-.5,0-.94,.1-2.25-.31-2.53,.91-.14,.61,.5,1.55,1.02,2.13,9.68,10.84,21.15,19.07,36.18,24.48Zm-.74-163.41c-13.13,3.46-32.04,17.31-36.38,26.35,6.33,0,12.45,0,18.58,0,1.67,0,2.88-.81,3.51-2.35,3.39-8.37,8.15-15.94,14.3-24Z"/><path d="M178,19c7.24,2.75,13.97,6.19,18.75,12.63,7.81,10.54,9.24,21.9,4.19,33.91-7.45,17.72-17.44,34.04-27.99,50.05-2.29,3.47-3.72,3.39-5.95-.02-10.03-15.34-19.52-30.96-26.98-47.77-9.06-20.43-1.17-39.8,19.71-47.8,.77-.3,1.52-.67,2.27-1.01h16Zm7.85,33.16c-.04-8.96-6.85-15.82-15.77-15.87-9.1-.05-16.04,6.99-15.94,16.19,.09,8.95,7,15.98,15.77,16.06,8.9,.08,15.98-7.2,15.95-16.39Z"/></svg>