<?xml version="1.0" encoding="UTF-8"?><svg id="Layer_1" xmlns="http://www.w3.org/2000/svg" viewBox="0 0 249 231"><g id="uftTqk.tif"><g><path d="M31.59,44.84c2.45-7.34,7.8-10.08,15.23-10.05,23.26,.09,46.51,.03,69.77,.05,1.13,0,2.65-.5,3.25,.73,.49,1.03-.91,1.85-1.24,2.84-1.95,6.01-6.23,6.94-12.08,6.81-18.12-.39-36.26-.15-54.39-.14-6.87,0-8.53,1.67-8.53,8.57,0,35.96,0,71.93,0,107.89,0,6.27,1.63,7.93,7.82,7.93,43.75,0,87.51,0,131.26,0,6.25,0,7.82-1.6,7.83-7.88,0-3.84,.09-7.69-.03-11.53-.06-2.02,.61-3.1,2.65-3.49,2.51-.48,4.98-1.16,7.46-1.81,1.38-.36,2.08,.04,2.07,1.53-.04,8.28,.26,16.57-.18,24.82-.34,6.42-6.08,11.07-12.81,11.08-19.81,.04-39.62,.02-59.42,.02q-3.94,0-3.96,3.88c0,2.27,0,4.53,0,6.8,.02,3.86,.02,3.87,4.03,3.88,9.07,0,18.13,0,27.2,.01,1.28,0,2.57,.02,3.83,.23,3.45,.57,5.84,2.77,6.36,5.72,.62,3.48-.55,6.09-3.6,8.06-.41,.27-.83,.53-1.24,.8H71.22c-.33-.21-.66-.43-.99-.64-3.25-2.06-4.58-5.06-3.78-8.51,.69-2.98,3.26-5.08,6.88-5.53,1.07-.13,2.16-.12,3.24-.12,9.35,0,18.69-.06,28.04,.03,2.44,.03,3.38-.84,3.24-3.27-.14-2.45-.02-4.92-.03-7.38-.01-3.94-.02-3.95-3.88-3.95-19.09,0-38.17-.16-57.26,.08-7.45,.09-12.47-2.75-15.09-9.73V44.84Z"/><path d="M229.32,74.41c-.45,15.01-5.15,27.54-15.15,37.86-1.6,1.64-1.56,2.69-.33,4.44,6.01,8.54,11.96,17.12,17.79,25.79,3.81,5.67,1.24,12.38-5.16,13.99-3.61,.91-7.07-.49-9.63-4.15-5.82-8.32-11.64-16.63-17.26-25.07-1.53-2.3-2.77-2.77-5.45-1.74-32.94,12.61-68.98-10.19-72.33-45.28-2.67-27.96,17.38-55.09,47.34-58.45,32.11-3.6,56.75,20.01,59.65,47.17,.22,2.05,.41,4.11,.55,5.43Zm-11.47,.81c.01-23.76-18.83-42.65-42.54-42.65-23.68,0-42.55,18.91-42.55,42.66,0,23.65,19,42.75,42.54,42.75,23.54,0,42.54-19.09,42.55-42.75Z"/><path d="M124.42,144.97c-9.98,.04-16.2-10.15-11.42-18.98,1.12-2.08,.99-3.46-.3-5.3-4.9-7.03-9.65-14.17-14.47-21.26-1.98-2.91-7.89-3.42-10.41-.92-5.58,5.57-11.12,11.17-16.75,16.69-1.23,1.21-1.75,2.33-1.45,4.13,.83,5.1-1.88,9.83-6.46,11.73-4.49,1.86-9.85,.46-12.78-3.34-3-3.89-3.05-9.23-.12-13.19,2.89-3.92,8.03-5.47,12.68-3.52,1.74,.73,2.8,.58,4.11-.76,5.37-5.5,10.81-10.93,16.31-16.29,1.33-1.29,1.48-2.39,.87-4.14-1.71-4.9,.15-9.78,4.49-12.57,4.06-2.61,9.49-2.08,13.11,1.27,3.73,3.45,4.73,8.75,2.08,13.19-1.23,2.07-.96,3.45,.31,5.27,4.68,6.71,9.25,13.49,13.77,20.3,1.14,1.72,2.23,2.94,4.54,2.08,.79-.29,1.82-.33,2.63-.1,3.47,1,6.4,1.25,9.05-2.21,1.42-1.85,2.7,.92,3.97,1.7,1.07,.66,1.33,1.67,.32,2.72-.48,.5-.88,1.08-1.41,1.51-1.52,1.24-1.59,2.46-.85,4.35,3.41,8.64-2.69,17.6-11.84,17.63Zm-65.32-28.37c-2.49-.04-4.4,1.89-4.41,4.45,0,2.53,1.97,4.58,4.38,4.53,2.28-.05,4.23-2.03,4.3-4.36,.07-2.55-1.8-4.58-4.26-4.62Zm39.76-30.21c-.01-2.42-1.83-4.19-4.32-4.21-2.69-.02-4.39,1.71-4.35,4.42,.04,2.58,1.68,4.21,4.24,4.23,2.56,.02,4.43-1.86,4.42-4.44Z"/><path d="M189.22,74.99c.07,9.12-7.82,15.68-16.78,13.82-1.89-.39-3.1,.02-4.37,1.44-4.12,4.63-8.42,9.11-12.55,13.75-1.43,1.61-2.45,1.72-4.09,.2-4.65-4.33-4.73-4.28-.44-9.04,3.23-3.59,6.43-7.2,9.8-10.65,1.56-1.59,1.97-2.99,1.26-5.21-2.28-7.09,1.45-14.6,8.22-17.13,7.19-2.68,14.91,.62,17.95,7.64,.72,1.66,.96,3.4,.99,5.18Zm-13.93-4.49c-2.5,.01-4.59,2.19-4.57,4.77,.02,2.66,2,4.52,4.75,4.44,2.61-.07,4.42-1.91,4.42-4.47,0-2.58-2.11-4.75-4.6-4.74Z"/></g></g></svg>