<svg xmlns="http://www.w3.org/2000/svg" viewBox="0 0 78.84 34.23">
  <g fill="#fff">
    <path d="M1 31.87v-5.46h3.27v.67H1.75v1.64h2.53v.67H1.75v1.81h2.53v.67H1ZM7.21 26.99c-.58 0-.97.27-.97.76s.54.66 1.14.87c.77.27 1.65.63 1.65 1.65 0 1.22-1.08 1.7-1.92 1.7s-1.4-.25-1.97-.82l.53-.5c.51.51.91.65 1.45.65s1.11-.27 1.11-.94c0-.6-.58-.81-1.22-1.03-.74-.26-1.54-.62-1.54-1.5 0-1.03.76-1.5 1.65-1.5.65 0 1.2.19 1.69.56l-.46.55C8.09 27.2 7.63 27 7.2 27ZM12.86 31.97c-1.63 0-2.93-1.1-2.93-2.82 0-1.61 1.32-2.82 2.93-2.82.54 0 1.04.16 1.47.42l-.35.58c-.33-.2-.71-.33-1.12-.33-1.23 0-2.14.9-2.14 2.15 0 1.33.89 2.15 2.14 2.15.43 0 .83-.12 1.21-.38l.4.55c-.47.32-1.02.5-1.61.5ZM19.83 30.53h.02L21 26.41h.79l-1.56 5.46h-.75l-1.09-4.16h-.02l-1.18 4.16h-.73l-1.5-5.46h.83l1.09 4.12h.02l1.15-4.12h.7l1.09 4.12ZM25.86 31.87l-.43-1.16h-2.32l-.42 1.16h-.82l2.11-5.46h.66l2.09 5.46h-.87Zm-2.5-1.83h1.83l-.91-2.49-.91 2.49ZM31.22 26.99c-.58 0-.97.27-.97.76s.54.66 1.14.87c.77.27 1.65.63 1.65 1.65 0 1.22-1.08 1.7-1.92 1.7s-1.4-.25-1.97-.82l.53-.5c.51.51.9.65 1.45.65s1.12-.27 1.12-.94c0-.6-.58-.81-1.22-1.03-.74-.26-1.54-.62-1.54-1.5 0-1.03.76-1.5 1.65-1.5.66 0 1.2.19 1.69.56l-.46.55c-.26-.24-.72-.44-1.15-.44ZM36.65 31.87l-1.12-1.75-.62.72v1.03h-.71v-5.85h.71v3.9h.02l1.58-1.95h.87l-1.36 1.59 1.5 2.31h-.87ZM38.22 27.21v-.79h.71v.79h-.71Zm0 4.66v-3.9h.71v3.9h-.71ZM40.95 31.87h-.71v-5.85h.71v5.85ZM42.97 31.87h-.71v-5.85h.71v5.85ZM46.18 28.76c-.18-.16-.51-.29-.77-.29-.36 0-.58.21-.58.51s.38.44.75.59c.51.2 1.14.48 1.14 1.16 0 .87-.68 1.22-1.41 1.22-.53 0-1.04-.21-1.34-.61l.5-.4c.26.27.54.41.85.41.38 0 .7-.2.7-.6 0-.3-.36-.44-.75-.6-.51-.2-1.11-.43-1.11-1.13 0-.79.61-1.16 1.25-1.16.44 0 .89.15 1.2.43l-.42.45ZM52.94 31.87h-.52l-1.83-4.61v4.61h-.75v-5.46h1.19l1.66 4.26 1.68-4.26h1.19v5.46h-.75v-4.61l-1.86 4.61ZM60.6 29.92c0 1.14-.85 2.04-1.99 2.04s-1.99-.91-1.99-2.04.85-2.04 1.99-2.04 1.99.9 1.99 2.04Zm-1.99-1.39c-.73 0-1.26.63-1.26 1.39s.53 1.39 1.26 1.39 1.26-.63 1.26-1.39-.53-1.39-1.26-1.39ZM62.3 27.97v.64c.29-.46.75-.73 1.27-.73s.91.19 1.13.49c.27.36.35.88.35 1.47v2.03h-.71v-1.95c0-.38-.02-.8-.2-1.08-.12-.19-.33-.31-.68-.31-.45 0-.88.31-1.16.75v2.59h-.71v-3.9h.71ZM66.32 27.21v-.79h.71v.79h-.71Zm0 4.66v-3.9h.71v3.9h-.71ZM69.09 28.6v2.06c.02.41.16.66.55.66.16 0 .31-.05.44-.11l.2.57c-.2.1-.47.17-.72.17-.55 0-.88-.24-1.04-.61-.09-.22-.12-.51-.12-.81V28.6h-.52v-.62h.52v-.94h.71v.94h1.09v.62h-1.09ZM74.69 29.92c0 1.14-.85 2.04-1.99 2.04s-1.99-.91-1.99-2.04.85-2.04 1.99-2.04 1.99.9 1.99 2.04Zm-1.99-1.39c-.73 0-1.26.63-1.26 1.39s.53 1.39 1.26 1.39 1.26-.63 1.26-1.39-.53-1.39-1.26-1.39ZM76.39 28.62c.23-.42.58-.74 1-.74.16 0 .27.02.42.05l-.13.76a.874.874 0 0 0-.37-.08c-.4 0-.69.23-.93.66v2.61h-.71v-3.9h.71v.65Z"/>
  </g>
  <path d="M1 9.51v13.75h31.28V9.51H1Zm8.97 4.21H6.4v1.82h3.57V17H6.4v2.04h3.57v1.46H4.73v-8.24h5.24v1.46Zm4.61 6.92c-1.21 0-2.16-.41-3.08-1.31l-.09-.09 1.14-1.1.09.08c.73.71 1.22.95 1.96.95.62 0 1.29-.28 1.29-1.05 0-.67-.75-.94-1.55-1.23-1.11-.4-2.29-.95-2.29-2.42 0-1.62 1.33-2.35 2.65-2.35.98 0 1.82.29 2.65.92l.1.08-1 1.22-.1-.09c-.34-.3-.96-.65-1.58-.65-.49 0-1.06.21-1.06.81 0 .52.69.76 1.29.96l.05.02c1.03.35 2.58.88 2.58 2.65s-1.58 2.6-3.05 2.6Zm13.99-.14H26.9v-5.69l-2.31 5.69h-1.17l-2.25-5.7v5.7H19.5v-8.24h2.35l.03.08 2.15 5.56 2.23-5.64h2.32v8.24Z" fill="#fff"/>
</svg>
