<?xml version="1.0" encoding="UTF-8"?><svg id="Layer_1" xmlns="http://www.w3.org/2000/svg" viewBox="0 0 249 231"><path d="M68.25,164.26c-6.84,3.33-15.64-3.47-19.36,7.39-2.48,7.24-1.08,11.88,4.99,15.87-7.06,3.51-11.09,2.76-26.14-4.81,1.99-5.26,4.02-10.62,6.4-16.92-4.99-.28-8.91-.5-14.14-.79v-39.46c2.84,0,6.27,.09,9.7-.02,6.09-.2,7.85-4.51,7.2-9.33-3.41-25.33-3.99-49.79,14.04-71.09,2.84-3.36,2.99-10,2.5-14.94-.89-9.13,2.71-16.73,10.89-17.96,3.45-.52,7.98,.05,10.72,1.97,7.2,5.05,4.84,13.3,4.17,20.14-.47,4.81-2.14,11.29-10.81,9.25,.32,3.24-.24,6.08,.9,7.8,7.37,11.17,7.05,23.67,6.35,36.09-.36,6.47,1.74,10.57,7.2,13.95,6.65,4.12,13.13,8.67,19.01,13.8,2.3,2,4.17,6.22,3.86,9.18-1.16,10.73-3.44,21.33-5.07,32.01-.96,6.29,3.55,10.69,10.8,10.98,.04-33.41,12.83-56.58,34.07-57.14-17.8,8.68-28.65,20.66-31.11,38.63-1.4,10.22,.82,19.89,6.11,28.81,10.77,18.17,32.52,26.69,52.55,20.57,20.2-6.17,33.99-26.04,32.3-47.12-1.09-13.64-7.34-24.72-18.2-33.09-10.53-8.1-22.75-10.28-35.93-8.98,.07-.91,.14-1.82,.21-2.72,5.57,0,11.3-.83,16.7,.14,33.09,5.92,50.35,41.29,34.52,71.12-2.8,5.28-2.05,7.89,2.1,11.36,7.26,6.07,14.18,12.54,21.13,18.97,5.96,5.51,6.84,11.4,2.07,15.24-5.58,4.49-10.41,2.51-14.78-2.42-7.87-8.86-15.89-17.58-22.25-24.59-11.85,2.59-21.89,6.23-32.06,6.67-17.93,.79-32.02-7.94-40.73-23.38-3.75-6.64-7.86-8.51-14.61-7.87-3.71,.36-7.48,.06-11.99,.06-.31,6.14-.59,11.63-.92,18.02h-28.32c-.29,6.18-.54,11.47-.84,17.74h-28.2c-.42,6.46-.78,12.03-1.14,17.59l-1.93-.16v-19.76h27.85c.27-3.89,.96-6.85,.57-9.66-1.03-7.51,2.38-9.42,9.24-8.85,6.14,.51,12.35,.11,19.19,.11-.23-6.03,4.57-11.98-3.55-15.91-1.14-.55-1.33-4.41-.95-6.56,1.76-10.05,4.06-20.01,5.7-30.08,.37-2.28-.28-5.98-1.84-7.1-7.4-5.31-15.27-9.96-23.9-15.42v13.01c2.04,.54,4.5,1.19,7.49,1.98-.58,12.73-1.16,25.26-1.73,37.7Zm-5.55-104.88c-9.61,14.53-11.91,30.22-9.78,47.21h18.72c1.86-33.86,3.67-48.98-13.94-62.62-17.63,10.46-22.18,42.6-18.3,67.51,7.39,2.47,10.49,0,9.95-7.93-.39-5.64-.34-11.4,.39-16.99,1.37-10.35,3.94-20.35,12.95-27.17Zm25.38,99.14c6.31,2.46,8.94,.61,9.79-4.98,1.45-9.59,3.4-19.11,4.76-28.71,.29-2.05-.29-5.25-1.7-6.35-7.56-5.88-15.5-11.26-22.75-16.42-2.81,3.92-5.09,7.1-7.73,10.79,5.59,3.5,11.91,7.09,17.75,11.35,1.85,1.35,3.51,4.59,3.34,6.81-.73,9.09-2.2,18.12-3.45,27.5Zm-64.74,3.09h41.85v-17.05c-7.37,2.04-14.15,5.39-20.91,5.36-6.92-.03-13.83-3.37-20.93-5.32v17Zm-.35-32.84c-3.56,7.28,1.04,11.18,5.24,13.25,3.07,1.52,7.77-.36,11.75-.57,2.87-.15,6.32-1.07,8.54,.15,7.38,4.04,15.01,2.12,17.93-5.61,1.38-3.65,1.21-7.2-4.23-7.21-13.2-.02-26.4,0-39.23,0Zm168.71,63.24c8.46,9.39,16.25,18.02,24.03,26.66,2.98,3.31,6.31,5.83,10.23,1.73,3.51-3.68,1.33-6.83-1.8-9.65-8.45-7.6-16.83-15.27-25.28-22.87-.54-.48-1.44-.57-2.4-.92-1.47,1.55-2.91,3.07-4.79,5.05ZM59.93,36.11l2.32-1.82c-5.07-6.97-4.87-7.25,3.66-10,3.34-1.08,6.42-2.94,9.62-4.45l-.45-3.38c-4.3-.08-9.5-1.67-12.63,.2-3.1,1.85-4.94,7.03-5.72,11.07-.48,2.49,2.03,5.57,3.2,8.38Zm17.43-10.12c-.82-.5-1.64-1.01-2.47-1.51-2.98,1.14-5.97,2.27-7.22,2.75-2.3,5.5-4.05,9.7-6.24,14.93,3.46-.61,8.9,.02,10.79-2.27,2.97-3.6,3.55-9.16,5.14-13.9Zm-21.58,99.78c.7-.19,1.4-.37,2.1-.56,.2-2.76,.7-5.54,.5-8.27-.16-2.2-1.06-4.38-1.98-6.42-.11-.25-3.2,.13-3.43,.75-.87,2.41-1.92,5.21-1.42,7.54,.54,2.5,2.74,4.65,4.22,6.95Zm46.1,42.06c-8.19-6.78-13.97-6.4-15.89,0h15.89Zm-65.64,5.42c2.47,.77,5.07,1.58,8.09,2.52,1.2-3.82,2.11-6.69,3.07-9.74-6.61-1.37-11.34-1.33-11.16,7.22Zm8.12,12.84c.83-8.14-4.58-8.08-8.66-9.19-.77-.21-2.83,1.25-2.83,1.93,0,1.19,.87,2.93,1.88,3.45,2.8,1.44,5.86,2.37,9.62,3.81Z"/><path d="M192.78,146.93c-15.37-22.92-28.2-29.07-44.71-22.34-14.36,5.85-22.69,20.5-19.96,35.1,2.89,15.49,15.68,26.67,31,27.09,17.54,.48,28.3-10.64,33.98-35.15,4.04,7.46-.58,21.12-9.94,29.37-12.17,10.73-30.32,11.76-43.51,2.48-13.75-9.67-18.8-26.79-12.51-42.39,5.91-14.65,21.99-24.12,37.04-21.81,15.3,2.35,27.44,13.52,28.62,27.65Z"/><path d="M159.69,89.65c-16.03-.01-28.94-6.22-37.41-19.99-1.53-2.48-1.62-7.43-.15-9.92,16.08-27.16,59.46-27.1,75.4,.11,1.45,2.48,1.17,7.36-.34,9.97-7.43,12.88-21.26,19.85-37.51,19.84Zm-.42-3.09c14.58,.04,25.64-5.53,34.21-16.51,3.02-3.87,2.78-6.9,.03-10.81-15.68-22.3-52.48-22.31-67.44,.42-1.54,2.34-1.53,7.46,.02,9.78,7.93,11.9,19.63,17.19,33.18,17.13Z"/><path d="M145.57,171.1c-12.44-7.61-12.47-25.59-.22-33.1-8.03,11.05-8.57,22.08,.22,33.1Z"/><path d="M159.94,45.77c10.47,.13,18.98,8.67,19.02,19.07,.04,10.69-8.98,19.42-19.77,19.15-10.35-.26-18.78-9.12-18.57-19.52,.21-10.4,8.93-18.83,19.33-18.7Zm15.91,18.93c-.12-8.36-7.93-16.05-16.23-15.95-8.39,.1-15.96,7.82-15.92,16.23,.04,8.41,7.7,15.9,16.23,15.86,8.48-.04,16.04-7.71,15.93-16.15Z"/><path d="M157.64,75.4c-2.38-3.61-6.31-7.03-6.78-10.87-.64-5.27,3.44-9,9.15-8.82,5.68,.17,9.58,4.07,8.64,9.32-.68,3.82-4.76,7.02-7.33,10.5l-3.69-.13Zm10.66-10.78c-4.14-2.69-6.57-5.49-8.88-5.39-1.94,.08-5.53,4.02-5.17,5.43,.59,2.35,3.55,5.17,5.93,5.64,1.75,.34,4.17-2.76,8.12-5.67Z"/></svg>