<svg xmlns="http://www.w3.org/2000/svg" viewBox="0 0 65.94 34.23">
  <g fill="#fff">
    <path d="M4.63 19.89c.11 0 .21-.04.29-.12s.12-.17.12-.28-.04-.21-.12-.29-.18-.12-.29-.12-.21.04-.29.12-.12.18-.12.29.04.21.12.29a.4.4 0 0 0 .29.12Z"/>
    <path d="M6.43 21.79c0 .14-.06.21-.21.21H2.58c-.18 0-.32-.06-.44-.18a.545.545 0 0 1-.18-.42v-1.62h-.38l-.34.28v1.34c0 .38.14.7.42.93.21.19.46.28.75.28h4.05c.21 0 .38-.08.53-.25.11-.13.17-.29.17-.47v-2.62h-.72v2.52Z"/>
    <path d="M3.78 19.89c.11 0 .21-.04.29-.12s.12-.17.12-.28-.04-.21-.12-.29-.18-.12-.29-.12-.21.04-.29.12c-.08.08-.12.18-.12.29s.04.21.12.28a.4.4 0 0 0 .29.12ZM10.5 23.22c-.11 0-.21.04-.29.12s-.12.17-.12.28c0 .12.04.21.12.29.08.08.18.12.29.12s.21-.04.29-.12a.4.4 0 0 0 0-.57.4.4 0 0 0-.29-.12ZM9.36 23.34c-.08.08-.12.17-.12.28 0 .12.04.21.12.29.08.08.18.12.29.12s.21-.04.29-.12c.08-.08.12-.18.12-.29s-.04-.21-.12-.28a.398.398 0 0 0-.57 0ZM12.75 18.54a.4.4 0 0 0 .29-.12c.08-.08.12-.18.12-.29s-.04-.21-.12-.29c-.08-.08-.18-.12-.29-.12s-.21.04-.29.12a.4.4 0 0 0 0 .57.4.4 0 0 0 .29.12ZM11.89 18.54c.12 0 .21-.04.29-.12.08-.08.12-.18.12-.29s-.04-.21-.12-.28c-.08-.08-.17-.12-.29-.12s-.21.04-.29.12a.4.4 0 0 0 0 .57c.08.08.17.12.29.12Z"/>
    <path d="M23.62 22.61c.22 0 .4-.09.54-.27.11-.13.16-.29.16-.46v-.89c0-.51-.14-.93-.41-1.25-.32-.37-.78-.56-1.38-.56-.38 0-.79.07-1.23.21h-.04v.6h.07c.5-.12.88-.17 1.12-.17.39 0 .68.11.88.33.18.2.27.47.27.82v.81c0 .14-.06.21-.21.21h-3.27v-2.73h-.72v2.52c0 .14-.06.21-.21.21h-1.18v-2.33h-.72v2.12c0 .14-.06.21-.21.21H15.9V20.07h-.72v1.71c0 .14-.06.21-.21.21h-1.89v-2.73h-.72v2.52c0 .06-.02.11-.07.15-.04.04-.08.05-.14.05h-1.26v-2.73h-.72v2.52c0 .06-.02.11-.07.15-.04.04-.08.05-.14.05H8.91c-.06 0-.12-.02-.15-.06a.204.204 0 0 1-.06-.15v-4.31h-.72v4.41c0 .23.09.42.26.56.12.11.27.16.43.16h1.51c.2 0 .37-.08.5-.22l.19.22h1.49c.2 0 .37-.08.5-.22l.19.22h2.13c.2 0 .37-.08.5-.22l.16.2.02.02h1.42c.2 0 .37-.08.5-.22l.16.2.02.02h1.42c.2 0 .37-.08.5-.22l.16.2.02.02h3.51ZM22.44 23.34c-.08-.08-.18-.12-.29-.12s-.21.04-.29.12-.12.17-.12.28c0 .12.04.21.12.29.08.08.18.12.29.12s.21-.04.29-.12c.08-.08.12-.18.12-.29s-.04-.21-.12-.28ZM27.62 23.75c.28-.28.43-.66.46-1.14h1.34c.2 0 .37-.08.51-.23l.22.23h1.45c.2 0 .37-.07.5-.22.13-.14.2-.31.2-.5v-4.41h-.72v4.31c0 .05-.02.1-.05.14-.04.05-.09.07-.16.07h-1.26V17.48h-.72v4.31s-.01.09-.04.13c-.04.05-.09.08-.16.08h-1.11v-1.47c0-.46-.16-.81-.47-1.05-.26-.19-.58-.29-.96-.29-.48 0-.88.14-1.18.42-.33.3-.5.73-.5 1.28 0 .47.12.87.37 1.17.3.37.73.55 1.28.55h.72c-.04.71-.48 1.06-1.32 1.06-.15 0-.3 0-.44-.03h-.07v.31l.25.3.02.02h.36c.22 0 .42-.02.62-.07.35-.08.64-.24.86-.46Zm-1.66-3.64c.17-.2.4-.29.7-.29.21 0 .38.06.5.18.13.13.19.3.19.53V22h-.73c-.28 0-.5-.09-.67-.29-.17-.19-.26-.45-.26-.76 0-.36.09-.64.26-.84ZM33.86 22.53l.02-.02v-5.03h-.72v5.3h.37l.33-.25zM37.75 21.93h-.11c-.28 0-.5-.09-.66-.25-.16-.17-.24-.41-.24-.72 0-.71.3-1.06.93-1.06.15 0 .32.02.52.07l.07.02v-.61h-.05c-.75-.17-1.34-.06-1.74.31-.31.29-.47.71-.47 1.24 0 .45.11.84.32 1.13.07.1.16.19.26.27-.28.14-.5.26-.65.37l-.05.03.33.51.05-.03c.34-.23.74-.41 1.19-.54.43-.13.85-.19 1.24-.19h.03l.28-.34v-.29h-.13c-.28 0-.67.03-1.14.1ZM40.24 22.53l.02-.02v-5.03h-.72v5.3h.38l.32-.25zM43.79 22.39a.71.71 0 0 0 .19-.5v-1.07c0-.46-.15-.84-.45-1.14-.33-.32-.77-.49-1.31-.49-.19 0-.38.01-.55.04h-.05v.6l.07-.02c.09-.02.19-.03.32-.03.43 0 .76.11.96.32.19.21.29.47.29.79v.89c0 .14-.06.21-.2.21h-2.15v.62h2.39c.2 0 .36-.07.5-.22ZM45.77 16.88v-.22h-.5c-.11 0-.19-.04-.26-.12a.323.323 0 0 1-.08-.21c0-.22.09-.31.31-.31.07 0 .15.01.23.03l.08.02v-.41h-.04a.922.922 0 0 0-.36-.07.64.64 0 0 0-.47.18c-.12.12-.18.28-.18.48 0 .15.03.29.1.4h-.26v.41h1.28l.16-.19ZM45.15 22.78l.32-.25.02-.02v-5.03h-.72v5.3h.38zM47.37 24.27h.31c.53 0 .97-.12 1.3-.37.41-.29.62-.73.65-1.3h2.13c.2 0 .37-.08.51-.23l.22.23h1.38c.2 0 .37-.08.51-.23l.21.23h1.39c.19 0 .36-.07.49-.21.14-.14.2-.31.2-.51v-2.62h-.72v2.52c0 .14-.06.21-.21.21h-1.18v-2.33h-.72v2.12c0 .14-.06.21-.21.21h-1.18V20.07h-.72v1.71c0 .14-.06.21-.21.21h-1.89v-2.72h-.72v3.2c0 .81-.43 1.2-1.33 1.2-.15 0-.3 0-.44-.03h-.07v.31l.26.33h.03ZM54.21 17.83c.11 0 .21-.04.28-.12.08-.08.11-.17.11-.27s-.04-.2-.11-.27-.17-.12-.28-.12-.2.04-.28.12c-.08.08-.12.17-.12.27s.04.2.12.27c.08.08.17.12.28.12ZM53.78 18.54c.12 0 .21-.04.29-.12.08-.08.12-.18.12-.29s-.04-.21-.12-.29c-.08-.08-.18-.12-.29-.12s-.21.04-.29.12a.4.4 0 0 0 0 .57c.08.08.17.12.29.12ZM54.23 18.13c0 .11.04.21.12.29.08.08.17.12.29.12s.21-.04.29-.12c.08-.08.12-.18.12-.29s-.04-.21-.12-.29c-.08-.08-.18-.12-.29-.12s-.21.04-.29.12c-.08.08-.12.17-.12.28ZM59.08 22.61h.72c-.04.71-.48 1.06-1.32 1.06-.15 0-.3 0-.44-.03h-.07v.31l.25.3.02.02h.36c.22 0 .42-.02.62-.07.35-.08.64-.24.86-.46.28-.28.43-.66.46-1.14h1.33c.21 0 .38-.07.51-.21.26.28.59.42.99.42.45 0 .83-.17 1.12-.51.31-.36.47-.81.47-1.33 0-.56-.16-1-.47-1.32-.31-.31-.71-.47-1.17-.47-.38 0-.69.08-.92.23-.36.23-.54.6-.54 1.1v1.27a.204.204 0 0 1-.21.21h-1.11v-1.47c0-.46-.16-.81-.47-1.05-.26-.19-.58-.29-.96-.29-.48 0-.88.14-1.18.42-.33.3-.5.73-.5 1.28 0 .47.12.87.37 1.17.3.37.73.55 1.28.55Zm-.68-2.51c.17-.2.4-.29.7-.29.21 0 .38.06.5.18.13.13.19.3.19.53v1.47h-.73c-.28 0-.5-.09-.67-.29-.17-.19-.26-.45-.26-.76 0-.36.09-.64.26-.84Zm4.87-.29c.27 0 .48.09.65.27.2.23.3.54.3.93 0 .35-.08.64-.25.86-.17.22-.38.32-.64.32s-.53-.11-.75-.34V20.5c0-.22.07-.41.21-.54.13-.12.29-.17.49-.17ZM59.84 18.52v-.2h-.51c-.11 0-.19-.04-.26-.11a.323.323 0 0 1-.08-.21c0-.21.09-.3.31-.3.08 0 .15.01.23.03l.08.02v-.41h-.04a.784.784 0 0 0-.36-.08.61.61 0 0 0-.47.19c-.12.12-.18.29-.18.48 0 .15.03.28.1.4h-.26v.41h1.28l.16-.21ZM21.86 27.15a.4.4 0 0 0 0 .57c.08.08.17.12.29.12s.21-.04.29-.12c.08-.08.12-.18.12-.29s-.04-.21-.12-.29a.398.398 0 0 0-.57 0ZM23.41 28.38h-.38l-.29.23c-.25-.11-.5-.16-.75-.16-.47 0-.86.16-1.17.49-.34.35-.5.8-.5 1.34 0 .6.19 1.06.55 1.36.27.22.63.33 1.07.33.5 0 .88-.13 1.13-.39.23-.23.34-.54.34-.94v-2.26Zm-1.47 2.97c-.29 0-.5-.09-.66-.27-.16-.18-.24-.45-.24-.79 0-.31.09-.58.26-.8.2-.28.47-.41.83-.41.19 0 .38.04.57.13v1.43c0 .22-.06.39-.18.52s-.31.2-.58.2Z"/>
    <path d="M22.71 27.15a.4.4 0 0 0 0 .57c.08.08.17.12.29.12s.21-.04.29-.12c.08-.08.12-.18.12-.29s-.04-.21-.12-.29c-.08-.08-.18-.12-.29-.12s-.21.04-.29.12ZM25.1 31.77c0 .81-.43 1.2-1.33 1.2-.15 0-.3 0-.44-.03h-.07v.31l.25.3.02.02h.36c.18 0 .35-.01.51-.04.4-.08.73-.24.96-.48.31-.31.46-.74.46-1.27v-3.22h-.72v3.2ZM29.44 32.52a.4.4 0 0 0-.29.12c-.08.08-.12.17-.12.28 0 .12.04.21.12.29.08.08.18.12.29.12s.21-.04.29-.12c.08-.08.12-.18.12-.29s-.04-.21-.12-.28a.4.4 0 0 0-.29-.12ZM33.32 27.84a.4.4 0 0 0 .29-.12c.08-.08.12-.18.12-.29s-.04-.21-.12-.29c-.08-.08-.18-.12-.29-.12s-.21.04-.29.12a.4.4 0 0 0 0 .57.4.4 0 0 0 .29.12ZM32.05 27.43c0 .11.04.21.12.29.08.08.17.12.29.12s.21-.04.29-.12c.08-.08.12-.18.12-.29s-.04-.21-.12-.28c-.08-.08-.17-.12-.29-.12s-.21.04-.29.12c-.08.08-.12.17-.12.28Z"/>
    <path d="M35.12 31.09c0 .05-.02.1-.05.14-.04.05-.09.07-.16.07h-1.26v-2.73h-.72v2.52c0 .06-.02.11-.07.15-.04.04-.08.05-.14.05h-1.13v-1c0-.51-.14-.93-.41-1.25-.32-.37-.78-.56-1.38-.56-.38 0-.79.07-1.23.21h-.04v.6h.07c.5-.12.88-.17 1.12-.17.39 0 .68.11.88.33.18.2.27.47.27.82v.81c0 .14-.06.21-.21.21H27.6c-.06 0-.12-.02-.15-.06a.204.204 0 0 1-.06-.15v-4.31h-.72v4.41c0 .23.09.42.26.56.12.11.27.16.43.16h3.53c.2 0 .37-.08.5-.22l.16.2.02.02h1.36c.2 0 .37-.08.5-.22l.19.22h1.49c.2 0 .37-.07.5-.22.13-.14.2-.31.2-.5v-4.41h-.72v4.31ZM36.69 32.08h.38l.32-.25.02-.02v-5.03h-.72v5.3zM45.14 32.52c-.11 0-.21.04-.29.12s-.12.17-.12.28c0 .12.04.21.12.29s.18.12.29.12.21-.04.29-.12.12-.18.12-.29-.04-.21-.12-.28-.18-.12-.29-.12ZM45.99 32.52c-.11 0-.21.04-.29.12s-.12.17-.12.28c0 .12.04.21.12.29s.18.12.29.12.21-.04.29-.12a.4.4 0 0 0 0-.57.4.4 0 0 0-.29-.12ZM60.61 27.03c-.12 0-.21.04-.29.12a.4.4 0 0 0 0 .57c.08.08.18.12.29.12s.21-.04.29-.12c.08-.08.12-.18.12-.29s-.04-.21-.12-.29a.4.4 0 0 0-.29-.12ZM59.75 27.03a.4.4 0 0 0-.29.12.4.4 0 0 0 0 .57c.08.08.17.12.29.12s.21-.04.29-.12c.08-.08.12-.18.12-.29s-.04-.21-.12-.28a.385.385 0 0 0-.29-.12Z"/>
    <path d="M60.23 31.09c0 .06-.02.1-.05.14-.04.04-.09.07-.15.07h-1.25v-2.73h-.72v2.52c0 .14-.06.21-.21.21h-1.18v-2.33h-.72v2.12c0 .14-.06.21-.21.21h-1.18V29.38h-.72v1.71c0 .14-.06.21-.21.21h-1.76v-.84c0-1.43-.64-2.15-1.91-2.15-.55 0-1.08.12-1.59.35l-.04.02v.39c-.2.09-.36.22-.48.39-.16.23-.24.53-.24.9 0 .21.03.4.09.59.05.14.11.26.19.36h-1.5v-2.73h-.72v2.52c0 .06-.02.11-.07.15-.04.04-.08.05-.14.05h-1.25v-4.52h-.72v5c0 .46-.13.79-.4.96-.23.15-.64.23-1.21.23s-1.03-.09-1.26-.26c-.23-.17-.35-.48-.35-.93v-1.75h-.38l-.32.26-.02.02v1.49c0 .58.19 1.04.56 1.36.34.29.81.44 1.38.44h.79c.58 0 1.05-.15 1.4-.46.33-.29.51-.7.53-1.22h1.48c.2 0 .37-.08.5-.22l.19.22h1.95c.28 0 .46-.02.57-.05.11.03.29.05.56.05h1.7a.68.68 0 0 0 .5-.22l.16.2.02.02h2c.2 0 .37-.08.5-.22l.16.2.02.02h1.42c.2 0 .37-.08.5-.22l.16.2.02.02h1.42c.2 0 .37-.08.5-.22l.16.2.02.02h1.48c.21 0 .38-.08.52-.24.12-.14.18-.3.18-.49v-2.62h-.72v2.52Zm-10.66-.75c0 .26-.07.48-.19.65a.6.6 0 0 1-.47.26c-.19 0-.34-.1-.47-.26-.13-.17-.19-.39-.19-.65s.06-.48.18-.63c.12-.14.27-.22.48-.22s.37.07.49.22.18.36.18.62Zm.57.54c.05-.17.08-.35.08-.53 0-.35-.08-.65-.24-.88-.16-.25-.4-.41-.69-.48.17-.03.36-.05.54-.05.47 0 .82.12 1.03.37.2.24.3.66.3 1.24v.53a.201.201 0 0 1-.2.21h-1.02c.09-.12.16-.26.21-.42ZM63.45 28.49c-.52 0-.94.16-1.25.48-.29.3-.43.71-.43 1.22s.14.91.41 1.23c.31.37.73.55 1.25.55.25 0 .48-.04.71-.11-.03.74-.47 1.1-1.32 1.1-.15 0-.3 0-.44-.03h-.07v.31l.25.3.02.02h.36c.2 0 .4-.02.58-.06.28-.06.53-.17.74-.33.4-.31.61-.78.62-1.4V29.8c0-.45-.15-.79-.45-1.03-.25-.2-.58-.3-.97-.3Zm-.7.92c.17-.2.4-.29.7-.29.17 0 .3.04.41.11.19.14.29.33.29.6v1.38c-.2.07-.42.11-.67.11-.29 0-.52-.09-.69-.27-.19-.19-.29-.46-.29-.8 0-.36.09-.64.26-.84Z"/>
  </g>
  <path fill="#fff" d="M34.31 0h30.62v13.62H34.31z"/>
  <g fill="#31335d">
    <path d="M37.58 10.8V2.81H39v6.78h3.36v1.21h-4.77Z"/>
    <path d="M42.47 10.93h-5.02V2.69h1.67v6.78h3.36v1.46Zm-4.77-.25h4.52v-.96h-3.36V2.94h-1.17v7.74ZM46.47 2.81c1.34 0 2.92.65 2.92 2.44S47.81 7.7 46.47 7.7h-1.06v3.09h-1.42V2.81h2.48ZM45.41 6.5h.8c.97 0 1.69-.32 1.69-1.21 0-.79-.59-1.27-1.46-1.27h-1.03V6.5Z"/>
    <path d="M45.53 10.93h-1.67V2.69h2.6c1.52 0 3.05.79 3.05 2.57 0 1.9-1.64 2.58-3.05 2.58h-.94v3.09Zm-1.42-.25h1.17V7.59h1.19c1.29 0 2.8-.61 2.8-2.33s-1.51-2.32-2.8-2.32h-2.35v7.74Zm2.09-4.05h-.92V3.9h1.15c.96 0 1.59.55 1.59 1.39 0 .61-.31 1.33-1.81 1.33Zm-.67-.25h.67c1.04 0 1.56-.37 1.56-1.08s-.51-1.14-1.34-1.14h-.9v2.23Z"/>
    <g>
      <path d="M53.83 4.02v6.78h-1.42V4.02h-1.94V2.81h5.3v1.21h-1.94Z"/>
      <path d="M53.95 10.93h-1.67V4.15h-1.94V2.69h5.55v1.46h-1.94v6.78Zm-1.42-.25h1.17V3.9h1.94v-.96h-5.05v.96h1.94v6.78Z"/>
    </g>
    <g>
      <path d="M58.94 7.49v3.31h-1.42V2.81h4.27v1.21h-2.85v2.26h2.85v1.21h-2.85Z"/>
      <path d="M59.06 10.93h-1.67V2.69h4.52v1.46h-2.85v2.01h2.85v1.46h-2.85v3.31Zm-1.42-.25h1.17V7.37h2.85v-.96h-2.85V3.9h2.85v-.96h-4.02v7.74Z"/>
    </g>
  </g>
</svg>
