<svg xmlns="http://www.w3.org/2000/svg" viewBox="0 0 79.68 34.23">
  <path fill="#31335d" d="M1 0h30.62v13.62H1z"/>
  <g fill="#fff">
    <path d="M4.26 10.8V2.81h1.42v6.78h3.36v1.21H4.26Z"/>
    <path d="M9.16 10.93H4.14V2.69h1.67v6.78h3.36v1.46Zm-4.77-.25h4.52v-.96H5.55V2.94H4.38v7.74ZM13.15 2.81c1.34 0 2.92.65 2.92 2.44S14.49 7.7 13.15 7.7h-1.06v3.09h-1.42V2.81h2.48ZM12.09 6.5h.8c.97 0 1.69-.32 1.69-1.21 0-.79-.59-1.27-1.46-1.27h-1.03V6.5Z"/>
    <path d="M12.21 10.93h-1.67V2.69h2.6c1.52 0 3.05.79 3.05 2.57 0 1.9-1.64 2.58-3.05 2.58h-.94v3.09Zm-1.42-.25h1.17V7.59h1.19c1.29 0 2.8-.61 2.8-2.33s-1.51-2.32-2.8-2.32H10.8v7.74Zm2.09-4.05h-.92V3.9h1.15c.96 0 1.59.55 1.59 1.39 0 .61-.31 1.33-1.81 1.33Zm-.67-.25h.67c1.04 0 1.56-.37 1.56-1.08s-.51-1.14-1.34-1.14h-.9v2.23Z"/>
    <g>
      <path d="M20.51 4.02v6.78h-1.42V4.02h-1.94V2.81h5.3v1.21h-1.94Z"/>
      <path d="M20.64 10.93h-1.67V4.15h-1.94V2.69h5.55v1.46h-1.94v6.78Zm-1.42-.25h1.17V3.9h1.94v-.96h-5.05v.96h1.94v6.78Z"/>
    </g>
    <g>
      <path d="M25.62 7.49v3.31H24.2V2.81h4.27v1.21h-2.85v2.26h2.85v1.21h-2.85Z"/>
      <path d="M25.75 10.93h-1.67V2.69h4.52v1.46h-2.85v2.01h2.85v1.46h-2.85v3.31Zm-1.42-.25h1.17V7.37h2.85v-.96H25.5V3.9h2.85v-.96h-4.02v7.74Z"/>
    </g>
  </g>
  <g fill="#31335d">
    <path d="M1.32 22.55v-5.46h.75v4.79h2.37v.67H1.32ZM8.79 20.6c0 1.14-.85 2.04-1.99 2.04s-1.99-.91-1.99-2.04.85-2.04 1.99-2.04 1.99.9 1.99 2.04ZM6.8 19.21c-.73 0-1.26.63-1.26 1.39s.53 1.39 1.26 1.39 1.26-.63 1.26-1.39-.53-1.39-1.26-1.39ZM13.34 22.33c0 .41-.06.75-.2 1.02-.35.68-1.03.93-1.76.93-.6 0-1.25-.17-1.72-.51l.27-.61c.36.26.94.47 1.43.47.67 0 1.27-.32 1.27-1.15v-.54c-.28.41-.78.62-1.25.62-1.11 0-1.94-.87-1.94-2 0-1.02.77-2 1.96-2 .45 0 .91.2 1.22.52v-.43h.71v3.68Zm-.71-2.53c-.27-.38-.73-.59-1.13-.59-.9 0-1.33.69-1.33 1.36 0 .7.51 1.33 1.31 1.33.42 0 .95-.26 1.15-.72v-1.37ZM14.61 17.89v-.79h.71v.79h-.71Zm0 4.66v-3.9h.71v3.9h-.71ZM18.53 19.44c-.18-.16-.51-.29-.77-.29-.36 0-.58.21-.58.51s.37.44.75.59c.51.2 1.14.48 1.14 1.16 0 .87-.68 1.22-1.41 1.22-.53 0-1.04-.21-1.34-.61l.5-.4c.26.27.54.41.85.41.38 0 .7-.2.7-.6 0-.3-.36-.44-.75-.6-.51-.2-1.12-.43-1.12-1.13 0-.79.61-1.16 1.26-1.16.44 0 .89.15 1.2.43l-.42.45ZM20.9 19.27v2.06c.02.41.16.66.55.66.16 0 .31-.05.44-.11l.2.57c-.2.1-.47.17-.73.17-.55 0-.88-.24-1.04-.61-.09-.22-.12-.51-.12-.81v-1.93h-.52v-.62h.52v-.94h.71v.94H22v.62h-1.09ZM22.85 17.89v-.79h.71v.79h-.71Zm0 4.66v-3.9h.71v3.9h-.71ZM27.73 22.26c-.29.23-.72.38-1.19.38-1.12 0-2-.81-2-2.04 0-1.14.9-2.04 2.04-2.04.41 0 .79.12 1.1.33l-.33.58c-.22-.16-.51-.27-.79-.27-.7 0-1.28.62-1.28 1.39 0 .84.61 1.39 1.29 1.39.26 0 .62-.12.83-.27l.35.55ZM30.48 19.44c-.18-.16-.51-.29-.77-.29-.36 0-.58.21-.58.51s.37.44.75.59c.51.2 1.14.48 1.14 1.16 0 .87-.68 1.22-1.41 1.22-.53 0-1.04-.21-1.34-.61l.5-.4c.26.27.54.41.85.41.38 0 .7-.2.7-.6 0-.3-.36-.44-.75-.6-.51-.2-1.12-.43-1.12-1.13 0-.79.61-1.16 1.26-1.16.44 0 .89.15 1.2.43l-.42.45ZM35.77 20.37h-.88v2.18h-.75v-5.46h1.63c.88 0 1.93.44 1.93 1.63s-1.04 1.65-1.93 1.65Zm-.04-2.6h-.84v1.93h.69c.76 0 1.33-.25 1.33-.95 0-.62-.48-.98-1.17-.98ZM38.77 20.78c.05.67.51 1.26 1.25 1.26.51 0 .93-.19 1.16-.63l.51.33c-.39.62-.92.91-1.71.91-1.24 0-1.93-.91-1.93-2.04s.85-2.04 1.93-2.04 1.78.77 1.78 1.82c0 .13-.02.3-.03.41h-2.97Zm.05-.57h2.21c-.03-.55-.45-1.04-1.04-1.04-.63 0-1.04.46-1.18 1.04ZM43.47 19.3c.23-.42.58-.74 1.01-.74.16 0 .27.02.42.05l-.13.76a.874.874 0 0 0-.37-.08c-.4 0-.69.23-.93.66v2.61h-.71v-3.9h.71v.65ZM47.54 17.37c-.15-.07-.3-.11-.48-.11-.21 0-.35.05-.45.12-.18.15-.2.42-.2.77v.49h1.05v.62h-1.05v3.28h-.71v-3.28h-.44v-.62h.44v-.56c0-.41.07-.76.24-1.02.19-.29.51-.46 1.04-.46.26 0 .54.08.77.17l-.2.59ZM51.83 20.6c0 1.14-.85 2.04-1.99 2.04s-1.99-.91-1.99-2.04.85-2.04 1.99-2.04 1.99.9 1.99 2.04Zm-1.99-1.39c-.73 0-1.26.63-1.26 1.39s.53 1.39 1.26 1.39 1.26-.63 1.26-1.39-.53-1.39-1.26-1.39ZM53.52 19.3c.23-.42.58-.74 1.01-.74.16 0 .27.02.42.05l-.13.76a.874.874 0 0 0-.37-.08c-.4 0-.69.23-.93.66v2.61h-.71v-3.9h.71v.65ZM60.79 22.55V20.6c0-.38 0-.8-.19-1.08-.12-.19-.33-.31-.67-.31-.38 0-.79.27-1.08.65.03.2.05.43.05.66v2.03h-.71V20.6c0-.38 0-.83-.21-1.12-.12-.16-.3-.27-.6-.27-.4 0-.82.36-1.08.72v2.62h-.71v-3.9h.71v.59c.29-.41.77-.69 1.22-.69s.84.16 1.08.54c.04.05.07.12.09.18.34-.48.83-.72 1.36-.72s.86.17 1.08.46c.27.36.36.9.36 1.5v2.03h-.71ZM65.09 22.55v-.41c-.32.36-.67.51-1.17.51-.72 0-1.38-.35-1.38-1.19 0-.99.88-1.29 1.74-1.29.2 0 .45.02.78.08v-.14c0-.59-.28-.94-.92-.94-.45 0-.93.17-1.24.34l-.21-.59c.41-.2 1-.37 1.54-.37 1.13 0 1.54.62 1.54 1.62v2.37h-.68Zm-.03-1.77c-.29-.06-.51-.08-.7-.08-.48 0-1.12.12-1.12.7 0 .48.36.65.77.65s.74-.2 1.05-.47v-.8ZM67.74 18.65v.64c.29-.46.75-.73 1.27-.73s.9.19 1.13.49c.26.36.35.88.35 1.47v2.03h-.71V20.6c0-.38-.02-.8-.2-1.08-.12-.19-.34-.31-.68-.31-.45 0-.88.31-1.16.75v2.59h-.71v-3.9h.71ZM74.62 22.26c-.29.23-.73.38-1.19.38-1.12 0-2-.81-2-2.04 0-1.14.9-2.04 2.04-2.04.41 0 .79.12 1.1.33l-.34.58c-.22-.16-.51-.27-.79-.27-.7 0-1.28.62-1.28 1.39 0 .84.61 1.39 1.29 1.39.26 0 .62-.12.83-.27l.35.55ZM75.85 20.78c.05.67.51 1.26 1.25 1.26.51 0 .93-.19 1.16-.63l.51.33c-.39.62-.92.91-1.71.91-1.24 0-1.93-.91-1.93-2.04s.85-2.04 1.93-2.04 1.78.77 1.78 1.82c0 .13-.02.3-.03.41h-2.97Zm.05-.57h2.21c-.03-.55-.45-1.04-1.04-1.04-.63 0-1.04.46-1.18 1.04ZM3.55 31.85v-.41c-.32.36-.67.51-1.17.51-.72 0-1.38-.35-1.38-1.19 0-.99.88-1.29 1.74-1.29.2 0 .44.02.78.08v-.14c0-.59-.28-.94-.92-.94-.45 0-.93.17-1.24.34l-.21-.59c.41-.2 1-.37 1.54-.37 1.13 0 1.54.62 1.54 1.62v2.37h-.68Zm-.03-1.77c-.29-.06-.51-.08-.7-.08-.48 0-1.12.12-1.12.7 0 .48.36.65.77.65s.74-.2 1.05-.47v-.8ZM6.21 27.95v.64c.29-.46.75-.73 1.27-.73s.91.19 1.13.49c.27.36.35.88.35 1.47v2.03h-.71V29.9c0-.38-.02-.8-.2-1.08-.12-.19-.33-.31-.68-.31-.45 0-.88.31-1.16.75v2.59H5.5v-3.9h.71ZM9.9 29.9c0-1.04.77-2.04 1.96-2.04.45 0 .91.2 1.22.52V26h.71v5.85h-.71v-.52c-.28.41-.77.62-1.24.62-1.12 0-1.95-.91-1.95-2.04Zm3.19.65V29.1c-.27-.38-.73-.59-1.13-.59-.9 0-1.33.73-1.33 1.4 0 .72.51 1.37 1.32 1.37.42 0 .94-.26 1.15-.73ZM18.68 27.06v4.79h-.75v-4.79h-1.37v-.67h3.49v.67h-1.37ZM21.19 28.6c.23-.42.58-.74 1-.74.16 0 .27.02.42.05l-.13.76a.874.874 0 0 0-.37-.08c-.4 0-.69.23-.93.66v2.61h-.71v-3.9h.71v.65ZM25.58 31.85v-.41c-.32.36-.67.51-1.17.51-.72 0-1.38-.35-1.38-1.19 0-.99.88-1.29 1.74-1.29.2 0 .44.02.78.08v-.14c0-.59-.28-.94-.92-.94-.45 0-.93.17-1.24.34l-.21-.59c.41-.2 1-.37 1.54-.37 1.13 0 1.54.62 1.54 1.62v2.37h-.68Zm-.03-1.77c-.29-.06-.51-.08-.7-.08-.48 0-1.12.12-1.12.7 0 .48.36.65.77.65s.74-.2 1.05-.47v-.8ZM27.2 29.9c0-1.04.77-2.04 1.96-2.04.45 0 .91.2 1.22.52V26h.71v5.85h-.71v-.52c-.28.41-.77.62-1.24.62-1.12 0-1.95-.91-1.95-2.04Zm3.19.65V29.1c-.27-.38-.73-.59-1.13-.59-.9 0-1.33.73-1.33 1.4 0 .72.51 1.37 1.32 1.37.42 0 .94-.26 1.15-.73ZM32.79 30.08c.05.67.51 1.26 1.26 1.26.51 0 .93-.19 1.16-.63l.51.33c-.39.62-.92.91-1.71.91-1.24 0-1.93-.91-1.93-2.04s.85-2.04 1.93-2.04 1.78.77 1.78 1.82c0 .13-.02.3-.03.41h-2.97Zm.05-.57h2.21c-.03-.55-.45-1.04-1.04-1.04-.63 0-1.04.46-1.18 1.04ZM39.57 29.52v2.33h-.75v-5.46h2.77v.67h-2.02v1.79h2.02v.67h-2.02ZM44.91 31.85v-.41c-.32.36-.67.51-1.17.51-.72 0-1.38-.35-1.38-1.19 0-.99.88-1.29 1.74-1.29.2 0 .45.02.78.08v-.14c0-.59-.28-.94-.92-.94-.45 0-.93.17-1.24.34l-.21-.59c.41-.2 1-.37 1.54-.37 1.13 0 1.54.62 1.54 1.62v2.37h-.68Zm-.03-1.77c-.29-.06-.51-.08-.7-.08-.48 0-1.12.12-1.12.7 0 .48.36.65.77.65s.74-.2 1.05-.47v-.8ZM49.72 31.56c-.29.23-.72.38-1.19.38-1.12 0-2-.81-2-2.04 0-1.14.9-2.04 2.04-2.04.41 0 .79.12 1.1.33l-.33.58c-.22-.16-.51-.27-.79-.27-.7 0-1.28.62-1.28 1.39 0 .84.61 1.39 1.29 1.39.26 0 .62-.12.83-.27l.35.55ZM50.56 27.19v-.79h.71v.79h-.71Zm0 4.66v-3.9h.71v3.9h-.71ZM53.29 31.85h-.71V26h.71v5.85ZM54.61 27.19v-.79h.71v.79h-.71Zm0 4.66v-3.9h.71v3.9h-.71ZM57.38 28.57v2.06c.02.41.16.66.55.66.16 0 .31-.05.44-.11l.2.57c-.2.1-.47.17-.73.17-.55 0-.88-.24-1.04-.61-.09-.22-.12-.51-.12-.81v-1.93h-.52v-.62h.52v-.94h.71v.94h1.09v.62h-1.09ZM61.64 31.85v-.41c-.32.36-.67.51-1.17.51-.72 0-1.38-.35-1.38-1.19 0-.99.88-1.29 1.74-1.29.2 0 .45.02.78.08v-.14c0-.59-.28-.94-.92-.94-.45 0-.93.17-1.24.34l-.21-.59c.41-.2 1-.37 1.54-.37 1.13 0 1.54.62 1.54 1.62v2.37h-.68Zm-.03-1.77c-.29-.06-.51-.08-.7-.08-.48 0-1.12.12-1.12.7 0 .48.36.65.77.65s.74-.2 1.05-.47v-.8ZM64.34 28.57v2.06c.02.41.16.66.55.66.16 0 .31-.05.44-.11l.2.57c-.2.1-.47.17-.73.17-.55 0-.88-.24-1.04-.61-.09-.22-.12-.51-.12-.81v-1.93h-.52v-.62h.52v-.94h.71v.94h1.09v.62h-1.09ZM66.29 27.19v-.79H67v.79h-.71Zm0 4.66v-3.9H67v3.9h-.71ZM71.96 29.9c0 1.14-.85 2.04-1.99 2.04s-1.99-.91-1.99-2.04.85-2.04 1.99-2.04 1.99.9 1.99 2.04Zm-1.99-1.39c-.73 0-1.26.63-1.26 1.39s.53 1.39 1.26 1.39 1.26-.63 1.26-1.39-.53-1.39-1.26-1.39ZM73.66 27.95v.64c.29-.46.75-.73 1.27-.73s.91.19 1.13.49c.27.36.35.88.35 1.47v2.03h-.71V29.9c0-.38-.02-.8-.2-1.08-.12-.19-.33-.31-.68-.31-.45 0-.88.31-1.16.75v2.59h-.71v-3.9h.71Z"/>
  </g>
</svg>
