<?xml version="1.0" encoding="UTF-8"?><svg id="Layer_1" xmlns="http://www.w3.org/2000/svg" viewBox="0 0 249 231"><defs><style>.cls-1{fill:#060606;}.cls-2{fill:#fdfdfd;}.cls-3{fill:#101010;}.cls-4{fill:none;stroke:#000;stroke-miterlimit:10;}</style></defs><g id="cWCSMb"><g><path class="cls-2" d="M240.47,221.25c.35-.79,.56-1.02,.52-1.2-8.74-38.03-17.46-76.07-26.29-114.08-1.05-4.5-3.72-7.46-8.59-8.85-10.59-3-21-6.62-31.51-9.9-1.5-.47-3.16-.5-4.75-.56-2.12-.09-2.8,1.76-2.98,3.19-.28,2.23,1.83,1.23,2.94,1.58,9.85,3.05,19.61,6.46,29.59,9.04,6.02,1.56,8.68,5.06,9.96,10.77,4.77,21.29,9.77,42.52,14.68,63.77,2.75,11.92,5.49,23.85,8.52,36.99-19.4-9.61-37.54-18.43-55.49-27.6-4.33-2.21-7.87-2.41-12.21-.14-10.36,5.42-21.07,10.2-31.42,15.63-4.69,2.46-8.67,2.69-13.45,.13-8.69-4.66-18.06-8.11-26.46-13.2-8.05-4.88-14.62-4.43-22.79,.09-15.97,8.82-32.63,16.39-49.1,24.52-.33-1-.64-1.45-.56-1.8,7.75-33.56,15.51-67.12,23.32-100.66,.95-4.06,3.26-6.75,7.61-7.97,10.59-2.98,21.07-6.37,31.61-9.55,1-.3,2.69,.15,2.36-1.5-.24-1.17-.57-2.88-2.21-3.19-2.07-.39-4.04,.07-6.07,.73-9.15,3.01-18.23,6.43-27.59,8.58-8.02,1.84-11.21,6.58-12.83,14.05-4.43,20.41-9.29,40.73-14,61.09-3.81,16.49-7.65,32.97-11.65,50.2,2.3-.96,3.78-1.47,5.17-2.16,19.12-9.48,38.29-18.86,57.29-28.59,4.8-2.46,8.8-2.49,13.55-.03,11.4,5.91,23.1,11.24,34.53,17.12,3.24,1.66,5.7,1.57,8.88-.06,10.01-5.12,20.5-9.36,30.22-14.94,7.55-4.33,13.92-5.15,21.53-.14,6.47,4.25,13.9,7.02,20.9,10.47,12.26,6.05,24.52,12.11,36.79,18.18Z"/><path class="cls-1" d="M126.71,7c30.2-.14,52.26,28.15,44.64,57.29-3.23,12.34-9.58,23.3-15.5,34.44-7.87,14.81-16.12,29.4-25.85,43.1-1.97,2.78-3.7,5.53-6.8,.76-15.18-23.29-30.65-46.49-39.94-72.9-11.46-32.57,9.63-62.54,43.45-62.69Zm-.96,79.38c18.82-.17,34.85-15.84,34.75-33.96-.1-18.5-15.82-34.49-33.6-34.18-19.35,.33-34.57,14.92-34.54,33.09,.04,19.33,15.17,35.22,33.39,35.05Z"/><path class="cls-3" d="M240.47,221.25c-12.27-6.07-24.53-12.13-36.79-18.18-6.99-3.45-14.43-6.23-20.9-10.47-7.62-5-13.98-4.19-21.53,.14-9.73,5.58-20.22,9.82-30.22,14.94-3.19,1.63-5.65,1.72-8.88,.06-11.42-5.87-23.12-11.21-34.53-17.12-4.76-2.46-8.76-2.43-13.55,.03-18.99,9.73-38.17,19.11-57.29,28.59-1.39,.69-2.87,1.2-5.17,2.16,4-17.23,7.84-33.71,11.65-50.2,4.71-20.35,9.57-40.67,14-61.09,1.62-7.46,4.82-12.2,12.83-14.05,9.36-2.15,18.43-5.57,27.59-8.58,2.03-.67,4-1.13,6.07-.73,1.64,.31,1.97,2.02,2.21,3.19,.33,1.65-1.36,1.2-2.36,1.5-10.54,3.18-21.01,6.57-31.61,9.55-4.35,1.22-6.67,3.91-7.61,7.97-7.82,33.55-15.58,67.1-23.32,100.66-.08,.35,.23,.79,.56,1.8,16.47-8.13,33.14-15.7,49.1-24.52,8.17-4.52,14.75-4.96,22.79-.09,8.4,5.09,17.78,8.55,26.46,13.2,4.77,2.56,8.76,2.33,13.45-.13,10.36-5.43,21.06-10.21,31.42-15.63,4.35-2.27,7.88-2.07,12.21,.14,17.95,9.17,36.08,17.99,55.49,27.6-3.02-13.14-5.76-25.06-8.52-36.99-4.91-21.25-9.91-42.49-14.68-63.77-1.28-5.72-3.94-9.21-9.96-10.77-9.97-2.59-19.73-5.99-29.59-9.04-1.11-.35-3.22,.66-2.94-1.58,.18-1.43,.86-3.27,2.98-3.19,1.59,.06,3.25,.09,4.75,.56,10.51,3.27,20.92,6.89,31.51,9.9,4.88,1.38,7.55,4.34,8.59,8.85,8.83,38.01,17.56,76.05,26.29,114.08,.04,.18-.17,.42-.52,1.2Z"/><path class="cls-4" d="M40.9,172.46c3.78-20.55,7.34-39.73,10.79-58.93,.48-2.67,1.2-4.85,4.01-5.84,9.05-3.22,18.09-6.49,27.95-10.03-1.15,13.93-2.23,27.13-3.32,40.33-.09,1.15-.52,2.32-.37,3.42,1.78,13.47-4.21,20.57-17.42,23.23-7.08,1.42-13.75,4.9-21.63,7.82Z"/><path class="cls-4" d="M170.54,144.48c12.85,3.74,24.12,9.36,35.57,14.5,.93,.42,1.96,1.48,2.19,2.43,2.52,10.16,4.9,20.35,7.71,32.2-14.94-7.42-28.24-14.04-41.54-20.64-1.33-.66-2.11-1.62-2.21-3.18-.53-8.21-1.1-16.42-1.71-25.31Z"/><path class="cls-4" d="M205.55,149.94c-11.91-5.13-22.4-9.74-32.98-14.13-2.56-1.06-3.3-2.63-3.43-5.22-.43-8.72-.95-17.45-1.7-26.15-.31-3.6,.43-4.63,4.06-3.23,7.06,2.73,14.19,5.29,21.39,7.64,2.57,.84,3.68,2.33,4.24,4.78,2.64,11.59,5.36,23.17,8.42,36.3Z"/><path class="cls-4" d="M129.71,188.98c-.17-1.82-.32-2.51-.29-3.19,.43-8.41-3.63-19.38,1.43-24.66,7.08-7.38,18.51-10.56,28.05-15.59,2.91-1.53,3.03,.48,3.21,2.4,.67,7.09,1.26,14.19,1.97,21.27,.24,2.34-.38,3.81-2.69,4.87-10.39,4.77-20.69,9.71-31.67,14.89Z"/><path class="cls-4" d="M90.94,113.42c8.82,13.83,16.63,26.09,24.44,38.34,1.61,2.53,.89,3.66-2.07,3.83-7.09,.42-14.19,.85-21.26,1.52-3.51,.33-4.33-1.06-4.07-4.29,1.02-12.46,1.89-24.94,2.96-39.4Z"/><path class="cls-4" d="M104.52,163.9c.69,0,1.37,.02,2.06,0q14.57-.5,14.59,14.47c0,1.37-.15,2.77,.03,4.12,.78,5.84-1.58,5.89-5.99,3.67-7.96-4.02-16.04-7.82-24.19-11.45-3.33-1.48-5.11-3.17-4.5-7.19,.68-4.47,3.92-3.01,6.32-3.16,3.88-.24,7.78-.06,11.67-.06v-.4Z"/><path class="cls-4" d="M38.38,192.49c-1.24-9.28,1.93-13.73,10.05-15.89,9.66-2.57,18.98-6.42,28.75-9.82,.88,3.52,.77,6.07-2.63,7.74-11.88,5.83-23.7,11.77-36.16,17.97Z"/><path class="cls-4" d="M139.78,145.98c6.97-11.55,12.95-21.46,20.04-33.2,.52,8.18,.85,14.27,1.33,20.34,.18,2.28-1.05,3.25-2.86,4.09-5.57,2.58-11.1,5.25-18.51,8.77Z"/></g></g></svg>