<?xml version="1.0" encoding="UTF-8"?><svg id="Layer_1" xmlns="http://www.w3.org/2000/svg" viewBox="0 0 249 231"><path d="M20.02,114.77c.17-57.28,46.67-104.04,104.37-103.72,58.31,.33,103.87,47,103.61,104.49-.27,58.85-48.31,104.9-106.61,103.48-56.91-1.38-101.47-47.87-101.37-104.25Zm14.53-.07c-.55,48.55,38.85,88.7,86.94,89.88,52.05,1.28,90.66-40.4,92.12-86.32,1.65-51.85-40.31-92.96-89.91-92.88-48.85,.08-89.16,40.38-89.16,89.31Z"/><path d="M156.78,73.05c-6.06,2.63-12.01,5.22-17.88,7.77,1.55,10.82-.93,16.83-8.11,20.09-7.51,3.41-14.13,1.34-21.2-6.74-3.18,1.45-6.43,2.92-9.9,4.5,6.32,10.22,6.76,20.5,1.02,31.16l8.07,4.7c2.74-4.47,6.54-7.37,11.69-8.18,3.88-.61,7.56,.05,10.98,2.09,6.55,3.9,8.63,10.81,5.88,20.36,5.8,2.79,11.64,5.61,17.46,8.41,5.79-6.22,12.61-7.66,18.24-3.91,5.28,3.51,7.15,9.96,4.54,15.67-2.5,5.47-9.17,8.37-15.24,6.63-6.71-1.92-9.72-7.52-8.57-16.15-5.56-2.66-11.13-5.42-16.81-7.91-.74-.33-2.35,.48-3.13,1.21-7.82,7.31-21.16,4.74-25.2-5.16-1.04-2.56-1.08-5.65-1.03-8.49,.03-1.64-.11-2.52-1.63-3.28-2.23-1.12-4.32-2.52-6.65-3.91-6.23,7.96-14.33,11.99-24.33,11.71-7.09-.2-13.39-2.71-18.48-7.7-11.68-11.46-12.11-28.97-1.26-40.54,9.89-10.55,29.28-13.34,42.88,1.08,3.47-1.48,7.02-3,10.5-4.49-.7-10.34,2.08-16.26,8.82-19.09,7.2-3.03,13.9-1.15,20.1,5.81,5.58-2.42,11.28-4.82,16.88-7.43,.58-.27,.89-1.8,.81-2.7-.7-7.37,3.39-12.94,10.69-14.35,6.51-1.26,13.33,3.49,14.5,10.1,1.18,6.69-3.22,13.11-9.82,14.32-5.71,1.05-10.24-.93-13.82-5.56ZM52,115.14c-.13,11.78,9.08,24.31,24.42,24.09,13.87-.2,23.75-10.73,23.91-24.44,.15-13.1-11.08-23.86-24.12-23.87-13.58,0-24.21,10.63-24.21,24.22Zm59.74,26.27c.07,6.22,5.48,11.4,11.72,11.23,5.81-.16,11.01-5.44,10.99-11.16-.02-6.12-5.21-10.95-11.68-10.89-6.04,.06-11.1,5.03-11.03,10.82Zm12.31-65.35c-6.07,.01-11.66,5.21-11.61,10.79,.06,5.9,5.55,11.13,11.65,11.1,6.19-.03,11.29-5.02,11.24-10.99-.05-6.15-4.98-10.91-11.28-10.9Z"/><path d="M154.2,131.21c-.04-6.89,5.39-12.17,12.52-12.17,7.05,0,12.69,5.35,12.79,12.12,.1,6.97-5.5,12.64-12.55,12.73-7.26,.09-12.71-5.32-12.75-12.67Z"/><path d="M154.43,99.54c.06-7.08,5.57-12.45,12.67-12.35,7.31,.1,12.85,5.4,12.84,12.3,0,6.71-5.93,12.5-12.79,12.51-7.03,0-12.78-5.62-12.72-12.45Z"/></svg>