<svg xmlns="http://www.w3.org/2000/svg" viewBox="0 0 343 326">
  <path d="M171.5 14.96C86.67 14.96 17.66 81.37 17.66 163S86.67 311.04 171.5 311.04 325.34 244.63 325.34 163 256.33 14.96 171.5 14.96Zm0 287.07c-79.86 0-144.84-62.37-144.84-139.04S91.64 23.96 171.5 23.96 316.34 86.33 316.34 163 251.37 302.04 171.5 302.04Z" fill="#b9c3cf"/>
  <path d="M248.92 175.08c-1.01-.04-2.01-.18-3.01-.31a76.318 76.318 0 0 1-29.36-11.32c-1.5-.88-2.53-1.59-4.3-.26a54.928 54.928 0 0 1-35.32 11.2c-2.1-.07-2.92.43-2.8 2.64.2 3.92 0 7.88.28 11.8.48 12.8 3.81 25.34 9.75 36.69a57.215 57.215 0 0 0 29.66 25.13h.78a59.043 59.043 0 0 0 28.62-23.17c8.94-14.39 11.31-30.38 11.05-46.98q-.08-5.2-5.36-5.42Zm-40.7 52.02h-.02a48.644 48.644 0 0 0-16-21.32c-.03-.01-.06-.03-.08-.04-.77-.43-1.06-1.4-.63-2.17.28-.97 1.19-1.62 2.2-1.57 4.4-.9 8.96.53 12.06 3.78 1.78 2.14 2.52 1.25 3.72-.6a196.56 196.56 0 0 1 12.44-15.76 14.23 14.23 0 0 1 15.5-4.8 182.041 182.041 0 0 0-29.2 42.48Z" fill="#3ac49a"/>
  <path d="M171.14 234.5c-22.98.15-45.98.02-68.98.15-2.91 0-3.5-.8-3.5-3.6.11-47.48.11-94.97 0-142.46-.02-3.02.92-3.45 3.6-3.45 20.97.11 41.95.11 62.92 0 2.58-.02 3.39.51 3.34 3.26-.17 11.55-.09 23.11-.07 34.66.02 5.63 1.6 7.16 7.27 7.16 11.87 0 23.75.08 35.62-.05 2.49-.04 3.28.65 3.14 3.16-.21 3.79-.06 7.61-.06 11.42 0 1.26-.13 2.45 1.34 3.22 2.64 1.4 5.16 2.98 8.26 4.8 0-7.32-.29-14.03.09-20.69.71-5.84-1.62-11.63-6.16-15.36-13.35-12.06-26.03-24.89-38.88-37.52a13.44 13.44 0 0 0-9.4-3.84H98.13c-1.21 0-2.41.31-3.47.89a10.145 10.145 0 0 0-5.13 7.4l-.18 1.23c-.13.9-.2 1.81-.2 2.72.03 48.83.03 97.65 0 146.47l.47 2.58a9.313 9.313 0 0 0 9 7.65l6.27.11c25.38-.23 48.4-.06 73.79-.11 1.04 0 2.22.51 3.31-.54a42.387 42.387 0 0 1-4.2-5.78 6.207 6.207 0 0 0-6.66-3.48Zm7.12-142c10.06 9.46 19.47 18.3 29.07 27.35-1.26.54-2.65.7-4 .46-7.46.04-14.92 0-22.36.04-1.67.02-2.8.02-2.76-2.3.14-8.21.05-16.44.05-25.54Z" fill="#b9c3cf"/>
  <path d="M177.31 162.86c2.32-.49 5.04-.55 4.72-4.09-.3-3.29-2.59-3.47-5.2-3.47-9.2.07-18.43.02-27.63.02-9.48 0-18.93.06-28.4-.03-2.75-.02-4.84.58-4.84 3.81.01 2.99 2.05 3.84 4.58 3.84h55.66c.38.01.75-.02 1.12-.1ZM119.82 210.38h45.42v-.02c-.55-1.82-.98-3.67-1.31-5.54-.17-1.52-.86-1.84-2.2-1.84-14.01.03-28.05 0-42.05.05-.29-.04-.59-.04-.89 0-1.82.25-3.1 1.94-2.84 3.76.08 2.47 1.38 3.58 3.87 3.58ZM158.1 178.97c-12.47.07-24.94.04-37.41 0-2.81 0-4.77.94-4.71 4.04.04 2.98 2.04 3.66 4.64 3.64 6.17-.04 12.35 0 18.52 0 6.3 0 12.6.03 18.9-.04 1.22-.02 3.67.84 2.77-1.89-.65-1.96 2.42-5.78-2.71-5.75ZM152.77 138.8c.23.04.47.05.7.05a3.438 3.438 0 0 0 3.3-3.56c.08-2.57-1.43-3.84-4.07-3.84h-32.59c-2.48 0-4.19.9-4.16 3.72.02 2.83 1.73 3.63 4.23 3.63 5.3-.02 10.61 0 15.92 0 5.56 0 11.12-.06 16.68 0ZM138 109.19c-6.18-.09-12.36-.12-18.54 0a3.37 3.37 0 0 0-3.5 4.03c0 .19 0 .39.03.58a3.262 3.262 0 0 0 3.68 2.8h8.71v-.02h9.46a3.247 3.247 0 0 0 3.49-3.6c.04-.22.05-.45.04-.67a3.242 3.242 0 0 0-3.37-3.11Z" fill="#b9c3cf"/>
</svg>
