<svg xmlns="http://www.w3.org/2000/svg" viewBox="0 0 343 326">
  <path d="M187.88 76.76a5.862 5.862 0 0 0-3.32 2.25c-1.9 2.63-1.32 6.3 1.31 8.2l-20.57 54.71c-.34-.05-.69-.07-1.04-.07-1.5 0-2.97.47-4.19 1.34-3.26 2.32-4.02 6.84-1.71 10.09 2.32 3.26 6.84 4.02 10.09 1.71l9.88 8.96c-.39.78-.59 1.64-.59 2.51 0 .33.03.66.09.98a5.668 5.668 0 0 0 6.56 4.6l13.68 28.25c.98-.16 1.97-.24 2.96-.24h.37l-14.2-29.38a5.678 5.678 0 0 0 1.04-7.22c-1.65-2.66-5.15-3.48-7.8-1.83l-9.88-8.96c1.9-3.33.87-7.57-2.35-9.65l20.55-54.7c.18.02.36.02.54.02 2.6 0 4.89-1.71 5.63-4.21.92-3.11-.85-6.38-3.96-7.3l.67-32.96.04-1.84h-3.08l-.04 1.83-.67 32.89Z" fill="#b9c3cf"/>
  <path d="m289.37 278.97-42-72.74-.12-.21-42.77-74.11V42.03h-3.61v90.87l42.58 73.74-1.92.31-1.06.17c-.78-1.38-1.8-2.6-3-3.63a14.49 14.49 0 0 0-9.44-3.43 14.24 14.24 0 0 0-12.44 7.06h-.28a17.766 17.766 0 0 0-13.95-7.05l16.54 34.24a8.47 8.47 0 0 1 2.13-.28c4.61-.01 8.36 3.71 8.37 8.33s-3.71 8.36-8.33 8.37h-.1l-4.29 21.25c3.75 1.39 6.32 4.87 6.54 8.87.3 5.54-3.94 10.27-9.48 10.57-5.54.3-10.27-3.94-10.57-9.48l-62.32-6.28a8.078 8.078 0 0 1-6.99 5.71 8.088 8.088 0 0 1-8.8-7.31 8.088 8.088 0 0 1 7.31-8.8 8.088 8.088 0 0 1 8.8 7.31l62.36 6.3c1.16-4.42 5.15-7.5 9.71-7.5h.44l4.29-21.25a8.288 8.288 0 0 1-3.56-2.77 8.354 8.354 0 0 1 1.74-11.69l-17.08-35.35a17.59 17.59 0 0 0-11.36 6.82h-3.13c-5.59-2.2-11.8-2.2-17.38 0h-3.88c-.48-7.29-6.22-13.12-13.5-13.74-8.13-.68-15.26 5.35-15.95 13.48a19.816 19.816 0 0 0-16.67-8.79c-2.96 0-5.89.61-8.61 1.8-1.05.46-2.07 1.02-3.03 1.65a19.363 19.363 0 0 0-4.33 3.9l41.88-72.53v-20.5l26.9-.45-.06-3.61-17.13.29-9.71.16V86.61h14.9V83h-14.9V60.68h26.87v-3.61h-26.87V42.03h-3.61v89.88l-42.9 74.33-2.21 3.84-39.77 68.9a19.592 19.592 0 0 0-2.62 9.77c0 10.78 8.74 19.52 19.52 19.52h201.94c3.43 0 6.79-.9 9.76-2.62 9.34-5.39 12.53-17.33 7.14-26.67Z" fill="#b9c3cf"/>
  <path d="M215.75 17.74h-88.51c-2.08 0-3.76 1.68-3.76 3.76v15.02c0 2.08 1.68 3.76 3.76 3.76h11.27v1.75h65.97v-1.76h11.27c2.08 0 3.76-1.68 3.76-3.76V21.5c0-2.08-1.68-3.76-3.76-3.76Z" fill="#3ac49a"/>
</svg>
