<svg xmlns="http://www.w3.org/2000/svg" viewBox="0 0 343 326">
  <path d="M239.76 74.54v.04h34.15c5.85.4 10.93-3.99 11.38-9.84l-56.93-49.12c-5.84-.39-10.91 3.99-11.36 9.82v29.45c0 10.84 10.2 19.65 22.76 19.65Z" fill="#3ac49a"/>
  <path d="M228.4 94.23c-18.86 0-34.14-13.21-34.14-29.49h-.02V15.61H80.44c-12.56 0-22.76 8.8-22.76 19.65v255.5c0 10.84 10.2 19.65 22.76 19.65h182.11c12.56 0 22.76-8.8 22.76-19.65V94.23h-56.92Zm-106.11 66.22c.72-.37 1.52-.56 2.33-.56l.03-.03c1.01 0 1.99.3 2.83.86l22.62-19.47a4.81 4.81 0 0 1-.75-2.86 5.26 5.26 0 0 1 5.3-5.05c2.89-.03 5.3 2.17 5.54 5.05l21.26 8.23c.51-1.9 2.22-3.23 4.19-3.25 1.46 0 2.85.63 3.79 1.75l23.44-18.57c-.89-2.64.53-5.51 3.17-6.4 2.64-.89 5.51.53 6.4 3.17.89 2.64-.53 5.51-3.17 6.4a5.04 5.04 0 0 1-5.02-1.06l-23.69 18.75c.68 2.7-.96 5.45-3.66 6.13a5.053 5.053 0 0 1-6.25-4.33l-22.15-8.3a5.053 5.053 0 0 1-4.4 2.58c-.77 0-1.53-.18-2.22-.54l-22.79 19.68c1.27 2.47.3 5.49-2.16 6.76s-5.49.3-6.76-2.16a5.02 5.02 0 0 1 2.16-6.76Zm13.53 34.95v65.52c0 3.32-2.69 6.01-6.01 6.01h-7.95c-3.32 0-6.01-2.68-6.01-5.99V195.4c0-3.32 2.68-6.01 5.99-6.01h7.96c3.32 0 6.01 2.68 6.01 5.99v.02Zm22.8 69.31h-7.96c-3.32 0-6.01-2.68-6.01-5.99V179.9c0-3.32 2.68-6.01 5.99-6.01H158.58c3.32 0 6.01 2.68 6.01 5.99v78.82h.02c0 3.32-2.68 6.01-5.99 6.01Zm36.99-98.09v92.07c0 3.32-2.69 6.01-6 6.01h-7.96c-3.32 0-6.01-2.68-6.01-5.99v-92.09c0-3.32 2.68-6.01 5.99-6.01h7.96c3.32 0 6.01 2.68 6.01 5.99v.02Zm33.2-11.09V258.7c0 3.32-2.68 6.01-5.99 6.01h-10.18c-3.32 0-6.01-2.68-6.01-5.99V155.54c0-3.32 2.68-6.01 5.99-6.01h10.18a6 6 0 0 1 6.01 6Z" fill="#b9c3cf"/>
</svg>
