<svg xmlns="http://www.w3.org/2000/svg" viewBox="0 0 343 326">
  <path d="M172.14 270.17c-79.93 0-144.94-24.08-145.65-54.25l-.22 38.76h.07c-.04.28-.06.57-.07.86 0 30.38 65.15 54.85 145.51 54.85s145.51-24.44 145.51-54.81c0-.3-.03-.6-.07-.89h.75V215.2c0 30.37-65.48 54.99-145.84 54.99Z" fill="#b9c3cf"/>
  <path d="M171.79 257.53c80.36 0 145.51-23.18 145.51-52.06 0-.29-.03-.57-.07-.86h.75V167.1c0 28.87-65.47 52.23-145.83 52.23S27.21 196.44 26.49 167.81l-.22 36.8h.07c-.04.26-.06.52-.07.79 0 28.87 65.15 52.13 145.51 52.13Z" fill="#3ac49a"/>
  <path d="M172.14 170.14c-79.93 0-144.94-22.4-145.65-50.45l-.22 36.06h.07c-.04.26-.06.52-.07.79 0 28.29 65.15 51.06 145.51 51.06s145.51-22.72 145.51-51.01c0-.29-.03-.57-.07-.86h.75v-36.76c0 28.27-65.48 51.16-145.84 51.16Z" fill="#b9c3cf"/>
  <path d="M317.62 67.39c-.38-28.59-66.22-51.77-146.33-51.77S25.02 39.19 25.02 67.89l1.25 36.1h.07c-.04.26-.06.52-.07.79 0 28.34 65.15 51.16 145.51 51.16s145.51-22.75 145.51-51.09c0-.29-.03-.57-.07-.86h.75V67.14s-.36.18-.36.25Z" fill="#b9c3cf"/>
</svg>
