<svg xmlns="http://www.w3.org/2000/svg" viewBox="0 0 343 326">
  <path d="M142.83 233.71c.59-1.55.86-3.2.79-4.85l-.23-1.66a10.74 10.74 0 0 0-3.93-5.91c-1.12-.84-2.31-1.58-3.56-2.22l-1.29-.69c-1.06-.55-2.08-1.06-3.1-1.66-1.52-.88-3-1.76-4.48-2.63-1.62-.97-3.23-1.94-4.9-2.86-4.59-3.09-10.8-2.05-14.14 2.36l-.42.46c-11.78 13.35-24.03 27.17-35.86 40.94l-3.47 4.16-.21.24c-3.6 4.35-2.99 10.8 1.36 14.4.66.61 1.36 1.18 2.08 1.71 4.99 3.74 10.17 7.07 14.14 9.52a135.98 135.98 0 0 0 19.87 10.21c1.36.55 2.75 1.03 4.16 1.43.93.27 1.9.41 2.86.42h.05c4.21 0 7.99-2.62 9.47-6.56l1.29-3.19c4.53-11.88 9.24-24.67 15.25-41.45 1.16-3.14 2.22-6.28 3.33-9.43l.92-2.73Zm-21.76 5.91c-5.18 14.46-9.38 25.92-13.35 36.41-4.24-1.98-8.36-4.22-12.34-6.7-2.17-1.39-4.81-3.05-7.49-4.85v-.05c9.89-11.51 20.1-23.01 30.03-34.29 1.43.88 2.86 1.71 4.3 2.54.37.18.69.42 1.06.6-.74 2.13-1.48 4.25-2.22 6.33ZM278.26 247.53c-5.18-4.11-10.49-8.09-15.66-11.92l-2.36-1.76c-9.56-7.12-19.45-14.51-29.39-21.53-4.64-4.14-11.76-3.72-15.89.92-3.19 2.86-6.33 5.82-9.52 8.73l-2.91 2.68c-.32.28-.6.6-.92.92-3.23 3.35-3.8 8.45-1.39 12.43l31.33 50.13a25.67 25.67 0 0 0 2.22 2.96c1.92 2.35 4.78 3.73 7.81 3.79l-.05.05c1.94-.02 3.84-.56 5.5-1.57 1.07-.62 2.1-1.3 3.1-2.03 9.65-7.28 18.62-15.41 26.8-24.3 1.52-1.51 2.87-3.18 4.02-4.99.99-1.57 1.63-3.33 1.85-5.18v-.83l-.09-.83c-.3-3.08-1.92-5.88-4.44-7.67Zm-34.47 25.32-24.26-38.72.05-.09c1.48-1.34 2.91-2.68 4.39-4.02 8.5 6.15 17 12.48 25.37 18.67l2.26 1.71c3 2.22 6.01 4.48 9.1 6.84a199.856 199.856 0 0 1-16.91 15.62Z" fill="#b9c3cf"/>
  <path d="M199.34 88.99c-2.56 4.62-1.2 10.43 3.14 13.45.74.55 1.48 1.11 2.26 1.66 3.32 2.27 6.47 4.77 9.43 7.49.71.7 1.47 1.34 2.26 1.94 1.91 1.6 4.3 2.51 6.79 2.59l-.05-.05c2.42-.07 4.76-.93 6.65-2.45.92-.69 1.85-1.43 2.73-2.17 7.81-6.52 16.17-13.68 26.34-22.6 4.02-3.47 7.99-7.02 11.97-10.58l1.34-1.16c1.29-1.16 2.5-2.31 3.74-3.51l.37-.32c1.71-1.57 2.89-3.64 3.37-5.91l.23-1.25-.09-1.29c-.26-2.55-1.36-4.94-3.14-6.79-.65-.74-1.34-1.48-2.03-2.17a164.16 164.16 0 0 0-30.08-23.52c-.89-.56-1.82-1.07-2.77-1.52a10.622 10.622 0 0 0-14.37 4.3c-.69 1.2-1.39 2.4-2.03 3.65a2807.55 2807.55 0 0 0-24.26 46.58c-.6 1.2-1.25 2.45-1.8 3.65Zm40.39-37.75c6.38 4.2 12.42 8.9 18.07 14.05-3.65 3.23-7.3 6.52-11 9.75-8.92 7.76-16.4 14.23-23.33 20.05-1.57-1.29-3.13-2.49-4.65-3.64 7.52-14.73 14.4-27.98 20.91-40.21Z" fill="#3ac49a"/>
  <path d="M141.86 35.21c3.37 15.53 7.21 32.25 11.64 51.1.28 1.34.6 2.63.97 3.97.94 4.96 5.4 8.47 10.44 8.22l.05.05h.55c.94 0 1.88-.05 2.82-.14 4.01-.37 8.04-.46 12.06-.28h3c5.11.18 9.56-3.46 10.4-8.5.28-1.16.51-2.31.69-3.47 1.76-9.98 3.51-20.79 5.5-34.1.79-5.41 1.57-10.77 2.31-16.17l.18-1.29c.18-1.62.37-3.28.55-4.9l.09-.74c.3-2.29-.13-4.63-1.25-6.65l-.6-1.11-.88-.88a10.943 10.943 0 0 0-6.38-3.14l-.51-.09c-.97-.14-1.89-.28-2.82-.37-12.77-1.08-25.63-.68-38.31 1.2-1.02.14-2.03.37-3.05.6-5.74 1.24-9.42 6.86-8.27 12.61.23 1.34.51 2.73.79 4.07Zm41.96-.37c-.65 4.85-1.34 9.66-2.08 14.51-1.71 11.6-3.28 21.26-4.81 30.13-1.99.05-4.07.09-6.01.18-3.78-16.06-7.11-30.56-10.06-44.08 7.62-.86 15.3-1.1 22.96-.74ZM309.82 182.38c-.51-.14-.97-.32-1.48-.46-.65-.18-1.25-.37-1.85-.55-11.83-3.33-23.43-6.33-33.22-8.83-5.13-1.29-10.3-2.54-15.43-3.84l-5.73-1.43c-.65-.18-1.25-.28-1.85-.42l-2.4-.32h-.09c-3.83 0-7.35 2.09-9.2 5.45-.41.71-.77 1.45-1.06 2.22-1.2 3.05-2.63 6.1-4.16 9.29l-.37.74c-.69 1.48-1.39 3-2.08 4.53a10.251 10.251 0 0 0 3.88 13.58l9.8 6.98 25.97 18.48c3.6 2.59 8.41 5.96 13.49 9.24 1.82 1.22 3.95 1.9 6.15 1.94l.05.09c3.28-.07 6.34-1.7 8.22-4.39.9-1.19 1.73-2.42 2.5-3.7a180.387 180.387 0 0 0 15.34-32.95c.31-.91.56-1.83.74-2.77l.14-.55.02-.08c1.35-5.42-1.95-10.91-7.37-12.26Zm-22.32 34.79c-1.94-1.29-3.97-2.77-6.28-4.39-8.64-6.15-17.28-12.34-25.92-18.48l-4.99-3.56h.05c.65-1.43 1.34-2.91 2.03-4.39l.97.23c5.08 1.29 10.21 2.54 15.29 3.84 8.32 2.17 18.02 4.67 27.96 7.39-2.59 6.65-5.63 13.12-9.1 19.36ZM199.89 274.88l-.51-2.73c-1.6-8.89-3.23-17.74-4.9-26.57l-.42-2.22c-.46-2.77-.97-5.64-1.76-8.55-.99-5.26-5.93-8.82-11.23-8.09-5.32.42-10.66.49-15.99.23-1.14-.04-2.28 0-3.42.14a11.07 11.07 0 0 0-8.87 6.84l-.69 2.54c-.23.97-.46 1.94-.65 2.91l-1.11 5.59c-1.43 7.35-2.91 14.74-4.3 22.09-1.11 5.96-2.22 11.97-3.28 17.97l-1.11 6.15c-.32 1.62-.55 3.28-.79 4.94-.49 3.01.28 6.08 2.13 8.5 1.92 2.35 4.74 3.79 7.76 3.97 1.16.14 2.31.23 3.47.32l2.31.18c5.04.46 10.07.69 15.11.69l-.05.05c5.91 0 11.82-.32 17.7-.97 1.96-.19 3.9-.5 5.82-.92 4.78-1.03 8.18-5.28 8.13-10.17 0-1.61-.12-3.22-.37-4.81-.88-6.28-1.94-12.43-3-18.11Zm-39.36 16.04.45-2.54c1.06-5.96 2.13-11.92 3.23-17.84 1.43-7.35 2.86-14.65 4.3-21.95l.6-2.96c2.13 0 4.34 0 6.65-.09.05.37.14.74.18 1.11l.42 2.31 4.85 26.48.51 2.73c.74 4.02 1.48 8.32 2.17 12.66-7.78.65-15.59.69-23.37.1ZM32.49 144.63c1.9.74 3.84 1.36 5.82 1.85 6.65 1.8 13.4 3.37 19.92 4.94l8.46 2.03c8.59 2.08 17.47 4.2 26.38 6.05.99.22 1.99.33 3 .32h.09c4.19 0 7.99-2.44 9.75-6.24.24-.42.46-.85.65-1.29.6-1.29 1.16-2.63 1.71-3.93.69-1.52 1.29-3.05 2.08-4.53l3.7-7.25c.89-1.66 1.35-3.52 1.34-5.41l.18-2.91-2.96-3.65-.83-.69c-.57-.51-1.17-.99-1.8-1.43l-4.3-3c-3.74-2.59-7.44-5.22-11.23-7.76-4.76-3.23-9.47-6.38-14.23-9.56l-8.87-5.96c-1.57-1.02-3.1-2.08-4.67-3.1-2.45-1.57-4.9-3.14-7.39-4.67a10.087 10.087 0 0 0-13.77 2.13c-.94 1.07-1.79 2.21-2.54 3.42-2.15 3.43-4.11 6.98-5.87 10.63a225.36 225.36 0 0 0-7.86 17.37 68.867 68.867 0 0 0-3.33 10.12 10.158 10.158 0 0 0 6.56 12.52Zm13.91-15.76c2.03-5.13 4.39-10.35 7.21-15.94.74-1.43 1.52-3 2.4-4.62.19.09.38.2.55.32 1.48.92 2.96 1.94 4.39 2.91l8.96 6.01c4.71 3.14 9.43 6.28 14.09 9.47 3.47 2.36 6.93 4.81 10.4 7.21l-.55 1.11c-.88 1.62-1.57 3.28-2.31 4.94-6.88-1.52-13.82-3.19-20.56-4.81l-8.5-2.03c-5.31-1.29-10.81-2.59-16.26-4.02l-.05.05c.09-.23.14-.42.23-.6ZM100.18 208.25c2.63-1.29 5.22-2.63 7.81-3.97a10.29 10.29 0 0 0 5.54-12.52c-.27-1.14-.61-2.27-1.02-3.37-1.11-3.19-1.99-6.56-2.73-9.43l-.42-1.57c-.25-.79-.45-1.59-.6-2.4-.88-5.33-5.77-9.04-11.14-8.46-1.57.14-3.19.23-4.76.37-2.13.14-4.25.32-6.38.51l-9.52.83-5.73.55c-1.85.18-3.65.37-5.45.51-.79.09-1.52.14-2.31.23l-4.2.37c-1.89.14-3.79.28-5.64.51-.88.14-1.71.18-2.59.28l-2.63.28-.92.09c-.83.09-1.62.18-2.54.28-2.73.23-5.5.46-8.46.97-5.41.72-9.25 5.62-8.64 11.04.18 2.58.54 5.14 1.06 7.67.65 3.84 1.57 7.3 2.4 10.67l.18.79c.65 2.45 1.39 4.9 2.13 7.35.97 3.1 2.03 6.19 3.14 9.24.8 2.42 1.81 4.77 3 7.02 1.7 3.61 5.3 5.94 9.29 6.01l.14-.14c1.85-.02 3.66-.46 5.31-1.29l29.8-14.6c5.27-2.59 10.58-5.18 15.85-7.81Zm-46.81 2.4c-.74-2.08-1.39-4.16-2.08-6.28s-1.34-4.3-1.89-6.47l-.18-.74c-.64-2.53-1.24-4.96-1.75-7.44.74-.05 1.43-.14 2.16-.23l3.1-.32c1.02-.09 2.03-.18 3.05-.32 1.62-.18 3.23-.28 4.85-.42l6.56-.55 5.82-.55c1.8-.18 3.6-.37 5.41-.51 3.23-.28 6.47-.55 9.75-.88 1.34-.14 2.73-.28 4.07-.37.42 1.66.92 3.47 1.48 5.31-.6.32-1.25.6-1.85.92l-15.8 7.76-22.69 11.09ZM69.18 70.19c1.25 1.43 2.5 2.82 3.74 4.2 4.99 5.5 10.07 10.95 15.11 16.45l7.35 7.9c4.11 4.44 8.55 9.2 13.17 13.86 1.93 2.16 4.68 3.44 7.58 3.51h.05c2.15-.07 4.25-.72 6.05-1.89.92-.6 1.85-1.16 2.73-1.76l1.06-.69c2.31-1.48 4.71-2.86 7.12-4.2 1.25-.69 2.5-1.43 3.7-2.13 4.73-2.38 6.77-8.05 4.62-12.89-1.11-2.82-2.17-5.64-3.28-8.46-4.16-10.44-8.27-20.93-12.43-31.37-1.76-4.48-3.56-8.92-5.36-13.4l-.79-1.89c-.09-.28-.19-.56-.3-.84-2.18-5.26-8.2-7.76-13.47-5.59-1.88.62-3.72 1.38-5.5 2.26-8.74 4.29-17.13 9.26-25.09 14.88a51.011 51.011 0 0 0-7.35 6.01l-.46.51a10.396 10.396 0 0 0 .32 13.91l1.43 1.62Zm17.88-7.86c5.83-4.08 11.93-7.75 18.25-11 1.06 2.73 2.17 5.41 3.23 8.13 4.11 10.44 8.27 20.89 12.38 31.33.23.65.51 1.29.74 1.94-1.43.83-2.82 1.62-4.2 2.5a732.12 732.12 0 0 1-8.5-9.1l-7.35-7.9c-4.88-5.25-9.75-10.54-14.6-15.85l.05-.05ZM274.06 102.99l-1.25.65c-1.47.84-2.98 1.59-4.53 2.26-1.76.79-3.42 1.66-5.08 2.54l-8.13 4.25c-1.48.74-2.96 1.52-4.39 2.31l-3.79 2.08c-3.93 2.08-7.9 4.2-11.74 6.47a10.164 10.164 0 0 0-5.36 9.01l.18 2.31.74 1.76c1.02 2.45 1.85 4.99 2.68 7.53l.32.97c.74 2.19 1.35 4.43 1.8 6.7l.23 1.25.55 1.16c1.81 3.54 5.49 5.73 9.47 5.64l.28-.05h1.71l1.29-.09c1.99-.14 3.93-.37 5.91-.55l4.71-.46c3.88-.52 7.76-.94 11.64-1.25l.88-.14c.61-.12 1.23-.2 1.85-.23.84-.05 1.67-.14 2.5-.28.54-.02 1.08-.08 1.62-.18.68-.03 1.36-.11 2.03-.23.44-.06.89-.09 1.34-.09h.32l1.99-.28h.46l1.43-.18h.55l1.34-.23c1.16-.18 2.31-.28 3.47-.42l1.11-.09 1.16-.18c.34-.05.68-.08 1.02-.09l1.02-.18c.32-.08.64-.11.97-.09l10.17-1.25c.2-.01.39-.03.59-.06 6.04-.75 10.32-6.25 9.58-12.28-.17-2.34-.62-4.65-1.34-6.89l-.18-.51c-.09-.32-.14-.69-.23-1.02-.09-.55-.23-1.11-.37-1.66-1.29-5.18-2.86-10.4-4.81-16.03-1.32-4.11-2.88-8.13-4.67-12.06-.55-1.2-1.2-2.31-1.85-3.42-2.67-4.87-8.75-6.72-13.68-4.16-.79.42-1.62.79-2.4 1.16l-1.48.69c-1.34.65-2.68 1.34-3.97 2.03-1.2.65-2.45 1.29-3.7 1.89-1.34.6-2.68 1.29-3.97 1.99Zm8.5 16.22c1.02-.55 2.08-1.11 3.14-1.62 1.48-.69 2.96-1.48 4.44-2.26.69 1.8 1.29 3.65 1.89 5.36 1.76 5.18 3.19 9.93 4.34 14.6l.09.46-2.13.28c-.83.09-1.66.18-2.45.32-.87.05-1.74.17-2.59.37h-.42c-1.25.14-2.54.28-3.84.46-.77.02-1.55.1-2.31.23-.69.05-1.39.14-1.94.23-.61 0-1.21.07-1.8.18h-.18c-.53.02-1.06.1-1.57.23h-.46c-.53.04-1.05.12-1.57.23l-1.48.14c-.58.12-1.17.2-1.76.23-.97.09-1.89.23-2.86.37-4.02.37-8.13.79-11.74 1.29-1.48.14-3 .32-4.53.46-.37 0-.74.09-1.11.09-.14-.51-.32-1.06-.51-1.62l-.32-.97c-.23-.65-.46-1.34-.69-2.03l-.05-.18c1.71-.92 3.47-1.85 5.18-2.77.51-.23 1.02-.55 1.52-.83l2.45-1.29c1.39-.74 2.77-1.48 4.2-2.22l8.27-4.34c1.25-.69 2.54-1.39 3.7-1.89 2.02-.87 3.99-1.84 5.91-2.91l1.16-.6Z" fill="#b9c3cf"/>
</svg>
