<svg xmlns="http://www.w3.org/2000/svg" viewBox="0 0 343 326">
  <path d="M275.59 174.09h.01c17.71 0 32.07-14.36 32.08-32.08 0-17.72-14.36-32.09-32.08-32.1h-91.4c-17.71 0-32.07 14.36-32.08 32.08 0 17.72 14.36 32.09 32.08 32.1h13.49v-8.26c0-.59.04-1.18.1-1.76.99-8.56 8.74-14.69 17.29-13.69 7.93 1.09 13.82 7.91 13.72 15.92v2.71c.07.63.11 1.26.11 1.91v3.17h46.67Zm-37.8-33.22c.01-3.94 3.2-7.13 7.14-7.14h31.54c3.94.01 7.13 3.2 7.14 7.14v1.19a7.157 7.157 0 0 1-7.14 7.14h-31.54a7.157 7.157 0 0 1-7.14-7.14v-1.19Z" fill="#3ac49a"/>
  <path d="M215.1 150.37c-8.56-.99-16.3 5.14-17.29 13.69-.07.58-.1 1.17-.1 1.76v20.02c-19.84 16.95-32.64 19.12-49.44 21.66 0 0 2.9-183.25.65-185.3a89.107 89.107 0 0 1 57.54 29.47h18.52c-1.02-1.36-2.07-2.71-3.15-4.02-2.85-3.42-5.9-6.66-9.15-9.7a104.92 104.92 0 0 0-70.12-28.48c-.61-.02-1.23-.02-1.86-.02-28-.02-54.84 11.14-74.58 31a104.9 104.9 0 0 0-8.8 10.03 104.736 104.736 0 0 0-21.74 57.04 104.077 104.077 0 0 0 .01 14.59 104.85 104.85 0 0 0 21.24 56.43c19.94 26.2 50.95 41.6 83.87 41.66 1.17 0 2.34-.03 3.49-.07 19.05-.61 37.55-6.43 53.53-16.78v52.8c0 .59-.48 1.08-1.08 1.08h-.54c-.38 0-.77 0-1.15.03-.59.04-1.09-.41-1.13-1v-13.21c.08-7.97-5.77-14.76-13.66-15.85-8.55-1.02-16.31 5.09-17.33 13.65-.07.6-.11 1.2-.11 1.8v38.89c-.26 18.81 14.59 34.38 33.39 35h73.35c14.09 0 27.41-16.53 27.41-36v-47.51c-.03-9.73-7.91-17.6-17.63-17.63l.02.02-50.36-5.84s-.07-.03-.07-.07v-43.22c.1-8.01-5.79-14.83-13.72-15.92Zm-93.89-125.7c-2.32 2.1-4.57 4.31-6.74 6.62a117.827 117.827 0 0 0-21.48 32.25 92.688 92.688 0 0 1-18.01-13.37 92.111 92.111 0 0 1 46.23-25.5Zm-54.77 35.5c6.57 6.15 13.89 11.44 21.79 15.74a124.195 124.195 0 0 0-5.85 31.62H48.74a91.777 91.777 0 0 1 17.7-47.36Zm-.81 108.21a91.757 91.757 0 0 1-16.89-46.26h33.69c.59 9.87 2.35 19.64 5.26 29.1-8.08 4.72-15.5 10.49-22.06 17.16Zm8.43 10.17a92.431 92.431 0 0 1 18.28-14.82 118.22 118.22 0 0 0 22.13 33.72c2.58 2.75 5.26 5.35 8.04 7.79a92.156 92.156 0 0 1-48.46-26.69Zm29.26-20.6c9.69-4.31 20.05-6.9 30.63-7.67v48.43a105.121 105.121 0 0 1-30.63-40.76Zm30.64-20.83c-12.08.76-23.94 3.61-35.05 8.43-2.21-7.64-3.59-15.49-4.12-23.42h39.17v14.99Zm0-29.56H94.73c.53-8.93 2.14-17.77 4.79-26.32 10.98 4.38 22.62 6.87 34.43 7.36v18.96Zm0-32.11a91.614 91.614 0 0 1-29.8-6.51 104.889 104.889 0 0 1 29.8-38.87v45.37Z" fill="#b9c3cf"/>
</svg>
