<svg data-name="Layer 1" xmlns="http://www.w3.org/2000/svg" viewBox="0 0 343 326">
  <path d="M239.08 173.91c-30.41 0-55.15 24.74-55.15 55.15s24.74 55.15 55.15 55.15 55.15-24.74 55.15-55.15-24.74-55.15-55.15-55.15Zm-29.84 41.8c0-5.34 4.33-9.67 9.67-9.67s9.67 4.33 9.67 9.67-4.33 9.67-9.67 9.67-9.67-4.33-9.67-9.67Zm50.25 47.72c0-11.25-9.16-20.41-20.41-20.41s-20.41 9.16-20.41 20.41h-6.28c0-14.72 11.97-26.69 26.69-26.69s26.69 11.97 26.69 26.69h-6.28Zm-.24-38.05c-5.34 0-9.67-4.33-9.67-9.67s4.33-9.67 9.67-9.67 9.67 4.33 9.67 9.67-4.33 9.67-9.67 9.67ZM239.08 146.84c30.41 0 55.15-24.74 55.15-55.15s-24.74-55.15-55.15-55.15-55.15 24.74-55.15 55.15 24.74 55.15 55.15 55.15Zm20.17-78.17c5.34 0 9.67 4.33 9.67 9.67s-4.33 9.67-9.67 9.67-9.67-4.33-9.67-9.67 4.33-9.67 9.67-9.67ZM239.08 91.8c8.65 0 15.68 8.73 15.68 19.46s-7.04 19.46-15.68 19.46-15.68-8.73-15.68-19.46 7.04-19.46 15.68-19.46Zm-20.17-23.13c5.34 0 9.67 4.33 9.67 9.67s-4.33 9.67-9.67 9.67-9.67-4.33-9.67-9.67 4.33-9.67 9.67-9.67Z" fill="#78b5e7"/>
  <path d="M239.08 124.44c5.1 0 9.4-6.04 9.4-13.18s-4.31-13.18-9.4-13.18-9.4 6.04-9.4 13.18 4.31 13.18 9.4 13.18ZM90.55 173.91c-30.41 0-55.15 24.74-55.15 55.15s24.74 55.15 55.15 55.15 55.15-24.74 55.15-55.15-24.74-55.15-55.15-55.15Zm-29.84 41.8c0-5.34 4.33-9.67 9.67-9.67s9.67 4.33 9.67 9.67-4.33 9.67-9.67 9.67-9.67-4.33-9.67-9.67Zm53.39 36.04H67v-6.28h47.1v6.28Zm-3.38-26.37c-5.34 0-9.67-4.33-9.67-9.67s4.33-9.67 9.67-9.67 9.67 4.33 9.67 9.67-4.33 9.67-9.67 9.67ZM166.91 57.08h6.28v23.54h-6.28zM166.91 18.89h6.28v23.54h-6.28zM166.91 95.28h6.28v23.54h-6.28zM166.91 209.86h6.28v23.54h-6.28zM166.91 286.24h6.28v21.49h-6.28zM166.91 171.66h6.28v23.54h-6.28zM166.91 248.05h6.28v23.54h-6.28zM166.91 133.47h6.28v23.54h-6.28zM139.2 161.74h23.54v6.28H139.2zM291.97 161.74h23.54v6.28h-23.54zM177.39 161.74h23.54v6.28h-23.54zM62.81 161.74h23.54v6.28H62.81zM26.67 161.74h21.49v6.28H26.67zM101 161.74h23.54v6.28H101zM253.78 161.74h23.54v6.28h-23.54zM215.58 161.74h23.54v6.28h-23.54zM90.43 148.43c30.41 0 55.15-24.74 55.15-55.15s-24.74-55.15-55.15-55.15-55.15 24.74-55.15 55.15 24.74 55.15 55.15 55.15Zm20.17-86.18c5.34 0 9.67 4.33 9.67 9.67s-4.33 9.67-9.67 9.67-9.67-4.33-9.67-9.67 4.33-9.67 9.67-9.67Zm-20.17 55.77c11.25 0 20.41-9.16 20.41-20.41h6.28c0 14.72-11.97 26.69-26.69 26.69s-26.69-11.97-26.69-26.69h6.28c0 11.25 9.16 20.41 20.41 20.41ZM70.26 62.25c5.34 0 9.67 4.33 9.67 9.67s-4.33 9.67-9.67 9.67-9.67-4.33-9.67-9.67 4.33-9.67 9.67-9.67Z" fill="#78b5e7"/>
</svg>
