<svg data-name="Layer 1" xmlns="http://www.w3.org/2000/svg" viewBox="0 0 343 326">
  <path d="M312.67 186.51c2.86-3.03 4.63-7.11 4.65-11.6.01-2.83-.67-5.5-1.88-7.85-6.91.46-16.85 2.47-20.12 9.97 2.05 4.89 2.91 15.1 2.95 15.55.06.79-.52 1.47-1.31 1.54h-.12c-.73 0-1.35-.57-1.41-1.31 0-.11-.92-11.02-2.94-15.13-1.78-3.63-10.83-3.64-13.86-3.35-.78.07-1.48-.5-1.55-1.29-.07-.78.5-1.48 1.29-1.55 1.21-.11 10.69-.86 15.09 2.91 4.08-7.12 13.22-9.42 20.22-10.09-.15-.19-.3-.37-.45-.55 3.92-3.1 6.44-7.88 6.46-13.27.02-4.94-2.07-9.39-5.41-12.51-6.62-1.07-17.4-1.73-18.98 3.15-.82 2.51-.79 4.5-.76 6.42.07 4.86-.51 8.09-9.26 12.07a1.403 1.403 0 0 1-1.88-.71c-.33-.72 0-1.56.71-1.89 7.68-3.49 7.65-5.6 7.59-9.43-.03-1.7-.06-3.77.58-6.24-9.02-5.15-12.41-1.62-12.51-1.52-.5.6-1.38.68-1.99.19-.61-.49-.71-1.39-.21-2.01.19-.24 4.67-5.53 15.78.66 3.24-5.03 12.77-4.73 19.16-3.88 1.05-2.2 1.66-4.66 1.67-7.26a16.9 16.9 0 0 0-3.96-10.98c-.21.19-.47.32-.77.36-.39.05-2.07.26-4.18.25-2.96-.01-6.75-.45-8.99-2.31-.5-.42-.9-.9-1.21-1.43-4.23 3.25-8.1 3.9-10.56 3.89-1.59 0-2.59-.29-2.7-.33a1.427 1.427 0 0 1 .83-2.73c.05.02 5.45 1.55 11.77-3.98.31-4.17.1-10.85-1.77-12.67-.31-.3-.62-.41-1.04-.36-.78.09-1.49-.47-1.58-1.26-.09-.78.47-1.49 1.26-1.58 1.27-.14 2.44.26 3.36 1.16 3.46 3.39 2.73 13.76 2.58 15.42.05.69.34 1.22.89 1.68 2.44 2.03 8.74 1.72 10.96 1.43.26-.03.51 0 .73.1.67-1.82 1.05-3.78 1.06-5.83.04-8.3-5.87-15.23-13.72-16.77.12-.8.19-1.62.19-2.46.04-9.4-7.54-17.05-16.94-17.09-.92 0-1.83.07-2.71.21.08.31.13.67.11 1.09-.07 2.03-1.53 4.42-4.33 7.14.83.5 1.52 1.2 2.02 2.08 2.82 5.02-.81 14.64-1.23 15.72-.22.56-.76.91-1.33.91-.17 0-.34-.03-.51-.1-.73-.29-1.1-1.11-.81-1.85 1.01-2.59 3.24-10.03 1.4-13.28-.46-.82-1.14-1.28-2.14-1.45-.61-.11-1.06-.59-1.16-1.17-2.74-.76-9.3-2.06-13.28 1.42-.27.24-.61.35-.94.35-.4 0-.79-.17-1.07-.49-.52-.59-.46-1.49.13-2.01 5.41-4.73 13.87-2.66 16.57-1.83 3.72-3.48 4-5.43 3.78-5.89-.46-.56-.42-1.4.11-1.92.06-.05.12-.1.18-.14-2.12-6.93-8.55-11.99-16.19-12.03-5.38-.02-10.18 2.45-13.32 6.33l-.4.51c-2.1 2.82-3.36 6.31-3.38 10.09-.02 3.79-.38 8.03-.05 11.92l.03 7.82c5.62 1.44 13.09 4.39 18.35 10.36 6.4-4.69 18.78 3.48 19.34 3.85.66.44.83 1.32.39 1.98-.28.41-.73.64-1.19.63-.27 0-.54-.08-.79-.24-.76-.51-1.82-1.15-3.05-1.8l-13.06-2.08c-.18.14-.35.29-.51.46-1.11 3.44-3.07 12.3-.17 16.45.45.65.29 1.54-.35 1.99-.25.18-.54.26-.82.26-.45 0-.89-.21-1.16-.61-3.85-5.5-1.2-15.65-.34-18.53-4.54-5.43-11.29-8.27-16.58-9.73v-1.2l-25.55-.11.1-22.32c0-1.81-1.46-3.29-3.27-3.3l-39.17-.17v.99c-1.1-9.11-8.85-16.22-18.26-16.26-10.19-.05-18.51 8.21-18.56 18.39-.05 10.19 8.21 18.51 18.39 18.56 9.41.04 17.22-7 18.4-16.1v.99l35.88.16-.1 22.32c0 1.81 1.46 3.29 3.27 3.3l28.84.13v-1.11l.11 25.67-49.33-.22.05-11.78c0-1.81-1.46-3.29-3.27-3.3l-70.32-.31c-1.52-8.63-9.04-15.23-18.11-15.27-10.19-.05-18.51 8.21-18.56 18.39s8.21 18.51 18.39 18.56c9.07.04 16.65-6.49 18.24-15.11l67.04.3-.05 11.78c0 1.81 1.46 3.29 3.27 3.3l52.66.24v-1.72l.02 4c.24 0 .49.05.72.18 1.98 1.14 18.71 11.01 18.6 19.96 9.98 6.08 5.37 23.22 5.16 23.97a1.44 1.44 0 0 1-1.38 1.05c-.12 0-.25-.02-.37-.05-.76-.21-1.2-1-1-1.75.04-.16 4.23-15.78-3.91-20.78-1.53.97-5.36 4.14-4.42 11 .11.78-.44 1.5-1.22 1.61-.07 0-.14.01-.2.01-.7 0-1.31-.52-1.41-1.23-1.18-8.55 3.91-12.64 5.9-13.89.08-5.84-11.15-13.82-16.46-16.99l.08 19.2-184.92-.83c-1.52-8.63-9.04-15.23-18.11-15.27-10.19-.05-18.51 8.21-18.56 18.39-.05 10.19 8.21 18.51 18.39 18.56 9.07.04 16.65-6.49 18.24-15.11l184.98.83.1 23.07c4.16.42 9.54 1.54 11.73 4.52 11.07-.84 17.42 7.5 17.69 7.86.47.63.34 1.53-.29 2a1.435 1.435 0 0 1-2-.29c-.06-.08-5.73-7.53-15.38-6.71-.95 1.41-3.48 5.9-1.92 11.81a1.422 1.422 0 0 1-1.38 1.79c-.63 0-1.2-.42-1.37-1.06-1.79-6.74.9-11.96 2.19-13.94-1.49-1.73-5.39-2.69-9.22-3.11v-.29l-52.66-.24c-1.81 0-3.29 1.46-3.3 3.27l-.05 11.78-67.04-.3c-1.52-8.63-9.04-15.23-18.11-15.27-10.19-.05-18.51 8.21-18.56 18.39-.05 10.19 8.21 18.51 18.39 18.56 9.07.04 16.65-6.49 18.24-15.11l70.32.31c1.81 0 3.29-1.46 3.3-3.27l.05-11.78 49.37.22v-1.62l.12 26.18-28.78-.13c-1.81 0-3.29 1.46-3.3 3.27l-.1 22.32-35.88-.16v.99c-1.1-9.11-8.85-16.22-18.26-16.26-10.19-.05-18.51 8.21-18.56 18.39s8.21 18.51 18.39 18.56c9.41.04 17.22-7 18.4-16.1v.99l39.16.17c1.81 0 3.29-1.46 3.3-3.27l.1-22.32 25.55.11.05 12.25c-.74 3.01-.31 5.09-.32 8.2-.04 9.4 7.54 17.05 16.94 17.09 1.56 0 3.08-.2 4.52-.59 1.44.4 2.95.62 4.51.63 7.32.03 13.57-4.56 16-11.04-1.89.52-5.55 1.37-9.42 1.36-3.8-.02-7.8-.87-10.49-3.7-1.79 1.72-3.82 2.75-6.07 3.07-.52.07-1.02.1-1.52.1-4.35-.02-7.76-2.62-7.92-2.75-.62-.48-.73-1.37-.25-2a1.43 1.43 0 0 1 2-.26c.03.03 3.47 2.62 7.31 2.07 2.23-.32 4.22-1.65 5.91-3.97.03-.03.06-.06.08-.09.14-2.5-.44-7.08-5.25-11.72-.57-.55-.58-1.45-.04-2.02.55-.57 1.45-.58 2.02-.04 6.89 6.65 6.35 13.41 5.89 15.74 5.3 5.33 17.94 1.16 18.12 1.1.15-.05.31-.07.46-.07h.22c8.59.04 15.71-6.3 16.91-14.56 6.72-2.25 11.58-8.57 11.62-16.06 0-.93-.07-1.84-.21-2.72-1.72.71-6 2.18-11.8 2.16-4.7-.02-10.4-1.04-16.54-4.25-2.12 3.81-5.94 6.25-11.24 7.11-1.62.26-3.19.35-4.55.34-2.66-.01-4.57-.36-4.69-.39-.77-.15-1.28-.89-1.14-1.66.14-.77.89-1.28 1.66-1.14.04 0 4.03.73 8.33.02 5.46-.9 8.86-3.63 10.13-8.09 3.15-11.13-4.87-17.96-5.22-18.25-.61-.5-.69-1.4-.19-2.01.5-.61 1.4-.7 2.01-.2.4.33 9.82 8.26 6.16 21.23-.04.14-.09.27-.13.4 14.49 7.69 26.63 1.87 26.75 1.81.35-.17.74-.19 1.09-.07 4.96-2.95 8.29-8.35 8.32-14.54.03-6.84-3.98-12.75-9.79-15.48ZM155.64 86.48c-6.56-.03-11.88-5.39-11.85-11.96.03-6.56 5.39-11.88 11.96-11.85s11.88 5.39 11.85 11.96c-.03 6.56-5.39 11.88-11.96 11.85Zm-54.75 41.43c-6.56-.03-11.88-5.39-11.85-11.96s5.39-11.88 11.96-11.85c6.56.03 11.88 5.39 11.85 11.96s-5.39 11.88-11.96 11.85Zm-61.92 45.92c-6.56-.03-11.88-5.39-11.85-11.96s5.39-11.88 11.96-11.85 11.88 5.39 11.85 11.96c-.03 6.56-5.39 11.88-11.96 11.85Zm62.05 47.57c-6.56-.03-11.88-5.39-11.85-11.96s5.39-11.88 11.96-11.85c6.56.03 11.88 5.39 11.85 11.96-.03 6.56-5.39 11.88-11.96 11.85Zm54.92 41.92c-6.56-.03-11.88-5.39-11.85-11.96.03-6.56 5.39-11.88 11.96-11.85 6.56.03 11.88 5.39 11.85 11.96-.03 6.56-5.39 11.88-11.96 11.85Z" fill="#8ce0c4"/>
</svg>
