<?xml version="1.0" encoding="utf-8"?>
<!-- Generator: Adobe Illustrator 26.3.1, SVG Export Plug-In . SVG Version: 6.00 Build 0)  -->
<svg version="1.1" id="Layer_1" xmlns="http://www.w3.org/2000/svg" xmlns:xlink="http://www.w3.org/1999/xlink" x="0px" y="0px"
	 viewBox="0 0 29.7 13.6" style="enable-background:new 0 0 29.7 13.6;" xml:space="preserve">
<style type="text/css">
	.st0{fill:#31335D;}
</style>
<path class="st0" d="M0,0v13.6h29.7V0H0z M5.7,11.1c-1.2,0-2.2-0.4-3.1-1.3L2.5,9.7l1.1-1.1l0.1,0.1c0.7,0.7,1.2,0.9,2,0.9
	C6.4,9.6,7,9.3,7,8.5c0-0.7-0.8-0.9-1.6-1.2C4.4,6.9,3.2,6.4,3.2,4.9c0-1.6,1.3-2.3,2.7-2.3c1,0,1.8,0.3,2.7,0.9l0.1,0.1l-1,1.2
	L7.5,4.7C7.1,4.4,6.5,4,5.9,4C5.4,4,4.8,4.2,4.8,4.8c0,0.5,0.7,0.8,1.3,1l0.1,0c1,0.3,2.6,0.9,2.6,2.7S7.2,11.1,5.7,11.1z M15.9,4.1
	h-3.6V6h3.6v1.5h-3.6v2h3.6v1.5h-5.2V2.7h5.2V4.1L15.9,4.1z M27,10.9h-1.7V5.2L23,10.9h-1.2l-2.3-5.7v5.7h-1.7V2.7h2.4l0,0.1
	l2.1,5.6l2.2-5.6h2.3L27,10.9L27,10.9z"/>
</svg>
