<?xml version="1.0" encoding="UTF-8"?>
<svg id="uuid-b38f6e79-340b-4290-ae46-192d0483b53c" data-name="Layer 1" xmlns="http://www.w3.org/2000/svg" viewBox="0 0 39.01 13.74">
  <path d="M6.27,4.21h-.89v2.06h.66c.55,0,1.48-.13,1.48-1,0-.63-.5-1.05-1.26-1.05Z" fill="#31335d"/>
  <path d="M-.02,0V13.74H38.98V0H-.02ZM7.97,10.99l-.04-.05-2.25-3.21h-.31v3.26h-1.67V2.75h2.59c1.43,0,2.97,.77,2.97,2.48,0,1.5-1.11,2.09-1.75,2.3l2.52,3.46h-2.07Zm5.17,0h-1.67V2.75h1.67V10.99Zm4.92,.14c-1.21,0-2.16-.41-3.08-1.31l-.09-.09,1.14-1.1,.09,.08c.73,.71,1.22,.95,1.96,.95,.62,0,1.29-.28,1.29-1.05,0-.67-.75-.94-1.55-1.23-1.11-.4-2.29-.95-2.29-2.42,0-1.62,1.33-2.35,2.65-2.35,.98,0,1.82,.29,2.65,.92l.1,.08-1,1.22-.1-.09c-.34-.3-.96-.65-1.58-.65-.49,0-1.06,.21-1.06,.81,0,.52,.69,.76,1.29,.96l.05,.02c1.03,.35,2.58,.88,2.58,2.65s-1.58,2.6-3.05,2.6Zm9.53-.14l-2.06-3.63-.88,1.08v2.56h-1.67V2.61h1.67v3.44l2.77-3.44h2.05l-2.81,3.39,2.85,4.99h-1.92Zm5.61,.14c-1.21,0-2.16-.41-3.08-1.31l-.09-.09,1.14-1.1,.09,.08c.73,.71,1.22,.95,1.96,.95,.62,0,1.29-.28,1.29-1.05,0-.67-.75-.94-1.55-1.23-1.11-.4-2.29-.95-2.29-2.42,0-1.62,1.33-2.35,2.65-2.35,.98,0,1.82,.29,2.65,.92l.1,.08-1,1.22-.1-.09c-.34-.3-.96-.65-1.58-.65-.49,0-1.06,.21-1.06,.81,0,.52,.69,.76,1.29,.96l.05,.02c1.03,.35,2.58,.88,2.58,2.65s-1.58,2.6-3.05,2.6Z" fill="#31335d"/>
</svg>