<?xml version="1.0" encoding="utf-8"?>
<!-- Generator: Adobe Illustrator 26.3.1, SVG Export Plug-In . SVG Version: 6.00 Build 0)  -->
<svg version="1.1" id="Layer_1" xmlns="http://www.w3.org/2000/svg" xmlns:xlink="http://www.w3.org/1999/xlink" x="0px" y="0px"
	 viewBox="0 0 38.9 13.6" style="enable-background:new 0 0 38.9 13.6;" xml:space="preserve">
<style type="text/css">
	.st0{fill:#31335D;}
</style>
<g>
	<path class="st0" d="M17.2,4.2h-0.9v2.2H17c1,0,1.6-0.4,1.6-1.1S18,4.2,17.2,4.2L17.2,4.2z"/>
	<path class="st0" d="M0,0v13.6h39V0H0z M4.8,10.9H3.1V2.7h1.7V10.9z M9.7,11.1c-1.2,0-2.2-0.4-3.1-1.3L6.5,9.7l1.1-1.1l0.1,0.1
		c0.7,0.7,1.2,0.9,2,0.9c0.6,0,1.3-0.3,1.3-1.1c0-0.7-0.8-0.9-1.6-1.2C8.3,6.9,7.2,6.4,7.2,4.9c0-1.6,1.3-2.3,2.6-2.3
		c1,0,1.8,0.3,2.6,0.9l0.1,0.1l-1,1.2l-0.1-0.1C11.1,4.4,10.5,4,9.9,4C9.4,4,8.8,4.2,8.8,4.8c0,0.5,0.7,0.8,1.3,1l0,0
		c1,0.3,2.6,0.9,2.6,2.7S11.2,11.1,9.7,11.1z M17.2,7.8h-0.9v3.1h-1.7V2.7h2.6c1.5,0,3,0.8,3,2.6C20.3,7.2,18.6,7.8,17.2,7.8
		L17.2,7.8z M26.2,10.9l-0.6-1.6h-2.9l-0.6,1.6h-1.8l3.3-8.2h1.4l0,0.1l3.1,8.2H26.2L26.2,10.9z M33.8,10.9l-2.3-3.3h-0.3v3.3h-1.7
		V2.7h2.6c1.4,0,3,0.8,3,2.5c0,1.5-1.1,2.1-1.8,2.3l2.5,3.5H33.8z"/>
	<path class="st0" d="M23.2,7.9h1.9l-0.9-2.6L23.2,7.9z M32.1,4.2h-0.9v2.1h0.7c0.5,0,1.5-0.1,1.5-1C33.4,4.6,32.9,4.2,32.1,4.2
		L32.1,4.2z"/>
</g>
</svg>
