<?xml version="1.0" encoding="UTF-8"?>
<svg id="uuid-d603ebee-c795-4295-85a3-5833eff410be" data-name="Layer 1" xmlns="http://www.w3.org/2000/svg" viewBox="0 0 27.35 13.74">
  <path d="M.03,0V13.74H27.39V0H.03ZM10.39,10.27c-.79,.56-1.69,.86-2.62,.86-2.53,0-4.36-1.79-4.36-4.26S5.34,2.61,7.81,2.61c.82,0,1.6,.24,2.39,.73l.11,.07-.81,1.32-.11-.08c-.49-.35-1.04-.54-1.58-.54-1.51,0-2.65,1.19-2.65,2.76,0,1.68,1.04,2.76,2.65,2.76,.58,0,1.15-.2,1.65-.59l.1-.08,.94,1.23-.11,.08Zm4.3,.86c-1.21,0-2.16-.41-3.08-1.31l-.09-.09,1.14-1.1,.09,.08c.73,.71,1.23,.95,1.96,.95,.62,0,1.29-.28,1.29-1.05,0-.67-.75-.94-1.55-1.22-1.12-.4-2.3-.95-2.3-2.42,0-1.62,1.33-2.35,2.65-2.35,.98,0,1.82,.29,2.65,.92l.1,.08-1,1.22-.1-.09c-.34-.3-.96-.65-1.58-.65-.49,0-1.06,.21-1.06,.81,0,.52,.69,.76,1.3,.96l.04,.02c1.03,.35,2.58,.88,2.58,2.65s-1.58,2.6-3.05,2.6Zm9.7-6.92h-1.94v6.78h-1.67V4.21h-1.94v-1.46h5.55v1.46Z" fill="#31335d"/>
</svg>