<?xml version="1.0" encoding="utf-8"?>
<!-- Generator: Adobe Illustrator 26.3.1, SVG Export Plug-In . SVG Version: 6.00 Build 0)  -->
<svg version="1.1" id="uuid-7b33ff09-dd6b-4f33-bc59-89ab0a59f136"
	 xmlns="http://www.w3.org/2000/svg" xmlns:xlink="http://www.w3.org/1999/xlink" x="0px" y="0px" viewBox="0 0 48 13.6"
	 style="enable-background:new 0 0 48 13.6;" xml:space="preserve">
<style type="text/css">
	.st0{fill:#31335D;}
</style>
<g>
	<polygon class="st0" points="33.2,7.9 35.1,7.9 34.2,5.3 	"/>
	<path class="st0" d="M5.7,4.2H4.8v2.1l0,0h0.7C6,6.2,7,6.1,7,5.2C7,4.6,6.5,4.2,5.7,4.2z"/>
	<path class="st0" d="M0,0v13.6h48V0H0z M9.5,10.9L9.5,10.9H7.4v-0.1L5.1,7.7H4.8V11H3.1V2.7h2.6c1.4,0,3,0.8,3,2.5
		c0,1.5-1.1,2.1-1.8,2.3L9.5,10.9L9.5,10.9L9.5,10.9z M12.6,10.9h-1.7V2.7h1.7V10.9z M21.5,10.2c-0.8,0.6-1.7,0.9-2.6,0.9l0,0l0,0
		l0,0c-2.5,0-4.4-1.8-4.4-4.3s1.9-4.3,4.4-4.3c0.8,0,1.6,0.2,2.4,0.7l0.1,0.1l-0.8,1.3l-0.1-0.1C20,4.2,19.5,4,18.9,4
		c-1.5,0-2.6,1.2-2.6,2.8c0,1.7,1,2.8,2.6,2.8c0.6,0,1.2-0.2,1.7-0.6l0.1-0.1l0.9,1.2L21.5,10.2z M29.3,10.2
		c-0.8,0.6-1.7,0.9-2.6,0.9l0,0l0,0l0,0c-2.5,0-4.4-1.8-4.4-4.3s1.9-4.3,4.4-4.3c0.8,0,1.6,0.2,2.4,0.7l0.1,0.1l-0.8,1.3l-0.1-0.1
		c-0.5-0.3-1-0.5-1.6-0.5c-1.5,0-2.6,1.2-2.6,2.8c0,1.7,1,2.8,2.6,2.8c0.6,0,1.2-0.2,1.7-0.6l0.1-0.1l0.9,1.2L29.3,10.2z M36.2,10.9
		l-0.6-1.6h-2.9l-0.6,1.6h-1.8l3.3-8.2h1.3v0.1L38,11h-1.8V10.9z M45.9,10.9L45.9,10.9h-2.1v-0.1l-2.2-3.2h-0.3v3.3h-1.7V2.7h2.6
		c1.4,0,3,0.8,3,2.5c0,1.5-1.1,2.1-1.8,2.3L45.9,10.9L45.9,10.9L45.9,10.9z"/>
	<path class="st0" d="M42.1,4.2h-0.9v2.1l0,0h0.7c0.5,0,1.5-0.1,1.5-1C43.4,4.6,42.9,4.2,42.1,4.2z"/>
</g>
</svg>
