<?xml version="1.0" encoding="utf-8"?>
<!-- Generator: Adobe Illustrator 26.3.1, SVG Export Plug-In . SVG Version: 6.00 Build 0)  -->
<svg version="1.1" id="Layer_1" xmlns="http://www.w3.org/2000/svg" xmlns:xlink="http://www.w3.org/1999/xlink" x="0px" y="0px"
	 viewBox="0 0 27.3 13.8" style="enable-background:new 0 0 27.3 13.8;" xml:space="preserve">
<style type="text/css">
	.st0{fill:#31335D;}
</style>
<g>
	<path class="st0" d="M19.4,8h1.9l-0.9-2.6L19.4,8z M5.8,8h1.9L6.7,5.4C6.7,5.4,5.8,8,5.8,8z"/>
	<path class="st0" d="M0,0v13.8h27.4V0H0z M8.7,11L8.2,9.4H5.3L4.7,11H2.9l3.3-8.2h1.4l0,0.1l3.1,8.2H8.7z M16.3,4.2h-1.9V11h-1.7
		V4.2h-1.9V2.7h5.5C16.3,2.7,16.3,4.2,16.3,4.2z M22.4,11l-0.6-1.6h-2.9L18.3,11h-1.8l3.3-8.2h1.4l0,0.1l3.1,8.2
		C24.3,11,22.4,11,22.4,11z"/>
</g>
</svg>
