<?xml version="1.0" encoding="utf-8"?>
<!-- Generator: Adobe Illustrator 26.3.1, SVG Export Plug-In . SVG Version: 6.00 Build 0)  -->
<svg version="1.1" id="uuid-10e30ef3-5c0f-4caf-9adb-7928c4127cda"
	 xmlns="http://www.w3.org/2000/svg" xmlns:xlink="http://www.w3.org/1999/xlink" x="0px" y="0px" viewBox="0 0 26.1 13.6"
	 style="enable-background:new 0 0 26.1 13.6;" xml:space="preserve">
<style type="text/css">
	.st0{fill:#31335D;}
</style>
<path class="st0" d="M0,0v13.6h26.1V0H0z M8.1,10.9L7.6,9.3H4.7l-0.6,1.6H2.3l3.3-8.2h1.3l0,0.1l3.1,8.2L8.1,10.9L8.1,10.9z
	 M16.5,10.9h-5V2.7h1.7v6.8h3.4L16.5,10.9L16.5,10.9z M20.5,7.8h-0.9v3.1h-1.7V2.7h2.6c1.5,0,3,0.8,3,2.6
	C23.6,7.2,21.9,7.8,20.5,7.8L20.5,7.8z"/>
<polygon class="st0" points="5.2,7.9 7.1,7.9 6.1,5.3 "/>
<path class="st0" d="M21.8,5.3c0-0.7-0.5-1.1-1.3-1.1h-0.9v2.2h0.7C21.3,6.4,21.8,6,21.8,5.3L21.8,5.3z"/>
</svg>
