<?xml version="1.0" encoding="UTF-8"?>
<svg id="uuid-b89b8967-97e0-40ea-af19-98a0a70939aa" data-name="uuid-49a5a540-c96f-4862-a026-e457a35adf72" xmlns="http://www.w3.org/2000/svg" viewBox="0 0 30.27 13.51">
  <path d="M30.32,.02H.04V13.62H30.32V.02ZM8.42,4.16h-3.58v1.81h3.57v1.46h-3.57v2.04h3.57v1.46H3.18V2.7h5.24v1.46Zm6.61,6.78h0l-2.06-3.58-.88,1.06v2.51h-1.66V2.7h1.66v3.38l2.77-3.38h2.05l-2.81,3.33,2.85,4.91h-1.92Zm12.31-.01h-1.67V5.24l-2.31,5.69h-1.17l-2.26-5.7v5.7h-1.66V2.7h2.34l.03,.08,2.15,5.56,2.23-5.64h2.32V10.93Z" fill="#31335d"/>
</svg>