<?xml version="1.0" encoding="utf-8"?>
<!-- Generator: Adobe Illustrator 26.3.1, SVG Export Plug-In . SVG Version: 6.00 Build 0)  -->
<svg version="1.1" id="Layer_1" xmlns="http://www.w3.org/2000/svg" xmlns:xlink="http://www.w3.org/1999/xlink" x="0px" y="0px"
	 viewBox="0 0 26.9 13.7" style="enable-background:new 0 0 26.9 13.7;" xml:space="preserve">
<style type="text/css">
	.st0{fill:#31335D;}
</style>
<g>
	<path class="st0" d="M20.6,4.1h-0.9v2.2h0.7c1,0,1.6-0.4,1.6-1.1S21.4,4.2,20.6,4.1L20.6,4.1z"/>
	<path class="st0" d="M0-0.1v13.8h27V-0.1H0z M8.4,4.1H6.5v6.8H4.8V4.1H2.9V2.7h5.6C8.4,2.7,8.4,4.1,8.4,4.1z M16.3,10.2
		c-0.8,0.6-1.7,0.9-2.6,0.9c-2.5,0-4.4-1.8-4.4-4.3s1.9-4.3,4.4-4.3c0.8,0,1.6,0.2,2.4,0.7l0.1,0.1l-0.8,1.3l-0.1-0.1
		c-0.5-0.4-1-0.5-1.6-0.5c-1.5,0-2.6,1.2-2.6,2.8c0,1.7,1,2.8,2.6,2.8c0.6,0,1.1-0.2,1.6-0.6l0.1-0.1l0.9,1.2L16.3,10.2L16.3,10.2z
		 M20.6,7.8h-0.9v3.1H18V2.7h2.6c1.5,0,3,0.8,3,2.6C23.7,7.2,22,7.8,20.6,7.8L20.6,7.8z"/>
</g>
</svg>
