<?xml version="1.0" encoding="utf-8"?>
<!-- Generator: Adobe Illustrator 26.3.1, SVG Export Plug-In . SVG Version: 6.00 Build 0)  -->
<svg version="1.1" id="uuid-d34828ad-c57e-4de7-a006-395f238a0c21"
	 xmlns="http://www.w3.org/2000/svg" xmlns:xlink="http://www.w3.org/1999/xlink" x="0px" y="0px" viewBox="0 0 27 13.6"
	 style="enable-background:new 0 0 27 13.6;" xml:space="preserve">
<style type="text/css">
	.st0{fill:#31335D;}
</style>
<polygon class="st0" points="5.2,7.9 7.1,7.9 6.1,5.3 "/>
<path class="st0" d="M0,0v13.6h27V0H0z M8.1,10.9L7.6,9.3H4.7l-0.6,1.6H2.3l3.3-8.2h1.3l0,0.1l3.1,8.2H8.1z M15.7,4.1h-1.9v6.8h-1.7
	V4.1h-1.9V2.7h5.6C15.7,2.7,15.7,4.1,15.7,4.1z M24.6,9.4L24.6,9.4c-0.8,1.1-2.1,1.7-3.5,1.7c-2.5,0-4.4-1.8-4.4-4.3
	s1.9-4.3,4.4-4.3c1.3,0,2.5,0.5,3.4,1.6l0.1,0.1l-1.2,1l-0.1-0.1C22.6,4.4,21.8,4,21,4c-1.5,0-2.6,1.2-2.6,2.8
	c0,1.7,1.1,2.8,2.6,2.8c0.7,0,1.4-0.3,1.9-0.7V7.6h-2V6.1h3.6C24.6,6.1,24.6,9.4,24.6,9.4z"/>
</svg>
