<?xml version="1.0" encoding="utf-8"?>
<!-- Generator: Adobe Illustrator 26.3.1, SVG Export Plug-In . SVG Version: 6.00 Build 0)  -->
<svg version="1.1" id="Layer_1" xmlns="http://www.w3.org/2000/svg" xmlns:xlink="http://www.w3.org/1999/xlink" x="0px" y="0px"
	 viewBox="0 0 36.9 13.6" style="enable-background:new 0 0 36.9 13.6;" xml:space="preserve">
<style type="text/css">
	.st0{fill:#31335D;}
</style>
<g>
	<path class="st0" d="M17.1,4.2h-0.9v2.2h0.7c1,0,1.6-0.4,1.6-1.1S17.9,4.2,17.1,4.2L17.1,4.2z M23.1,7.9H25l-0.9-2.6L23.1,7.9z"/>
	<path class="st0" d="M0,0v13.6h36.9V0H0z M12.2,10.9h-1.7V5.2l-2.3,5.7H7.1L4.8,5.2v5.7H3.1V2.7h2.3l0,0.1l2.2,5.6l2.2-5.6h2.3
		C12.2,2.7,12.2,10.9,12.2,10.9z M17.1,7.8h-0.9v3.1h-1.7V2.7h2.6c1.5,0,3,0.8,3,2.6C20.2,7.2,18.5,7.8,17.1,7.8L17.1,7.8z
		 M26.1,10.9l-0.6-1.6h-2.9L22,10.9h-1.8l3.3-8.2h1.4l0,0.1l3.1,8.2H26.1L26.1,10.9z M33.7,4.2h-1.9v6.8h-1.7V4.2h-1.9V2.7h5.5V4.2z
		"/>
</g>
</svg>
