<?xml version="1.0" encoding="utf-8"?>
<!-- Generator: Adobe Illustrator 26.3.1, SVG Export Plug-In . SVG Version: 6.00 Build 0)  -->
<svg version="1.1" id="Layer_1" xmlns="http://www.w3.org/2000/svg" xmlns:xlink="http://www.w3.org/1999/xlink" x="0px" y="0px"
	 viewBox="0 0 30.6 13.6" style="enable-background:new 0 0 30.6 13.6;" xml:space="preserve">
<style type="text/css">
	.st0{fill:#31335D;}
</style>
<g>
	<path class="st0" d="M0,0v13.6h30.6V0H0z M8.1,10.9h-5V2.7h1.7v6.8h3.4L8.1,10.9L8.1,10.9z M12.1,7.8h-0.9v3.1H9.5V2.7h2.6
		c1.5,0,3,0.8,3,2.6C15.2,7.2,13.5,7.8,12.1,7.8L12.1,7.8z M21.6,4.2h-1.9v6.8H18V4.2H16V2.7h5.5C21.6,2.7,21.6,4.2,21.6,4.2z
		 M27.6,4.2h-2.9v2h2.9v1.5h-2.9v3.3h-1.7V2.7h4.5V4.2z"/>
	<path class="st0" d="M12.1,4.2h-0.9v2.2h0.7c1,0,1.6-0.4,1.6-1.1S12.9,4.2,12.1,4.2L12.1,4.2z"/>
</g>
</svg>
