<?xml version="1.0" encoding="utf-8"?>
<!-- Generator: Adobe Illustrator 26.3.1, SVG Export Plug-In . SVG Version: 6.00 Build 0)  -->
<svg version="1.1" id="uuid-bcfd1221-d03f-4b41-b130-d54b725f6cc7"
	 xmlns="http://www.w3.org/2000/svg" xmlns:xlink="http://www.w3.org/1999/xlink" x="0px" y="0px" viewBox="0 0 24.9 13.6"
	 style="enable-background:new 0 0 24.9 13.6;" xml:space="preserve">
<style type="text/css">
	.st0{fill:#31335D;}
</style>
<path class="st0" d="M20.9,6.9c0-1.8-1-2.7-2.9-2.7h-0.5v5.3h0.1C19.8,9.5,20.9,8.6,20.9,6.9z"/>
<path class="st0" d="M0,0v13.6h24.9V0H0z M7.6,4.2H4.8v2h2.8v1.5H4.8v3.3H3.1V2.7h4.5V4.2L7.6,4.2z M14,4.2h-2.9v2H14v1.5h-2.9v3.3
	H9.5V2.7H14V4.2L14,4.2z M18.1,10.9h-2.3V2.7h2.4c2.1,0,4.5,1.1,4.5,4.1S20.3,10.9,18.1,10.9L18.1,10.9z"/>
</svg>
