<?xml version="1.0" encoding="utf-8"?>
<!-- Generator: Adobe Illustrator 26.3.1, SVG Export Plug-In . SVG Version: 6.00 Build 0)  -->
<svg version="1.1" id="uuid-70d145bd-5d44-4305-93b1-b1f2c67727df"
	 xmlns="http://www.w3.org/2000/svg" xmlns:xlink="http://www.w3.org/1999/xlink" x="0px" y="0px" viewBox="0 0 45.5 13.5"
	 style="enable-background:new 0 0 45.5 13.5;" xml:space="preserve">
<style type="text/css">
	.st0{fill:#31335D;}
</style>
<path class="st0" d="M0,0v13.6h45.6V0H0z M5.7,11c-1.2,0-2.2-0.4-3.1-1.3L2.5,9.6l1.1-1.1l0.1,0.1c0.7,0.7,1.2,0.9,2,0.9
	C6.3,9.5,7,9.2,7,8.4c0-0.7-0.8-0.9-1.6-1.2c-1-0.3-2.2-0.9-2.2-2.3c0-1.6,1.3-2.3,2.7-2.3c1,0,1.8,0.3,2.6,0.9l0.1,0.1l-1,1.2
	L7.5,4.6C7.1,4.3,6.5,4,5.9,4C5.4,4,4.8,4.2,4.8,4.8c0,0.5,0.7,0.8,1.3,1h0.1c1,0.3,2.6,0.9,2.6,2.7S7.2,11,5.7,11z M12.3,10.9h-1.7
	V2.7h1.7V10.9z M23.7,10.9H22V5.2l-2.3,5.7h-1.2l-2.2-5.7v5.7h-1.7V2.7h2.3v0.1L19,8.4l2.2-5.6h2.3v8.1H23.7z M31,10.9l-0.6-1.6
	h-2.9l-0.6,1.6h-1.8l3.3-8.2h1.4v0.1l3.1,8.2C32.9,10.9,31,10.9,31,10.9z M39.7,4.1h-3.6v1.8h3.6v1.5h-3.6v2h3.6v1.5h-5.2V2.7h5.2
	V4.1L39.7,4.1z M43.3,10.9h-1.7V2.7h1.7V10.9z"/>
<polygon class="st0" points="28.1,7.9 30,7.9 29,5.3 "/>
</svg>
