<?xml version="1.0" encoding="utf-8"?>
<!-- Generator: Adobe Illustrator 26.3.1, SVG Export Plug-In . SVG Version: 6.00 Build 0)  -->
<svg version="1.1" id="Layer_1" xmlns="http://www.w3.org/2000/svg" xmlns:xlink="http://www.w3.org/1999/xlink" x="0px" y="0px"
	 viewBox="0 0 30.3 13.6" style="enable-background:new 0 0 30.3 13.6;" xml:space="preserve">
<style type="text/css">
	.st0{fill:#31335D;}
</style>
<g>
	<path class="st0" d="M16.6,7.9h1.9l-0.9-2.6L16.6,7.9z"/>
	<path class="st0" d="M0,0v13.6h30.3V0H0z M12.2,10.9h-1.7V5.2l-2.3,5.7H7.1L4.8,5.2v5.7H3.1V2.7h2.3l0,0.1l2.2,5.6l2.2-5.6h2.3
		C12.2,2.7,12.2,10.9,12.2,10.9z M19.6,10.9L19,9.4h-2.9l-0.6,1.6h-1.8L17,2.7h1.4l0,0.1l3.1,8.2C21.5,10.9,19.6,10.9,19.6,10.9z
		 M27.2,4.1h-1.9v6.8h-1.7V4.1h-1.9V2.7h5.5C27.2,2.7,27.2,4.2,27.2,4.1z"/>
</g>
</svg>
