<svg xmlns="http://www.w3.org/2000/svg" viewBox="0 0 40.85 38.64">
  <path d="M12.61 7.05c.16.11.33.2.5.28.35.15.75.24 1.15.24s.8-.09 1.15-.24c.18-.08.35-.17.5-.28.24-.16.45-.36.63-.59.42-.53.68-1.2.68-1.94 0-.11 0-.21-.02-.31a3.088 3.088 0 0 0-.66-1.63c-.18-.23-.39-.43-.63-.59-.16-.11-.33-.2-.5-.28-.35-.15-.75-.24-1.15-.24s-.8.09-1.15.24c-.18.08-.35.17-.5.28-.24.16-.45.36-.63.59-.12.15-.23.31-.32.49-.18.35-.3.73-.34 1.14a3.052 3.052 0 0 0 .66 2.25c.18.23.39.43.63.59ZM11.06 14.32c0 .94-.28 1.81-.75 2.54a.3.3 0 0 1 .08.04c.58-.29 1.23-.45 1.91-.45.49 0 .97.08 1.41.24.37-1.48 1.3-2.77 2.62-3.52.13-.07.26-.14.39-.2-.47-.73-.75-1.6-.75-2.54 0-.62.12-1.22.34-1.76-.62.32-1.31.51-2.05.51-.88 0-1.69-.26-2.39-.7-.03-.02-.06-.03-.09-.05h-.03s-.04-.03-.06-.03h-.03s-.04-.02-.06-.02h-.13c-.04 0-.08 0-.12.01h-.02s-.08.03-.12.05c-.11.05-.22.1-.32.16-.8.45-1.38 1.16-1.72 1.99 1.14.83 1.89 2.2 1.89 3.74ZM24.93 7.05c.16.11.33.2.5.28.35.15.75.24 1.15.24s.8-.09 1.15-.24c.18-.08.35-.17.5-.28.24-.16.45-.36.63-.59.42-.53.68-1.2.68-1.94 0-.11 0-.21-.02-.31a3.088 3.088 0 0 0-.66-1.63c-.18-.23-.39-.43-.63-.59-.16-.11-.33-.2-.5-.28-.35-.15-.75-.24-1.15-.24s-.8.09-1.15.24c-.18.08-.35.17-.5.28-.24.16-.45.36-.63.59-.12.15-.23.31-.32.49-.18.35-.3.73-.34 1.14a3.052 3.052 0 0 0 .66 2.25c.18.23.39.43.63.59ZM29.49 8.38s-.08-.01-.12-.01h-.13s-.04.01-.06.02h-.03l-.06.03h-.03l-.09.06c-.69.44-1.51.7-2.39.7-.74 0-1.43-.18-2.05-.51.22.54.34 1.14.34 1.76 0 .94-.28 1.81-.75 2.54.13.06.26.13.39.2 1.33.74 2.25 2.04 2.62 3.52a4.272 4.272 0 0 1 3.3.2c-.41-.69-.65-1.51-.65-2.38 0-1.57.77-2.96 1.94-3.78-.32-.89-.93-1.66-1.77-2.14-.11-.06-.21-.11-.32-.16-.04-.02-.08-.03-.12-.04h-.02Z" fill="#b9c3cf"/>
  <ellipse cx="6.61" cy="14.32" rx="2.97" ry="3.05" fill="#b9c3cf"/>
  <path d="M8.21 23.77c.13-.07.26-.14.39-.2-.47-.73-.75-1.6-.75-2.54s.27-1.79.73-2.51c-.6.3-1.27.47-1.97.47-.88 0-1.69-.26-2.39-.7-.03-.02-.06-.03-.09-.05H4.1s-.04-.03-.06-.03h-.03s-.04-.02-.06-.02h-.13c-.04 0-.08 0-.12.01h-.02s-.08.03-.12.05l-.36.18c-1.53.88-2.28 2.73-1.91 4.49l.33 1.56c.9 2.29 2.74 4.63 3.6 5.66.13.15.36.03.32-.17-.52-2.48.58-5.03 2.68-6.2Z" fill="#b9c3cf"/>
  <ellipse cx="20.43" cy="10.44" rx="2.97" ry="3.05" fill="#6772e5"/>
  <path d="M25.71 17.06c-.11-.43-.28-.83-.5-1.2a3.86 3.86 0 0 0-1.72-1.51c-.04-.02-.08-.03-.12-.04h-.02s-.08-.02-.12-.02h-.13s-.04.01-.06.02H23l-.06.03h-.03l-.09.06c-.69.44-1.51.7-2.39.7s-1.69-.26-2.39-.7c-.03-.02-.06-.03-.09-.05h-.03s-.04-.03-.06-.03h-.03s-.04-.02-.06-.02h-.13c-.04 0-.08 0-.12.01h-.02s-.08.03-.12.05c-.11.05-.22.1-.32.16-1.09.61-1.78 1.72-1.98 2.94a4.596 4.596 0 0 1 1.64 4.15c.8-1.24 2.16-2.06 3.71-2.06s2.91.82 3.71 2.06c-.02-.19-.04-.38-.04-.57 0-1.45.66-2.74 1.68-3.58a2.7 2.7 0 0 0-.08-.39Z" fill="#6772e5"/>
  <ellipse cx="34.24" cy="14.51" rx="2.97" ry="3.05" fill="#b9c3cf"/>
  <path d="m39.07 25.49.5-2.36c.09-.45.12-.9.07-1.34-.02-.22-.06-.44-.11-.65-.11-.43-.28-.83-.5-1.2a3.86 3.86 0 0 0-1.72-1.51c-.04-.02-.08-.03-.12-.04h-.02s-.08-.02-.12-.02h-.13s-.04.01-.06.02h-.03l-.06.03h-.03l-.09.06a4.434 4.434 0 0 1-4.21.31 4.686 4.686 0 0 1-.18 4.78c.13.06.26.13.39.2 2.09 1.18 3.2 3.73 2.68 6.2l-.1.46c-.04.19.19.31.32.17 1.41-1.51 2.6-3.23 3.53-5.11Z" fill="#b9c3cf"/>
  <ellipse cx="12.3" cy="21.03" rx="2.97" ry="3.05" fill="#b9c3cf"/>
  <path d="M16.34 26.86c.13-.07.26-.14.39-.2-.24-.38-.43-.79-.56-1.23-.15-.12-.31-.23-.48-.32-.11-.06-.21-.11-.32-.16-.04-.02-.08-.03-.12-.04h-.02s-.08-.02-.12-.02h-.13s-.04.01-.06.02h-.04l-.06.03h-.03l-.09.06c-.69.44-1.51.7-2.39.7s-1.69-.26-2.39-.7c-.03-.02-.06-.03-.09-.05H9.8s-.04-.03-.06-.03h-.03s-.04-.02-.06-.02h-.13c-.04 0-.08 0-.12.01h-.02s-.08.03-.12.05l-.18.09c-1.64.84-2.47 2.76-2.08 4.6l.53 2.54.29.48c1.54 1.24 3.26 2.27 5.11 3.02.61.25 1.24-.29 1.1-.95l-.35-1.66c-.52-2.48.58-5.03 2.68-6.2Z" fill="#b9c3cf"/>
  <ellipse cx="28.55" cy="21.03" rx="2.97" ry="3.05" fill="#b9c3cf"/>
  <path d="M33.95 28.31c-.02-.22-.06-.44-.11-.65-.11-.43-.28-.83-.5-1.2a3.86 3.86 0 0 0-1.72-1.51c-.04-.02-.08-.03-.12-.04h-.02s-.08-.02-.12-.02h-.13s-.04.01-.06.02h-.03l-.06.03h-.03l-.09.06c-.69.44-1.51.7-2.39.7s-1.69-.26-2.39-.7c-.03-.02-.06-.03-.09-.05h-.03s-.04-.03-.06-.03h-.03s-.04-.02-.06-.02h-.13c-.04 0-.08 0-.12.01h-.02s-.08.03-.12.05c-.11.05-.22.1-.32.16-.17.1-.33.2-.48.32-.13.44-.32.86-.56 1.23.13.06.26.13.39.2 2.09 1.18 3.2 3.73 2.68 6.2l-.38 1.79c-.14.65.48 1.19 1.09.95 1.83-.71 3.53-1.68 5.07-2.87l.3-.49.59-2.79c.09-.45.12-.9.07-1.34Z" fill="#b9c3cf"/>
  <ellipse cx="20.43" cy="24.12" rx="2.97" ry="3.05" fill="#b9c3cf"/>
  <path d="M25.82 31.4c-.02-.22-.06-.44-.11-.65-.11-.43-.28-.83-.5-1.2a3.86 3.86 0 0 0-1.72-1.51c-.04-.02-.08-.03-.12-.04h-.02s-.08-.02-.12-.02h-.13s-.04.01-.06.02h-.03l-.06.03h-.03l-.09.06c-.69.44-1.51.7-2.39.7s-1.69-.26-2.39-.7c-.03-.02-.06-.03-.09-.05h-.03s-.04-.03-.06-.03h-.03s-.04-.02-.06-.02h-.13c-.04 0-.08 0-.12.01h-.02s-.08.03-.12.05l-.18.09c-1.64.84-2.47 2.76-2.08 4.6l.66 3.15c.1.47.46.84.93.93 1.26.25 2.56.37 3.89.37 1.21 0 2.4-.11 3.56-.31.47-.08.84-.46.94-.94l.67-3.18c.09-.45.12-.9.07-1.34Z" fill="#b9c3cf"/>
</svg>
