<svg xmlns="http://www.w3.org/2000/svg" viewBox="0 0 40.85 38.64">
  <path d="M10.46 24.66c-.25-1.68-.39-3.44-.39-5.29s.13-3.43.36-5.03H3.42a17.783 17.783 0 0 0 .07 10.32h6.97ZM30.43 14.35c.23 1.6.36 3.28.36 5.03 0 1.84-.14 3.61-.39 5.29h6.97c.52-1.67.8-3.45.8-5.29s-.26-3.43-.73-5.03h-7ZM36.87 26.02h-6.71c-.9 4.63-2.72 8.37-5.08 10.52 5.37-1.47 9.73-5.4 11.79-10.52ZM3.89 12.99h6.75c.88-4.75 2.73-8.59 5.13-10.78-5.46 1.5-9.87 5.54-11.88 10.78ZM28.78 26.02H21.1v11.1c3.49-.51 6.43-4.95 7.68-11.1ZM15.77 36.54c-2.36-2.15-4.18-5.89-5.08-10.52H3.98c2.06 5.12 6.42 9.05 11.79 10.52ZM19.75 14.35h-7.97c-.24 1.6-.37 3.28-.37 5.03 0 1.84.14 3.62.41 5.29h7.94V14.35ZM21.1 24.66h7.94c.26-1.67.41-3.45.41-5.29s-.13-3.43-.37-5.03h-7.97v10.32ZM12.02 12.99h7.73V1.64c-3.54.52-6.51 5.08-7.73 11.35ZM19.75 37.11v-11.1h-7.69c1.26 6.14 4.2 10.58 7.69 11.1Z" fill="#b9c3cf"/>
  <path d="M35.39 13.27c-.96 0-1.93-.01-2.89 0-.24 0-.33-.05-.33-.31V2.16c0-.55.22-.77.78-.77.54 0 1.08.01 1.62 0 .37-.01.65.12.82.45v11.43ZM29.85 9.48v3.48c0 .23-.04.31-.29.31-.88-.02-1.75-.01-2.63 0-.2 0-.3-.02-.3-.26v-6.6c0-.42.22-.65.64-.66.77-.01 1.54 0 2.32-.01.26 0 .25.13.25.31v3.44ZM22.7 13.26h-1.35c-.18 0-.25-.05-.25-.24v-2.28c0-.44.24-.66.68-.66h2.28c.23 0 .27.08.27.29 0 .87-.01 1.75 0 2.62 0 .23-.08.28-.29.27-.45-.01-.9 0-1.35 0Z" fill="#6772e5"/>
</svg>
