<svg xmlns="http://www.w3.org/2000/svg" viewBox="0 0 40.85 38.64">
  <path d="M8.9 11.5c0-.4-.36-.73-.78-.73h-.01l-2.24.03c3.87-4.95 9.93-7.86 16.5-7.86 3.36 0 6.69.79 9.64 2.27.38.19.86.06 1.06-.3.2-.36.06-.81-.32-1-3.17-1.6-6.76-2.45-10.38-2.45-7.6 0-14.58 3.63-18.66 9.71l-.77 1.15 5.2-.08c.43 0 .78-.34.77-.75Z" fill="#6772e5"/>
  <path d="M31.14 18.05c.2 1.34.32 2.75.32 4.21 0 1.54-.13 3.03-.35 4.43h6.11c.45-1.4.7-2.89.7-4.43s-.23-2.88-.64-4.21h-6.14ZM36.78 27.82H30.9c-.79 3.88-2.38 7.01-4.45 8.81 4.71-1.23 8.53-4.52 10.33-8.81ZM7.87 16.91h5.92c.77-3.98 2.39-7.2 4.5-9.03-4.78 1.25-8.65 4.64-10.42 9.03ZM13.63 26.69c-.22-1.4-.35-2.88-.35-4.43s.12-2.87.32-4.21H7.46c-.41 1.34-.64 2.75-.64 4.21 0 1.54.25 3.03.7 4.43h6.11ZM29.69 27.82h-6.74v9.29c3.06-.43 5.63-4.15 6.74-9.29ZM18.29 36.63c-2.07-1.8-3.66-4.93-4.45-8.81H7.96c1.8 4.29 5.63 7.58 10.33 8.81ZM21.78 18.05h-6.99c-.21 1.34-.33 2.75-.33 4.21 0 1.54.12 3.03.36 4.43h6.96v-8.64ZM22.96 26.69h6.96c.23-1.4.36-2.89.36-4.43s-.12-2.88-.33-4.21h-6.99v8.64ZM15 16.91h6.78V7.4c-3.1.44-5.7 4.25-6.78 9.51ZM26.45 7.89c2.11 1.83 3.72 5.05 4.49 9.03h5.92c-1.77-4.39-5.63-7.77-10.42-9.03ZM22.96 7.4v9.51h6.78c-1.07-5.25-3.68-9.07-6.78-9.51ZM21.78 37.11v-9.29h-6.74c1.1 5.14 3.68 8.86 6.74 9.29Z" fill="#b9c3cf"/>
</svg>
