<svg xmlns="http://www.w3.org/2000/svg" viewBox="0 0 40.85 38.64">
  <path d="M32.95 25.74c-.44 0-.79.35-.78.77 0 .42.36.75.8.75h.01l2.28-.03c-3.94 5.09-10.12 8.08-16.81 8.08-3.42 0-6.82-.81-9.82-2.34a.816.816 0 0 0-1.08.31c-.21.37-.06.83.33 1.03 3.23 1.65 6.89 2.52 10.58 2.52 7.75 0 14.85-3.73 19.01-9.98l.79-1.19-5.3.08Z" fill="#6772e5"/>
  <path d="M27.38 12.13c.2 1.38.32 2.82.32 4.33 0 1.59-.13 3.11-.35 4.55h6.23c.46-1.44.71-2.97.71-4.55s-.23-2.96-.65-4.33h-6.25ZM33.13 22.19h-5.99c-.8 3.99-2.43 7.21-4.54 9.06 4.8-1.27 8.69-4.65 10.53-9.06ZM3.67 10.97H9.7c.79-4.09 2.44-7.4 4.58-9.28-4.87 1.29-8.81 4.77-10.61 9.28ZM9.54 21.02c-.22-1.44-.35-2.97-.35-4.55s.12-2.95.32-4.33H3.26a14.833 14.833 0 0 0 .06 8.88h6.22ZM25.91 22.19h-6.86v9.56c3.12-.44 5.74-4.27 6.86-9.56ZM14.29 31.25c-2.11-1.85-3.73-5.07-4.54-9.06H3.76c1.84 4.41 5.73 7.79 10.53 9.06ZM17.84 12.13h-7.12a28.799 28.799 0 0 0 .03 8.88h7.09v-8.88ZM19.05 21.02h7.09c.24-1.44.36-2.97.36-4.55s-.12-2.96-.33-4.33h-7.12v8.89ZM10.94 10.97h6.91V1.19c-3.16.45-5.81 4.37-6.91 9.78ZM22.6 1.69c2.15 1.88 3.79 5.19 4.58 9.28h6.03c-1.8-4.51-5.74-7.99-10.61-9.28ZM19.05 1.19v9.78h6.91c-1.1-5.4-3.75-9.33-6.91-9.78ZM17.84 31.74v-9.56h-6.86c1.12 5.29 3.75 9.11 6.86 9.56Z" fill="#b9c3cf"/>
</svg>
