<svg xmlns="http://www.w3.org/2000/svg" viewBox="0 0 40.9 38.6" xml:space="preserve">
  <switch>
    <g>
      <path d="M16.8 8.2c.8 0 1.4-.2 1.9-.6l-3.4 4.8h2.5L20.9 8c-.1.4-.2.8-.2 1.3 0 2.1 1.2 3.4 3.2 3.4 2.2 0 3.1-1.8 3.1-3.4 0-2-1.2-3.4-3.1-3.4-.7 0-1.4.2-1.9.6l3.4-4.8h-2.5l-3.2 4.6c.2-.4.2-.9.2-1.4 0-2.1-1.2-3.4-3.1-3.4-1.9 0-3.2 1.4-3.2 3.4 0 1.9 1.3 3.3 3.2 3.3zm7.1-.4c.9 0 1 1 1 1.4 0 .5-.1 1.3-1 1.3-.3 0-1 0-1-1.3 0-.5.1-1.4 1-1.4zm-7.1-4.4c.8 0 1 .9 1 1.4 0 .5-.1 1.3-1 1.3-.3 0-1 0-1-1.3 0-.5.1-1.4 1-1.4z" fill="#6772e5"/>
      <path d="m36 25.7-1.2-1.4c-1.2-1.3-2.6-2.3-4.2-3 1.4-2.2 2.3-4.8 2.3-7.5 0-.3-.2-.5-.5-.5H6.2c-.3 0-.5.2-.5.5 0 3.5 1.3 6.7 3.5 9.1l-.5-.2c-1-.4-2.1.1-2.5 1-.5 1-.1 2.2.9 2.8l10.5 5.9c1.3.7 2.9.9 4.3.4l7.2-2.5c.6-.2 1.4-.2 2 .1.4.2.7.5 1 1 .2.3.4.7.6 1l2.5 4.5c.1.2.3.3.4.3h.1c.2-.1.4-.3.4-.5V26c0-.1 0-.2-.1-.3zM7.2 17.3h24.1c-.4 1.3-1 2.5-1.7 3.6-1.2-.4-2.5-.4-3.7.1l-3.3 1.2c-.5.2-1.1.3-1.7.3h-4.5c-1 0-1.9.7-2.1 1.7.1.1.1.2.1.3 0 .3.1.5.3.6.1.1.2.1.3.2.4.2.8.3 1.3.4 1.9.3 3.7.3 5.5 0l.8-.1c.2 0 .3 0 .4.1l.1.1c0 .1.1.1.1.2 0 .3-.2.5-.4.6l-.8.1c-1 .1-1.9.2-2.9.2s-1.9-.1-2.9-.2c-.7-.1-1.2-.3-1.7-.5-.2-.1-.3-.2-.4-.3-.2-.1-.3-.3-.4-.4 0 0 0-.1-.1-.1-.1-.1-.2-.3-.2-.5 0-.1-.1-.3-.1-.5l-1.7-.7c-2-1.5-3.6-3.7-4.4-6.4z" fill="#b9c3cf"/>
    </g>
  </switch>
</svg>