<svg xmlns="http://www.w3.org/2000/svg" viewBox="0 0 40.85 38.64">
  <g fill="#b9c3cf">
    <path d="M7.81 23.24c.11 0 .26-.04.4-.1.2-.07.4-.18.57-.28l.15-.37.06-.14.06-.14.24-.59.55-1.36c.07-.16.16-.36.28-.58.06-.12.15-.28.27-.46-.14 0-.25-.12-.25-.25V4.11c0-.14.12-.26.26-.26h20.14c.14 0 .26.12.26.26v14.86c0 .14-.12.26-.26.26h-.06c.11.18.2.34.26.46.12.21.21.41.28.58l.55 1.36.24.59.06.14.06.14.15.37c.19.11.42.23.63.3.13.04.25.08.34.08h.01c.25-.88.26-4.62.14-8.56-.03-.9.07-1.81.02-2.7l-.02-2.53V3.75c0-1.13-.93-2.06-2.08-2.06H9.81c-1.14 0-2.08.93-2.08 2.06v5.6l.03 2.63-.03.68c-.2 4.6-.23 9.55.06 10.58h.01Z"/>
    <path d="M26.52 23.21c-.14-.3-.29-.6-.43-.9-.56-1.21-.97-2.23-1.13-3.08h-9.07c-.17.85-.57 1.86-1.13 3.08-.14.3-.29.61-.43.9l-.27.57c-.02.04-.04.09-.06.13h12.85s-.04-.09-.06-.13c-.09-.18-.18-.37-.27-.57Zm-5.06-.92c0 .14-.12.26-.26.26h-1.47c-.14 0-.26-.12-.26-.26v-1.26c0-.14.12-.26.26-.26h1.47c.14 0 .26.12.26.26v1.26ZM31.46 32.99l5.88-.18c-.71-1.01.36-3.4.36-3.4s2.09-6.58 2.03-7.47c-.06-.88-.39-1.29-1.23-3.16-.84-1.86-4.54-6.85-4.54-6.85s.52 10.96-.19 11.85c-.19.23-.44.32-.72.32-.39 0-.82-.18-1.15-.35-.31-.16-.53-.32-.53-.32v-.02l-.31-.74c-.09-.22-.19-.47-.29-.73-.2-.5-.41-1.01-.55-1.36-.05-.13-.13-.3-.24-.49-.14-.26-.32-.56-.53-.86-.64-.92-1.58-1.9-2.57-1.9-.19 0-.39.04-.58.12-.58.25-.65.92-.45 1.78.18.8.6 1.77 1.04 2.72.23.5.47 1 .69 1.47.08.17.16.33.23.49.18.41.34.78.45 1.09.71 2.12 2.32 4.24 2.32 4.24l.89 3.75ZM30.72 33.65h-.6v3.61h8v-3.61H30.72zM14.56 17.45c-.19-.08-.39-.12-.58-.12-.99 0-1.93.98-2.57 1.9-.21.31-.39.61-.53.86-.11.2-.19.37-.24.49-.14.35-.35.86-.55 1.36-.1.26-.2.51-.29.73l-.3.74v.02s-.21.15-.51.3c-.33.18-.78.36-1.18.36-.28 0-.53-.09-.72-.32-.71-.88-.19-11.85-.19-11.85s-3.7 4.99-4.54 6.85c-.84 1.86-1.17 2.28-1.23 3.16-.06.88 2.03 7.47 2.03 7.47s1.07 2.38.36 3.4l5.88.18.89-3.75s1.6-2.12 2.32-4.24c.11-.31.26-.69.45-1.09.07-.16.15-.32.23-.49.22-.47.46-.96.69-1.47.44-.95.85-1.92 1.04-2.72.2-.86.13-1.53-.45-1.78ZM2.74 33.65h-.01v3.61h8v-3.61H2.74z"/>
  </g>
  <g fill="#6772e5">
    <path d="M25.48 10.11c-.14 0-.28-.05-.39-.16-2.57-2.55-6.76-2.55-9.33 0-.21.21-.56.21-.78 0a.55.55 0 0 1 0-.77c1.45-1.44 3.38-2.23 5.44-2.23s3.99.79 5.44 2.23a.544.544 0 0 1-.39.93Z"/>
    <path d="M23.92 11.65c-.14 0-.28-.05-.39-.16-1.71-1.7-4.5-1.7-6.22 0-.21.21-.56.21-.78 0a.55.55 0 0 1 0-.77c2.14-2.12 5.63-2.12 7.77 0a.544.544 0 0 1-.39.93Z"/>
    <path d="M22.37 13.19c-.14 0-.28-.05-.39-.16-.86-.85-2.25-.85-3.11 0-.21.21-.56.21-.78 0a.55.55 0 0 1 0-.77c1.29-1.27 3.38-1.27 4.66 0a.544.544 0 0 1-.39.93ZM20.43 15.66c-.28 0-.56-.11-.78-.32a1.08 1.08 0 0 1 0-1.54 1.11 1.11 0 0 1 1.55 0c.43.42.43 1.12 0 1.54-.21.21-.5.32-.78.32Z"/>
  </g>
</svg>
