<?xml version="1.0" encoding="UTF-8"?><svg id="uuid-8eb0f19f-c2ca-456d-b8f3-ee4a0fe05eea" xmlns="http://www.w3.org/2000/svg" viewBox="0 0 69 69"><path d="M21.78,63.73c-.2,0-.41-.03-.62-.09-.31-.09-.61-.19-.9-.31-1.51-.63-2.96-1.37-4.3-2.21-.86-.53-1.98-1.25-3.06-2.06-.16-.12-.31-.24-.45-.37-.97-.88-1.07-2.15-.25-3.17,.25-.3,.5-.6,.75-.9,2.56-2.98,5.21-5.97,7.76-8.86l.09-.1c1.09-1.24,2.27-.96,3.06-.51,.36,.2,.71,.41,1.06,.62,.32,.19,.64,.38,.97,.57,.22,.13,.44,.24,.67,.36l.28,.15c.24,.13,.5,.27,.77,.48,.44,.35,.72,.77,.85,1.28l.05,.36c.03,.49-.11,.87-.17,1.05l-.2,.59c-.24,.68-.47,1.36-.72,2.04-1.3,3.63-2.32,6.4-3.3,8.97l-.28,.69c-.35,.88-1.15,1.42-2.05,1.42Zm-1.67-2.9v0Zm-3.66-4.15c.58,.39,1.15,.75,1.62,1.05,.84,.53,1.74,1.01,2.67,1.45,.86-2.27,1.77-4.75,2.89-7.88,.16-.45,.32-.91,.48-1.37-.08-.04-.15-.09-.23-.13-.31-.18-.62-.36-.93-.55-2.15,2.44-4.36,4.93-6.5,7.42Z" fill="#32325d"/><path d="M49.71,63.26c-.62,0-1.22-.28-1.69-.82-.18-.21-.34-.42-.48-.64l-6.78-10.85c-.52-.87-.4-1.95,.3-2.69,.07-.07,.13-.14,.2-.2l.63-.58c.69-.63,1.37-1.27,2.06-1.89,1.13-1.02,2.19-1.08,3.44-.2,2.15,1.52,4.29,3.12,6.36,4.66l.51,.38c1.12,.83,2.27,1.69,3.39,2.58,.58,.45,.9,1,.96,1.66l.02,.18v.18c-.06,.56-.3,.95-.4,1.12-.27,.44-.58,.78-.87,1.08-2.1,2.22-3.94,3.89-5.8,5.26-.22,.16-.44,.31-.67,.44-.39,.23-.8,.34-1.19,.34Zm-.82-3.8h0Zm-3.95-9.35l5.25,8.38c1.16-.94,2.35-2.04,3.66-3.38-.67-.51-1.32-1-1.97-1.48l-.49-.37c-1.81-1.34-3.65-2.71-5.49-4.04-.32,.29-.63,.58-.95,.87Zm10.28,6.07h0Zm-11.03-7.29v0Z" fill="#32325d"/><path d="M45.74,24.57c-.5,0-.99-.19-1.47-.56-.17-.13-.34-.27-.49-.42-.63-.6-1.35-1.13-2.04-1.62-.17-.12-.33-.24-.49-.36-.96-.74-1.21-1.81-.68-2.91,.12-.26,.26-.53,.39-.79,1.91-3.75,3.63-7.04,5.25-10.08,.14-.27,.29-.53,.44-.79,.69-1.14,1.91-1.5,3.11-.93,.21,.1,.41,.21,.6,.33,2.52,1.56,4.65,3.23,6.51,5.09,.15,.15,.3,.31,.44,.47,.51,.56,.65,1.11,.68,1.47l.02,.28-.05,.27c-.14,.72-.59,1.14-.73,1.28l-.08,.07c-.27,.26-.53,.51-.81,.76l-.29,.25c-.86,.77-1.72,1.54-2.59,2.29-2.2,1.93-4.01,3.48-5.7,4.89-.19,.16-.39,.32-.59,.47-.47,.35-.96,.53-1.44,.53Zm-.96-5.34c.33,.25,.67,.51,1.01,.79,1.5-1.26,3.12-2.66,5.05-4.34,.8-.7,1.59-1.41,2.38-2.11-1.17-1.07-2.46-2.08-3.91-3.04-1.41,2.65-2.9,5.52-4.53,8.71Zm9.68-6.81h0Z" fill="#32325d"/><path d="M33.12,20.76c-1.16,0-1.96-.63-2.26-1.78-.08-.29-.15-.57-.21-.86-.96-4.08-1.79-7.7-2.52-11.06-.06-.29-.12-.59-.17-.88-.21-1.31,.51-2.4,1.79-2.73,.22-.05,.44-.1,.66-.13,2.95-.41,5.66-.5,8.29-.26,.2,.02,.4,.05,.61,.08l.11,.02c.68,.1,1.13,.42,1.38,.68l.19,.19,.13,.24c.36,.64,.29,1.24,.27,1.44l-.02,.16c-.04,.35-.08,.71-.12,1.06l-.04,.28c-.16,1.17-.33,2.33-.5,3.5-.43,2.88-.81,5.22-1.19,7.38-.04,.25-.09,.5-.15,.75-.27,1.17-1.05,1.8-2.25,1.84-.22,0-.44,0-.65,0-.86-.06-1.76,0-2.61,.06-.2,.02-.4,.03-.61,.03-.04,0-.08,0-.12,0Zm-.88-13.63c.64,2.93,1.36,6.07,2.18,9.55,.42-.02,.87-.03,1.3-.04,.33-1.92,.67-4.01,1.04-6.52,.16-1.05,.31-2.09,.45-3.14-1.59-.08-3.24-.03-4.97,.16Zm6.61-.01h0Z" fill="#32325d"/><path d="M60.23,51.16c-.44,0-.89-.14-1.33-.42-1.1-.71-2.14-1.44-2.92-2-1.87-1.33-3.75-2.67-5.62-4l-2.12-1.51c-1.08-.79-1.35-1.79-.84-2.94,.15-.33,.3-.66,.45-.98l.08-.16c.33-.69,.64-1.35,.9-2.01,.06-.16,.14-.32,.23-.48,.43-.75,1.17-1.18,1.99-1.18h.02l.52,.07c.13,.03,.26,.05,.4,.09l1.24,.31c1.11,.28,2.23,.55,3.34,.83,2.12,.54,4.63,1.19,7.19,1.91,.13,.04,.26,.08,.4,.12,.11,.03,.21,.07,.32,.1,1.2,.33,1.88,1.47,1.59,2.67l-.03,.12c-.04,.2-.09,.4-.16,.6-.86,2.48-1.98,4.87-3.32,7.13-.17,.28-.35,.55-.54,.8-.47,.62-1.11,.95-1.78,.95Zm-8.63-10.44l1.08,.77c1.87,1.33,3.74,2.67,5.61,4,.5,.35,.94,.67,1.36,.95,.75-1.35,1.41-2.75,1.97-4.19-2.15-.59-4.25-1.13-6.05-1.6-1.1-.28-2.21-.55-3.31-.83l-.21-.05c-.15,.32-.3,.64-.44,.95Zm10.56-.09s0,.03,0,.04v-.04Zm-11.11-2.75l1.45,.81s.01-.02,.02-.03c.01-.02,.02-.04,.03-.07l-1.5-.73v.02Zm1.5,.71s-.01,.03-.02,.05l.03-.04h0Zm.01-.04h0Zm-1.81-.84l.23,.13h0l-.23-.13Z" fill="#32325d"/><path d="M34.58,66.49c-1.09,0-2.18-.05-3.27-.15l-.5-.04c-.25-.02-.5-.04-.75-.07-.72-.08-1.29-.36-1.68-.86-.39-.5-.55-1.12-.46-1.84,.05-.36,.1-.72,.17-1.07l.24-1.33c.23-1.3,.47-2.6,.71-3.89,.3-1.59,.62-3.19,.93-4.78l.24-1.21c.04-.21,.09-.42,.14-.63l.15-.55c.32-.8,1.06-1.37,1.92-1.48,.27-.03,.51-.04,.74-.03,1.02,.06,2.16,.04,3.46-.05,1.24-.09,2.12,.54,2.43,1.75,.17,.63,.28,1.25,.38,1.85l.09,.48c.36,1.91,.71,3.83,1.06,5.75l.11,.59c.23,1.23,.46,2.56,.65,3.92,.06,.39,.08,.72,.08,1.04,0,1.07-.71,1.96-1.76,2.2-.44,.1-.87,.16-1.26,.2-1.26,.14-2.54,.21-3.83,.21Zm-2.42-4.09c1.71,.13,3.4,.12,5.07-.02-.15-.94-.31-1.87-.47-2.74l-.11-.59c-.35-1.91-.7-3.82-1.05-5.73l-.09-.5c-.01-.08-.03-.16-.04-.24-.5,.02-.98,.02-1.44,.02l-.13,.64c-.31,1.58-.62,3.16-.93,4.75-.24,1.28-.47,2.57-.7,3.86l-.1,.56Zm6.61-.22h0Z" fill="#32325d"/><path d="M18.22,34.03c-.21,0-.42-.02-.65-.07-1.93-.4-3.85-.86-5.71-1.31l-1.83-.44c-1.41-.34-2.87-.68-4.31-1.07-.41-.11-.82-.22-1.26-.4-1.19-.48-1.7-1.47-1.42-2.71,.18-.81,.47-1.55,.72-2.19,.49-1.22,1.04-2.45,1.7-3.76,.34-.69,.76-1.5,1.27-2.3,.16-.26,.35-.51,.55-.74,.79-.94,1.93-1.11,2.98-.46,.54,.33,1.07,.67,1.6,1.01,.34,.22,.67,.45,1.01,.67l1.92,1.29c1.03,.69,2.05,1.37,3.08,2.07,.82,.55,1.62,1.12,2.43,1.68l.93,.65c.14,.1,.27,.2,.39,.31l.18,.15,.64,.79-.04,.63c.01,.6-.22,1.03-.29,1.17l-.8,1.57c-.17,.32-.3,.65-.45,.98-.12,.28-.24,.57-.37,.85-.04,.1-.09,.19-.14,.28-.5,.9-1.21,1.35-2.11,1.35Zm-10.79-6.58c1.18,.31,2.37,.59,3.52,.87l1.84,.44c1.46,.35,2.96,.71,4.45,1.04,.16-.36,.31-.72,.5-1.07l.12-.24c-.75-.52-1.5-1.05-2.25-1.56-1.01-.69-2.03-1.37-3.05-2.05l-1.94-1.3c-.31-.21-.63-.43-.95-.63-.04-.03-.08-.05-.12-.07-.19,.35-.36,.69-.52,1-.61,1.21-1.12,2.34-1.56,3.45-.02,.04-.03,.08-.05,.13Zm11.11-.28h0Z" fill="#32325d"/><path d="M8.05,49.67c-.82,0-1.55-.45-2.01-1.3-.28-.51-.48-1.03-.65-1.52-.24-.66-.47-1.33-.68-2-.16-.53-.32-1.06-.46-1.59l-.04-.17c-.18-.73-.38-1.48-.52-2.31-.12-.61-.2-1.15-.23-1.66-.08-1.24,.65-2.17,1.87-2.39,.64-.11,1.24-.16,1.83-.21,.2-.02,.37-.04,.55-.06l.2-.02c.19-.02,.38-.04,.57-.06,.19-.02,.37-.03,.56-.06,.4-.05,.81-.08,1.22-.11l.91-.08c.17-.02,.33-.03,.5-.05,.39-.03,.78-.07,1.18-.11,.41-.04,.83-.08,1.24-.12,.69-.06,1.37-.12,2.06-.18,.46-.04,.92-.08,1.38-.11,.34-.03,.69-.05,1.03-.08,1.19-.11,2.21,.67,2.41,1.83,.03,.18,.08,.35,.13,.52l.09,.34c.16,.62,.35,1.35,.59,2.04,.09,.24,.16,.48,.22,.73,.3,1.17-.13,2.16-1.2,2.71-.56,.29-1.12,.58-1.69,.86-1.14,.57-2.29,1.13-3.43,1.69l-6.45,3.16c-.39,.19-.78,.28-1.15,.28Zm-.35-9.18c.11,.54,.24,1.07,.38,1.62l.04,.16c.12,.47,.26,.94,.41,1.4,.14,.46,.29,.91,.45,1.36l4.91-2.4c1.14-.56,2.28-1.12,3.42-1.68,.13-.07,.27-.13,.4-.2-.12-.4-.23-.79-.32-1.15-.29,.02-.59,.05-.88,.08-.71,.07-1.41,.13-2.11,.19-.39,.03-.78,.07-1.17,.11-.42,.04-.84,.08-1.26,.12l-1.42,.12c-.35,.03-.7,.05-1.05,.09-.22,.03-.44,.05-.66,.07l-.67,.07c-.16,.02-.31,.04-.47,.05Z" fill="#32325d"/><path d="M22.56,24.57c-.58,0-1.14-.25-1.64-.76-1-1.01-1.96-2.04-2.85-3l-1.59-1.71c-1.09-1.19-2.19-2.37-3.27-3.56-.27-.3-.54-.6-.81-.91l-.31-.35c-.79-.85-.82-2.1-.07-3.01l.1-.11c.52-.54,1.09-.94,1.59-1.3,1.76-1.24,3.57-2.31,5.43-3.22,.34-.16,.74-.35,1.19-.49,1.36-.43,2.45,.08,2.98,1.39l.17,.41c.39,.97,.78,1.93,1.16,2.9,.9,2.26,1.79,4.53,2.69,6.79,.24,.61,.47,1.22,.71,1.83,.43,1.14,.06,2.18-1,2.79-.26,.15-.53,.31-.8,.46-.52,.29-1.04,.59-1.54,.91l-.23,.15c-.19,.13-.39,.25-.59,.38-.45,.27-.89,.41-1.31,.41Zm-6.3-11.63c1.05,1.15,2.1,2.29,3.16,3.43l1.59,1.71c.59,.64,1.21,1.31,1.84,1.97,.3-.19,.6-.36,.91-.54-.05-.14-.11-.28-.16-.42-.89-2.26-1.79-4.52-2.68-6.78-.23-.59-.47-1.17-.7-1.76-1.36,.7-2.68,1.49-3.95,2.38Z" fill="#32325d"/><path d="M50.62,34.04c-1.33,0-1.9-.93-2.05-1.22l-.12-.25-.05-.27c-.09-.46-.22-.94-.39-1.45l-.07-.21c-.18-.55-.36-1.1-.58-1.63l-.16-.38-.04-.5c0-.38,.1-1.34,1.16-1.95,.83-.49,1.69-.95,2.54-1.4l.82-.45c.31-.17,.63-.34,.95-.5l1.76-.92c.36-.19,.72-.38,1.1-.55,.36-.15,.67-.32,.98-.49l.27-.14c.28-.15,.57-.3,.86-.43,.27-.13,.54-.27,.8-.41,.28-.15,.57-.3,.86-.44l.32-.15c.17-.08,.35-.16,.52-.25,1.1-.54,2.34-.17,2.96,.9,.14,.24,.28,.48,.4,.74,.43,.9,.75,1.85,1.01,2.61,.42,1.22,.76,2.35,1.04,3.47,.03,.12,.06,.24,.08,.36,.02,.07,.03,.15,.05,.22l.04,.11c.15,.44,.24,.93,.29,1.49,.11,1.42-.77,2.5-2.2,2.67l-2.2,.27c-.07,0-.14,0-.21,.02l-.22,.04c-.07,0-.15,.01-.22,.02l-.25,.04-.24,.02c-.25,.03-.5,.05-.75,.09l-.29,.05h-.12l-.31,.04h-.1l-.43,.06h-.07c-.1,0-.2,.01-.29,.02-.15,.03-.3,.04-.44,.05-.12,.02-.24,.04-.35,.04-.18,.03-.36,.05-.54,.06-.13,.01-.27,.02-.4,.05l-.19,.03c-.84,.07-1.68,.16-2.52,.27-.4,.04-.71,.07-1.02,.1-.43,.04-.85,.09-1.28,.12l-.28,.02h-.04s-.09,0-.13,0c-.07,0-.13,0-.2,0Zm.96-5.11c.05,.15,.1,.3,.15,.44l.07,.21c.04,.12,.08,.24,.11,.35,.08,0,.16-.02,.24-.02,.33-.03,.66-.07,.98-.1,.78-.11,1.67-.2,2.54-.28,.21-.03,.41-.06,.62-.08,.13-.01,.25-.02,.38-.05l.32-.03c.09-.02,.22-.04,.34-.05h.1c.09-.03,.21-.04,.34-.05h.04c.1-.02,.24-.04,.39-.04,.12-.02,.27-.04,.42-.05,.14-.02,.31-.05,.5-.05,.28-.04,.56-.07,.83-.1h.09c.24-.06,.44-.07,.56-.08,.17-.03,.35-.05,.53-.07l.46-.06-.02-.1c-.25-1.01-.56-2.04-.94-3.16-.13-.37-.26-.77-.41-1.16h0c-.32,.17-.64,.34-.96,.49-.23,.11-.46,.23-.68,.35l-.25,.13c-.4,.21-.81,.44-1.28,.63-.25,.11-.53,.26-.8,.41l-1.79,.94c-.31,.16-.61,.32-.91,.48l-.53,.28c-.11,.06-.22,.13-.33,.18-.37,.2-.75,.4-1.12,.6Zm11.67-.29h0Z" fill="#32325d"/></svg>