<?xml version="1.0" encoding="UTF-8"?><svg id="uuid-4df0ae2b-4b1c-4bea-af92-74dc5fe22d59" xmlns="http://www.w3.org/2000/svg" viewBox="0 0 69 69"><path d="M17.22,66.28H4.42v-21.06c0-1.69,1.5-3.07,3.35-3.07h6.39c1.69,0,3.06,1.27,3.06,2.84v21.29Zm-8.8-4h4.8v-16.13h-4.8v16.13Z" fill="#32325d"/><path d="M33.01,66.28h-12.8v-31.77c0-1.71,1.49-3.05,3.39-3.05h6.51c1.62,0,2.89,1.18,2.89,2.68v32.15Zm-8.8-4h4.8v-26.83h-4.8v26.83Z" fill="#32325d"/><path d="M48.79,66.28h-12.8V23.64c0-2.19,1.31-3.84,3.05-3.84h6.62c1.78,0,3.12,1.7,3.12,3.95v42.52Zm-8.8-4h4.8V23.81h-4.8V62.28Z" fill="#32325d"/><path d="M64.58,66.28h-12.8V15.06c0-1.88,1.45-3.42,3.24-3.42h6.42c1.73,0,3.14,1.48,3.14,3.3v51.34Zm-8.8-4h4.8V15.64h-4.8V62.28Z" fill="#32325d"/></svg>