<?xml version="1.0" encoding="UTF-8"?><svg id="uuid-1c0b9f77-6dc1-474d-93c6-522a21423cac" xmlns="http://www.w3.org/2000/svg" viewBox="0 0 69 69"><path d="M56.95,66.28H12.05c-1.1,0-2-.9-2-2V22.45h4V62.28H54.95V6.83H30.01V2.83h26.94c1.1,0,2,.9,2,2v59.45c0,1.1-.9,2-2,2Z" fill="#32325d"/><path d="M30.01,24.45H12.05c-.81,0-1.54-.49-1.85-1.24s-.13-1.62,.45-2.18L28.61,3.41c.58-.56,1.43-.73,2.17-.42,.74,.31,1.23,1.04,1.23,1.84V22.45c0,1.1-.9,2-2,2Zm-13.06-4h11.06V9.6l-11.06,10.85Z" fill="#32325d"/><path d="M42.15,25.05c-2.68,0-4.87-2.15-4.87-4.8v-1.1c0-2.65,2.18-4.8,4.87-4.8s4.87,2.15,4.87,4.8v1.1c0,2.65-2.18,4.8-4.87,4.8Zm0-7.71c-1.03,0-1.87,.81-1.87,1.8v1.1c0,.99,.84,1.8,1.87,1.8s1.87-.81,1.87-1.8v-1.1c0-.99-.84-1.8-1.87-1.8Z" fill="#32325d"/><path d="M48.88,32.76h-13.47c-.83,0-1.5-.67-1.5-1.5v-1.1c0-4.47,3.69-8.1,8.24-8.1s8.24,3.64,8.24,8.1v1.1c0,.83-.67,1.5-1.5,1.5Zm-11.96-3h10.44c-.21-2.63-2.47-4.71-5.22-4.71s-5.01,2.08-5.22,4.71Z" fill="#32325d"/><rect x="21.03" y="37.75" width="17.96" height="4" fill="#32325d"/><rect x="21.03" y="43.15" width="13.47" height="4" fill="#32325d"/><rect x="21.03" y="48.76" width="17.96" height="4" fill="#32325d"/><rect x="21.03" y="54.16" width="13.47" height="4" fill="#32325d"/></svg>