<?xml version="1.0" encoding="UTF-8"?><svg id="uuid-007b50bf-c1f6-42ed-9065-dd5427f4769f" xmlns="http://www.w3.org/2000/svg" viewBox="0 0 69 69"><path d="M61.9,42.96l-4.41-2.96-.17,2.57c-10.5-.27-18.23,10.25-18.23,10.25,7.55-6.22,15.46-5.46,17.89-5.04l-.19,2.85,4.76-2.36,4.76-2.36-4.41-2.96Z" fill="#32325d"/><path d="M41.65,59.04l4.17,3.59,.49-2.62c10.76,1.57,20-8.27,20-8.27-8.53,5.46-16.57,3.7-19.01,2.96l.55-2.9-5.18,1.83-5.18,1.83,4.17,3.59Z" fill="#32325d"/><path d="M34.23,65.7c-17.36,0-31.47-14.12-31.47-31.48S16.88,2.75,34.23,2.75s31.48,14.12,31.48,31.48c0,1.81-.16,3.6-.46,5.33-.17,.96-1.09,1.6-2.05,1.44-.47-.08-.88-.34-1.15-.73-.27-.39-.38-.86-.29-1.32,.16-.91,.27-1.88,.33-2.94h-11.31c-.02,.81-.05,1.53-.1,2.2-.03,.47-.25,.9-.61,1.22-.36,.31-.82,.46-1.28,.43-.97-.06-1.71-.91-1.64-1.88,.04-.59,.07-1.24,.09-1.96h-11.23v11.23c.72-.02,1.37-.05,1.96-.09,.99-.06,1.82,.69,1.88,1.65,.03,.47-.12,.93-.43,1.28s-.74,.57-1.21,.6c-.67,.05-1.39,.08-2.2,.1v11.31c1.06-.06,2.03-.17,2.94-.33h0c.46-.08,.94,.02,1.33,.29,.39,.27,.65,.68,.73,1.14,.08,.47-.02,.94-.29,1.32-.27,.39-.68,.65-1.14,.73-1.73,.31-3.52,.46-5.33,.46Zm-10.76-15.86c2.09,6.51,5.41,10.94,8.99,12.05v-11.12c-3.1-.09-6.12-.4-8.99-.92Zm-15.63-6.43c2.79,8.06,9.12,14.39,17.18,17.19-2.32-2.89-4.22-6.89-5.51-11.66-4.78-1.29-8.78-3.2-11.67-5.54Zm14.6,2.61c3.16,.7,6.52,1.11,10.02,1.21v-11.23h-11.23c.1,3.5,.51,6.86,1.21,10.02Zm-15.87-10.02c1.11,3.58,5.54,6.89,12.04,8.98-.53-2.87-.84-5.88-.92-8.98H6.57Zm44.2-3.54h11.12c-1.1-3.58-5.54-6.9-12.04-8.99,.53,2.87,.84,5.88,.92,8.99Zm-14.77,0h11.23c-.1-3.5-.51-6.86-1.21-10.02-3.16-.7-6.52-1.11-10.02-1.21v11.23Zm-14.77,0h11.23v-11.23c-3.5,.1-6.86,.51-10.02,1.21-.7,3.16-1.11,6.52-1.21,10.02Zm-14.66,0h11.12c.09-3.11,.39-6.12,.92-8.99-6.51,2.09-10.94,5.41-12.04,8.99ZM25.03,7.84c-8.06,2.8-14.38,9.14-17.18,17.2,2.89-2.33,6.89-4.25,11.67-5.54,1.29-4.77,3.19-8.77,5.51-11.66Zm23.93,11.66c4.77,1.29,8.78,3.2,11.67,5.53-2.8-8.06-9.12-14.39-17.18-17.19,2.32,2.89,4.23,6.89,5.51,11.66ZM32.46,6.56c-3.58,1.1-6.9,5.54-8.99,12.05,2.87-.53,5.88-.84,8.99-.92V6.56Zm3.54,11.12c3.1,.09,6.11,.4,8.98,.92-2.09-6.51-5.4-10.94-8.98-12.05v11.12Z" fill="#32325d"/></svg>