<?xml version="1.0" encoding="UTF-8"?><svg id="uuid-adda7bf1-28fd-4955-8f45-5edfe59d5be5" xmlns="http://www.w3.org/2000/svg" viewBox="0 0 69 69"><path d="M35.15,42.28c-2.92,0-5.93-.7-8.31-2.08-2.54-1.47-4-3.54-4-5.69,0-1.96,1.16-3.7,3.26-4.93,4.1-2.38,10.85-2.21,15.37,.4h0c2.54,1.47,4,3.54,4,5.69,0,1.96-1.15,3.71-3.26,4.94-1.93,1.12-4.45,1.68-7.05,1.68Zm-2.03-11.37c-2.07,0-4.07,.42-5.52,1.26-.66,.38-1.77,1.2-1.77,2.33,0,1.04,.94,2.19,2.5,3.1,3.55,2.05,9.21,2.24,12.35,.41,.66-.38,1.77-1.2,1.77-2.34,0-1.04-.94-2.19-2.5-3.1h0c-1.91-1.1-4.42-1.66-6.83-1.66Z" fill="#32325d"/><path d="M26.26,53.89c-.25,0-.51-.06-.74-.2L3.23,41.05c-.47-.27-.76-.76-.76-1.3,0-.54,.29-1.04,.75-1.3L41.54,16.5c.46-.26,1.02-.27,1.49,0l22.28,12.64c.47,.27,.76,.76,.76,1.3,0,.54-.29,1.04-.75,1.3L27,53.69c-.23,.13-.49,.2-.75,.2ZM7,39.74l19.25,10.92L61.54,30.45l-19.25-10.92L7,39.74Z" fill="#32325d"/><path d="M26.26,61c-.25,0-.51-.06-.74-.2L3.23,48.17c-.72-.41-.97-1.32-.56-2.04,.41-.72,1.33-.97,2.04-.56l21.54,12.22,37.58-21.52c.72-.41,1.64-.16,2.05,.56s.16,1.64-.56,2.05L27,60.8c-.23,.13-.49,.2-.75,.2Z" fill="#32325d"/><path d="M26.26,66.73c-.25,0-.51-.06-.74-.2L3.23,53.89c-.47-.27-.76-.76-.76-1.3v-12.84c0-.83,.67-1.5,1.5-1.5s1.5,.67,1.5,1.5v11.96l20.78,11.79,36.82-21.09v-11.97c0-.83,.67-1.5,1.5-1.5s1.5,.67,1.5,1.5v12.84c0,.54-.29,1.03-.75,1.3l-38.32,21.95c-.23,.13-.49,.2-.75,.2Z" fill="#32325d"/><path d="M8.46,43.77v-3c1.32,0,2.12-.68,2.12-1.05s-.81-1.05-2.12-1.05v-3c2.87,0,5.12,1.78,5.12,4.05s-2.25,4.05-5.12,4.05Z" fill="#32325d"/><path d="M60.12,34.51c-2.87,0-5.12-1.78-5.12-4.05s2.25-4.05,5.12-4.05v3c-1.32,0-2.12,.68-2.12,1.05s.81,1.05,2.12,1.05v3Z" fill="#32325d"/><path d="M23.52,50.02l-2.98-.09c0-2.13,2.46-3.74,5.71-3.74s5.71,1.61,5.71,3.74h-3c-.11-.15-1.07-.74-2.71-.74s-2.61,.59-2.73,.83Z" fill="#32325d"/><path d="M42.34,23.94c-3.26,0-5.71-1.61-5.71-3.74h3s-.01-.08-.02-.09c.12,.25,1.09,.84,2.73,.84s2.61-.59,2.73-.84l2.98,.09c0,2.13-2.46,3.74-5.71,3.74Z" fill="#32325d"/></svg>