<?xml version="1.0" encoding="UTF-8"?><svg id="uuid-94868553-fa91-4e3b-b9c6-ddae8fb40bf0" xmlns="http://www.w3.org/2000/svg" viewBox="0 0 69 69"><path d="M19.7,34.82H3.43v-2c0-7.53,2.99-12.36,7.49-17.3l1.36-1.5,11.58,10.78-1.22,1.52c-2.02,2.51-2.94,3.65-2.94,6.5v2Zm-12.18-4H15.83c.34-2.34,1.29-3.93,2.58-5.62l-5.88-5.47c-2.79,3.33-4.61,6.62-5.02,11.09Z" fill="#32325d"/><path d="M25.12,23.45L13.62,11.95l1.66-1.4c5.78-4.89,11.88-7.17,19.22-7.17h2V19.65h-2c-3.18,0-5.27,.72-7.99,2.76l-1.39,1.04Zm-5.55-11.2l5.97,5.97c2.27-1.46,4.41-2.23,6.96-2.47V7.45c-4.82,.32-8.93,1.85-12.93,4.8Z" fill="#32325d"/><path d="M38.83,65.97v-16.43l1.41-.44c6.09-1.89,10.34-7.88,10.34-14.55s-4.25-12.65-10.34-14.55l-1.41-.44V3.14l2.35,.41c14.57,2.55,25.14,15.59,25.14,31s-10.58,28.44-25.14,31l-2.35,.41Zm4-13.55v8.67c11.43-3.13,19.49-13.92,19.49-26.53s-8.06-23.4-19.49-26.53v8.67c6.98,2.84,11.75,9.98,11.75,17.86s-4.76,15.02-11.75,17.86Z" fill="#32325d"/><path d="M35.79,66h-2c-14.88,0-27.47-11.03-29.92-26.22l-.37-2.32h15.96l.42,1.45c1.83,6.37,7.55,10.82,13.92,10.82h2v16.27ZM8.29,41.46c2.81,11.37,12.23,19.59,23.5,20.46v-8.31c-6.83-.78-12.8-5.5-15.29-12.16H8.29Z" fill="#32325d"/></svg>