<?xml version="1.0" encoding="UTF-8"?><svg id="uuid-ff54f970-01e0-480b-9069-8f25b7257a3b" xmlns="http://www.w3.org/2000/svg" viewBox="0 0 69 69"><path d="M24.72,66.29c-.34,0-.68-.09-.99-.26L3.96,54.82c-.63-.35-1.01-1.02-1.01-1.74V5.11c0-.71,.38-1.37,.99-1.73,.61-.36,1.37-.36,1.99-.01L24.72,14.02,43.51,3.37c.61-.35,1.36-.35,1.97,0l19.77,11.21c.63,.35,1.01,1.02,1.01,1.74v17.25c0,1.1-.9,2-2,2s-2-.9-2-2V17.48L44.5,7.41l-18.79,10.65c-.61,.35-1.36,.35-1.97,0L6.95,8.54V51.91l17.77,10.08,7.76-4.4c.96-.55,2.18-.21,2.73,.75,.54,.96,.21,2.18-.75,2.73l-8.75,4.96c-.31,.17-.65,.26-.99,.26Z" fill="#32325d"/><path d="M24.52,65.35c-1.1,0-2-.9-2-2V16.05c0-1.1,.9-2,2-2s2,.9,2,2V63.35c0,1.1-.9,2-2,2Z" fill="#32325d"/><path d="M44.52,27.02c-1.1,0-2-.9-2-2V5.97c0-1.1,.9-2,2-2s2,.9,2,2V25.02c0,1.1-.9,2-2,2Z" fill="#32325d"/><path d="M46.31,66.44c-.61,0-1.17-.37-1.39-.95-1.37-3.48-4.68-7.12-7.34-10.05-1.92-2.12-3.58-3.94-4.35-5.47-1.02-2.04-1.54-4.24-1.54-6.54,0-8.06,6.56-14.62,14.62-14.62,3.91,0,7.58,1.52,10.34,4.28,2.76,2.76,4.28,6.44,4.28,10.34,0,2.3-.52,4.5-1.54,6.54-.73,1.46-2.36,3.11-4.24,5.03-2.91,2.96-6.53,6.65-7.39,10.28-.15,.64-.7,1.1-1.35,1.15-.04,0-.07,0-.11,0Zm0-34.63c-6.41,0-11.62,5.21-11.62,11.62,0,1.83,.41,3.58,1.22,5.2,.58,1.16,2.18,2.92,3.88,4.79,2.09,2.3,4.56,5.02,6.35,7.9,1.7-3.14,4.51-6,6.88-8.42,1.64-1.67,3.18-3.24,3.7-4.28,.81-1.62,1.22-3.37,1.22-5.2,0-3.1-1.21-6.02-3.41-8.22-2.2-2.2-5.12-3.4-8.22-3.4Zm0,15.56c-2.62,0-4.75-2.13-4.75-4.75s2.13-4.75,4.75-4.75,4.75,2.13,4.75,4.75-2.13,4.75-4.75,4.75Zm0-6.5c-.97,0-1.75,.79-1.75,1.75s.79,1.75,1.75,1.75,1.75-.79,1.75-1.75-.79-1.75-1.75-1.75Z" fill="#32325d"/></svg>