<?xml version="1.0" encoding="UTF-8"?><svg id="uuid-24645415-9a20-4995-860f-8a822f560556" xmlns="http://www.w3.org/2000/svg" viewBox="0 0 69 69"><g><path d="M17.45,66.32H4.65v-23.16c0-1.76,1.5-3.19,3.35-3.19h6.39c1.69,0,3.06,1.31,3.06,2.93v23.42Zm-8.8-4h4.8v-18.35h-4.8v18.35Z" fill="#32325d"/><path d="M33.23,66.32h-12.8V32.15c0-1.73,1.52-3.14,3.39-3.14h6.51c1.6,0,2.89,1.22,2.89,2.73v34.58Zm-8.8-4h4.8v-29.31h-4.8v29.31Z" fill="#32325d"/><path d="M49.02,66.32h-12.8v-30.82c0-1.82,1.37-3.3,3.05-3.3h6.62c1.72,0,3.12,1.52,3.12,3.38v30.73Zm-8.8-4h4.8v-26.12h-4.8v26.12Z" fill="#32325d"/><path d="M64.8,66.32h-12.8V23.64c0-1.75,1.45-3.17,3.24-3.17h6.42c1.73,0,3.14,1.38,3.14,3.07v42.78Zm-8.8-4h4.8V24.47h-4.8V62.32Z" fill="#32325d"/></g><g><path d="M9.66,38.51c-3.39,0-6.14-2.71-6.14-6.05s2.75-6.05,6.14-6.05,6.14,2.71,6.14,6.05-2.75,6.05-6.14,6.05Zm0-8.1c-1.18,0-2.14,.92-2.14,2.05s.96,2.05,2.14,2.05,2.14-.92,2.14-2.05-.96-2.05-2.14-2.05Z" fill="#32325d"/><path d="M26.22,25c-3.39,0-6.14-2.71-6.14-6.05s2.75-6.05,6.14-6.05,6.14,2.71,6.14,6.05-2.75,6.05-6.14,6.05Zm0-8.1c-1.18,0-2.14,.92-2.14,2.05s.96,2.05,2.14,2.05,2.14-.92,2.14-2.05-.96-2.05-2.14-2.05Z" fill="#32325d"/><path d="M42.78,30.4c-3.39,0-6.14-2.71-6.14-6.05s2.75-6.05,6.14-6.05,6.14,2.71,6.14,6.05-2.75,6.05-6.14,6.05Zm0-8.1c-1.18,0-2.14,.92-2.14,2.05s.96,2.05,2.14,2.05,2.14-.92,2.14-2.05-.96-2.05-2.14-2.05Z" fill="#32325d"/><path d="M59.34,16.9c-3.39,0-6.14-2.71-6.14-6.05s2.75-6.05,6.14-6.05,6.14,2.71,6.14,6.05-2.75,6.05-6.14,6.05Zm0-8.1c-1.18,0-2.14,.92-2.14,2.05s.96,2.05,2.14,2.05,2.14-.92,2.14-2.05-.96-2.05-2.14-2.05Z" fill="#32325d"/><rect x="11.34" y="23.7" width="13.2" height="4" transform="translate(-12.21 17.12) rotate(-39.2)" fill="#32325d"/><rect x="32.5" y="17.05" width="4" height="9.19" transform="translate(3.22 47.74) rotate(-71.94)" fill="#32325d"/><rect x="44.46" y="15.6" width="13.2" height="4" transform="translate(.37 36.24) rotate(-39.2)" fill="#32325d"/></g></svg>