<?xml version="1.0" encoding="UTF-8"?><svg id="uuid-31d69bf7-0b96-4a85-9f93-3d654d1ece38" xmlns="http://www.w3.org/2000/svg" viewBox="0 0 69 69"><g id="uuid-7285e7c5-4c50-4261-8918-6575390649e3"><path d="M59.8,29.89c1.49,19.39-13.9,36.12-33.49,35.7-6.23-.04-12.51-1.8-17.82-5.18l-5.37-3.41,6.51,.25c5.56,.58,11.31-1.01,15.66-4.54l1.14,3.39c-5.62,0-10.9-3.94-12.58-9.3l-1.01-3.14,3.25,.63c1.42,.27,2.91,.21,4.31-.18l.13,3.83c-6.21-1.13-11-7.07-10.82-13.37l.02-3.36c2.15,1.19,4.7,2.89,7.24,2.84l-1.15,3.59c-5.78-3.75-7.74-12.07-4.11-17.96l1.42-2.35c5.63,7.91,14.24,13.14,24.03,13.74l-1.64,1.95c-.62-2.79-.26-5.77,.94-8.33,3.67-8.17,15.08-9.95,20.98-3.23l-.94-.3c3.17-.49,6.22-1.88,8.97-3.53l-.69,1.99c-.97,2.81-2.99,5.2-5.54,6.61l-.36-1.05c2.23-.19,4.45-.71,6.55-1.56l1.09-.44c-1.79,2.63-4.05,4.98-6.69,6.7h0Zm0,0c2.19-1.71,4.03-3.81,5.46-6.15l.41,.49c-2.81,1.43-6.15,2.06-9.28,2.47l2.23-1.45c2.21-1.43,3.88-3.64,4.58-6.13l1.19,.94c-2.3,1.45-4.85,2.51-7.53,3.1l-.53,.12-.41-.42c-4.87-5.19-14.12-3.53-16.79,3.05-1.25,2.72-.86,5.66,0,8.42l-2.16-.07c-9.63-.28-18.99-4.99-25.12-12.43l3.1-.24c-2.5,4.23-1.14,10.14,3.02,12.79l5.61,3.78c-3.79-.19-9.52,.29-12.87-1.85l2.94-1.73c-.08,4.48,3.24,8.66,7.64,9.51l8.22,1.66-8.09,2.17c-1.98,.53-4.07,.61-6.09,.21l2.24-2.51c.59,1.89,1.8,3.58,3.39,4.77,2.81,2.39,7.45,1.93,10.87,2.1l-4.19,3.21c-5.19,4.04-11.92,5.79-18.42,4.98l1.14-3.16c9.51,6.38,22.54,6.85,32.61,1.4,10.37-5.64,16.8-17.31,16.83-29.03h0Z" fill="#32325d"/><path d="M65.54,23.93c-2.43,1.23-5.16,1.93-7.87,2.3l1.11-.72c2.27-1.47,3.97-3.76,4.67-6.3l.83,.66c-2.38,1.53-5.07,2.58-7.85,3.18l-.33-.33c-7.41-7.42-20.08-.64-17.61,9.63l.48,1.86-1.98-.07c-9.6-.28-18.95-4.9-25.06-12.35l2.97-.23c-1.22,2.11-1.55,4.7-.98,7.06,.56,2.35,2.04,4.46,4.05,5.8l5.53,3.72-6.66-.18c-2.13-.06-4.24-.64-6.1-1.67l2.9-1.71c-.1,4.49,3.27,8.66,7.68,9.48l8.43,1.66-8.3,2.23c-1.98,.53-4.08,.61-6.1,.21l2.27-2.55c1.16,3.81,4.91,6.63,8.9,6.67l5.48,.12c-3.82,3.02-8.21,6.62-13.06,7.71-3.17,.9-6.47,1-9.72,.66l1.2-3.32c13.27,8.9,32.66,5.88,42.18-7.1,4.43-5.9,6.95-13.22,6.88-20.63,2.34-1.53,4.41-3.49,6.08-5.78h0Zm0,0c-1.45,2.37-3.32,4.5-5.55,6.23l.14-.28c.12,1.5,.06,3.02,.03,4.53-.51,7.26-3.37,14.29-8.05,19.86-10.42,12.52-30.1,15.03-43.67,6.21l-5.67-3.58c2.88,.04,8.25,.48,11.04,.3,4.15-.35,8.18-1.96,11.45-4.53l1.16,3.46c-5.63-.02-10.92-3.94-12.61-9.33l-1.03-3.19c2.34,.44,5.25,1.25,7.59,.46l.13,3.89c-3.07-.61-5.87-2.35-7.81-4.78-1.95-2.39-3.02-5.56-2.98-8.62l.02-3.32c2.14,1.2,4.68,2.87,7.21,2.82l-1.14,3.54c-5.79-3.73-7.67-12.04-4.05-17.89l1.35-2.26,1.61,2.03c5.38,6.76,13.67,11.16,22.4,11.72l-1.5,1.79c-2.71-12.57,12.89-20.95,21.62-11.37l-.73-.24c2.99-.46,5.86-1.69,8.49-3.21-.92,3.24-2.97,6.24-5.94,7.8l-.18-.52c2.26-.18,4.51-.69,6.65-1.54h0Z" fill="#32325d"/></g></svg>