<?xml version="1.0" encoding="UTF-8"?><svg id="uuid-a8913b99-d80e-4515-b61e-0ee80a4fa4dd" xmlns="http://www.w3.org/2000/svg" viewBox="0 0 69 69"><path d="M34.61,29.36c-15.39,0-31.75-4.67-31.75-13.34S19.22,2.68,34.61,2.68s31.74,4.67,31.74,13.34-16.36,13.34-31.74,13.34Zm0-22.67c-15.88,0-27.75,4.93-27.75,9.34s11.87,9.34,27.75,9.34,27.74-4.93,27.74-9.34-11.87-9.34-27.74-9.34Z" fill="#32325d"/><path d="M34.61,43.8c-15.39,0-31.75-4.67-31.75-13.34v-14.21H6.86v14.21c0,4.41,11.87,9.34,27.75,9.34s27.74-4.93,27.74-9.34v-14.21h4v14.21c0,8.66-16.36,13.34-31.74,13.34Z" fill="#32325d"/><g><path d="M34.61,52.7c-15.39,0-31.75-4.67-31.75-13.34H6.86c0,4.41,11.87,9.34,27.75,9.34s27.74-4.93,27.74-9.34h4c0,8.66-16.36,13.34-31.74,13.34Z" fill="#32325d"/><path d="M34.61,66.4c-15.39,0-31.75-4.67-31.75-13.34v-13.46H6.86v13.46c0,4.41,11.87,9.34,27.75,9.34s27.74-4.93,27.74-9.34v-13.46h4v13.46c0,8.66-16.36,13.34-31.74,13.34Z" fill="#32325d"/></g></svg>